<svg id="Layer_1" data-name="Layer 1" xmlns="http://www.w3.org/2000/svg" viewBox="0 0 250 250"><defs><style>.cls-1{fill:#f5f5f5;}.cls-2{fill:#fefefe;}.cls-3{fill:#111;}.cls-4{fill:#131212;}.cls-5{fill:#efeff0;}.cls-6{fill:#e2e1e3;}.cls-7{fill:#ebeced;}.cls-8{fill:#c2c1c7;}.cls-9{fill:#ecddcb;}.cls-10{fill:#d3d3d6;}.cls-11{fill:#393737;}.cls-12{fill:#a49476;}.cls-13{fill:#80684d;}.cls-14{fill:#fdfdfd;}.cls-15{fill:#b4a285;}.cls-16{fill:#24850f;}</style></defs><title>steins_gate</title><circle class="cls-1" cx="125" cy="125" r="125"/><path class="cls-2" d="M150,60.14h0l.25-.26h0a3.49,3.49,0,0,0,2.4-2.14l.87-1.25.25-.35h0l.94-1.18h0l.24-.23h0l.25-.25h0l.24-.49h0c.12-.16.37-.45.35-.49-.49-.56-2-.26-2.5.48h0l-.49.23h0l-1,.94h0l-.23.24h0l-.72-.2v-.48h0c.17-.18.42-.35.51-.57.71-1.75,1.4-3.53,2.09-5.3a7.54,7.54,0,0,0,.22-.94h0l.73-1h0c1.25-.85.65-2,.42-3.14l-.43.55h0l-.33.5-1.79,2-.25.35h0l-.23.24h0l-.72.46h0l-.47.24h0l-.24.24h0l-.49.24h0a.69.69,0,0,0-.48.18c-.63.87-1.77.85-2.5,1.47h0c-.77-.38-.83.42-1.25.71h0l-.24.23h0l-.25.25h0l-.25.26h0l-.35.48c-1.25,1-1,2.39-1.25,3.75l-1.65,1-2.5,1.15c-.26-.51-.43-1,.24-1.37a1.7,1.7,0,0,0,.48-.75c.45-1,.89-2,1.33-3l.07-.3a10.54,10.54,0,0,0,2.09-4.43c-.27-1.25-.52-2.5-.77-3.61l.21-.25.69.65c-.47-1.43-1-2.74-2.79-2.82.94-2,1-2.42.45-3.2l-.5,1.38a6.13,6.13,0,0,0-1.54-4.26l-.44,1.18-.18-.48-1.89-2.67-.53,1h0c-1,.17-.36-.9-.92-1.11l-.36,1.41-.35.07-.19-.39-.55.5h0a.45.45,0,0,1-.23,0h0l-.56-2-.6.86-.41.27c-.91-.41-1.5.13-2.1.68l-1.11,1.25.1-1,.52-1.36-.21-.17-1.65,1.68H125l-1.32.51,1.43.4L123,38.4a6.72,6.72,0,0,1-.75.4.17.17,0,0,0,0-.1h-.1c-.29.49-.78.95-.8,1.45a27.27,27.27,0,0,0,.19,3.5l-1.34,1.11.14.14,1.41-.39L120.26,47l.28.21.22.17c-.5,1.25-.82,2.5.3,3.66a.37.37,0,0,1,.11.32c-.32,1.25.55,2.17,1.07,3.17l.43.73.47.92.2.23.2.28.5.6c.73.65.09,1.25,0,1.49l.85,1.12a2.38,2.38,0,0,1-.55.28q-2.91.24-5.82.43l-1.42.48-4,.27-3.5.64a9.11,9.11,0,0,0-4.71,2.6h0l-.48.25h0l-.59.73-2.5,2.5-.23.3.23.15h0a.09.09,0,0,0-.12.07h0c-.65.62-.5,1.18.1,1.7h0l1.25,1,1.25.58a60.65,60.65,0,0,1,10.25,5.46c.28.2.66.54.66.81,0,1.08-.13,2.14-.21,3.19l-1.72-.15-.25-.23h-.43l-.27-.23h-.41l-4.27-1.15-2.57-.26-1.34-1.68c-.69-1.25-1.34-2.64-3.13-2.6l-1-.66-8.35-3.33.82,1.25,1.92,1.58.26.3a6.77,6.77,0,0,1-1.6-.26c-.85-.35-1.65-.84-2.5-1.25l-.36.5c.89.8,1.79,1.58,2.66,2.4.38.35.72.75,1.08,1.11h-.49c-.65-.25-1.25-.54-1.94-.75s-.87-.08-.47.57l.57.4h0l.25.25h0l1,.72h0v.27a20,20,0,0,0,6.76,4.15,17.1,17.1,0,0,1,2.22.54c.3.1.53.43.79.66-1.14,2.07-1.15,2.35.8,3.41a29.34,29.34,0,0,0,4.15,1.59l.44.16.72.24h.47l1,.24h.43l.32.37.4-.62h.21l.5-.23.19.4.24.28c.19.42,1.25,0,.91.92h0a15.23,15.23,0,0,1-1.51,2c-4.75,4.47-9.29,9.11-14.82,12.61l-2.5,1.46-2.22,1.25c-1.42.68-2.83,1.38-4.27,2-.89.39-1.81.68-2.71,1l-6.38,1.25a3.27,3.27,0,0,0-.8.17c-4,1.13-8.1,1.93-11.51,4.76a36.92,36.92,0,0,0-11.5,15.43A38.67,38.67,0,0,0,53,137.32c-.3,1.6-.66,3.2-.9,4.82s-.35,3-.53,4.53L51,150.42v7.94h.29l.19-.46.7-.28-.08-.25-.81.13v-.92l.85.47L54,151.66a21.38,21.38,0,0,1,5.29-6,55.26,55.26,0,0,1,12-7,3.94,3.94,0,0,1,2-.33c3.47.7,6.94,1.47,10.38,2.33a14,14,0,0,1,3,1.35c.15.07.13.51.2.78h0l-.22.48L85,147c-.22,1.1-.42,2.21-.68,3.3-.69,2.88-1.25,5.8-2.15,8.59a78.75,78.75,0,0,1-7.65,16,19.58,19.58,0,0,1-2.42,3.1,5.26,5.26,0,0,0-1.4,2.87,6.84,6.84,0,0,1-.86,3,6.65,6.65,0,0,0-1.25,4.34v2.91a1.42,1.42,0,0,1-.45.92c-1.32,1.1-2.5,2.5-4.51,2.23-2.5,1.5-5,2.92-7.31,4.52a2.91,2.91,0,0,1-2.08.73,13.57,13.57,0,0,0-6.07,1l5.53.58-.41,1.17h-11A3.84,3.84,0,0,0,39,203.46l1.25.13c3.24.15,6.48.29,9.7.47a5.57,5.57,0,0,1,1.25.42l-.1.45-14.4.61a1.67,1.67,0,0,0,1.84,1.19c4.32,0,8.66.1,13,.2a13.16,13.16,0,0,1,2.33.46v.34l-11.78,1.06v.41a21.21,21.21,0,0,0,4,.71c4.1,0,8.19-.26,12.29-.3,1.67,0,3.35.28,5,.42v.36l-8.08,1.39v.43c2.74.2,5.48.59,8.2.53,3.63-.09,7.23-.63,10.85-.79a42,42,0,0,1,5.49.39v.25l-3.27,1.69c4,.45,7.87,1.08,11.81.23a40.46,40.46,0,0,1,12.32-.7c.83.08,1.09.43,1.1,1.14v1c3,.08,6,.23,8.95.2a11,11,0,0,0,3.89-.59,19.32,19.32,0,0,1,7.5-1.11,16.11,16.11,0,0,1,7.37,1.4,4,4,0,0,0,1.78.45q5,0,9.93-.2c.31,0,.62-.48.91-.75s.64-1,1-1a75.67,75.67,0,0,1,8.52,0c3.28.25,6.47,1.4,9.83,1.16,2-.15,4.05-.23,6.08-.36a10.88,10.88,0,0,0,1.35-.21l-3.43-1.47v-.37c3.31,0,6.64-.25,9.94,0,4.59.25,9.15,1,13.75,0l1.16-.23-1.37-.37,2.58-1.43h0a3.36,3.36,0,0,1,1.14-.39c2,0,4,.14,6.08.25a9.75,9.75,0,0,0,5.77-1.18l-8.16-.82v-.38a16.41,16.41,0,0,1,3.16-.71c3.2-.11,6.4-.09,9.59-.06a2,2,0,0,0,2.07-1.25l-4.5-.23c-1.83-.08-3.66-.16-5.48-.28-.62,0-1.39-.1-1.1-1.18l9.57-.4.06-.54a15.46,15.46,0,0,0-2.93-.71c-2.92-.11-5.85,0-8.75-.13a19.42,19.42,0,0,1-3.53-.81v-.3l6.74-.65c-4.56-1.65-9.23-.81-13.9-.86.6-1.69,1.25-3.31-.51-4.63l-.67-.68h-.23v-1a2.31,2.31,0,0,0-.2-3.07l-1.18-1.9-.56-.79-.29-.45-.85-1.25c-1.75-2.41-3.49-4.83-5.24-7.23l-4-8.35-.49-1,.23-.46,1-.27c5-2,10-4,15-6a15,15,0,0,0,2.34-1.46L193,161l.2-.22.23-.27.35-.73.55-.61.38-.4.32-.41.47-.66L196,157l1-1.51c1-1.91,2.13-3.75,3-5.75,2.69-6.1,4.24-12.35,2-19-.21-.62-.56-1.18-.77-1.79a32.44,32.44,0,0,0-6.75-10.94l-.44-.5-3.52-3.5-.39-.39-.18-.17-1.42-1.25a15,15,0,0,0-6-3.29l-4-1h-.26a6.2,6.2,0,0,0-.87-.24l-9.08-.4-2.5.42-5.1.68h-1.38l-.49.25a11.09,11.09,0,0,1-1.63,0,3.07,3.07,0,0,1-1.44-.41c-1.68-1.25-3.26-2.68-5-3.85a12.16,12.16,0,0,0-3.56-1.6c-2-.54-4.08-.85-6.14-1.25h0l-.26-.27-1.25-1.33c-.89-1.53-2.5-2.82-1.82-4.74a9.11,9.11,0,0,0,1.93-1c2.42-2.08,2.9-5.43,5-7.7.12-.13.11-.38.16-.56a48.29,48.29,0,0,1,4.35-11.18,22.2,22.2,0,0,0,1.38-4.37c.84-.8.28-1.6,0-2.39-.57-1.06-1.1-2.16-1.76-3.18a2.8,2.8,0,0,0-2.7-1.25,20.91,20.91,0,0,1-2.85-.22c.89-.39,1.77-.79,2.67-1.16s2-.82,3-1.25l.72-.68h0Z"/><path class="cls-3" d="M173.4,169.49l-.22.46-.69.14c1.69,3.57,3.34,7.08,5,10.58l.26-.11-.49-1.25h.39c1.75,2.4,3.49,4.82,5.24,7.23-.36.85,0,1.17.85,1.25l.29.45-.14.71.32.25h0l.24.48h0l.24.46h0l1,3.23.31.64v1l-2.15-.43a23.57,23.57,0,0,0-2.77-.61,7.67,7.67,0,0,0-1.85.22l.07.27,4.53.62,3,.68c1.77,1.25,1.11,2.93.51,4.62,4.67,0,9.34-.79,13.9.86l-6.74.65v.3A20.32,20.32,0,0,0,198,203c2.91.12,5.85,0,8.75.12a15.46,15.46,0,0,1,2.93.71l-.06.54-9.57.4c-.29,1.08.48,1.13,1.1,1.18,1.82.12,3.65.2,5.48.28l4.51.23a2.07,2.07,0,0,1-2.08,1.25c-3.19,0-6.39,0-9.59.06a18,18,0,0,0-3.16.71v.38l8.16.83a9.82,9.82,0,0,1-5.77,1.17c-2-.11-4.05-.2-6.08-.25a3.23,3.23,0,0,0-1.13.39,9.61,9.61,0,0,0,.4-2.71,10.71,10.71,0,0,0-5.84-7.95,4,4,0,0,0-2.5-.47,9.09,9.09,0,0,0-7.1,5.89c-.9,2.18-.79,2.3,1.25,3.46A17.15,17.15,0,0,0,191.49,211l-2.59,1.43,1.38.37-1.17.23c-4.58,1-9.15.23-13.75,0-3.3-.18-6.62,0-9.93,0v.37l3.42,1.47c-.64.1-1,.19-1.35.21-2,.13-4.05.22-6.07.36-3.37.24-6.55-.91-9.84-1.16a75.5,75.5,0,0,0-8.51,0c-.34,0-.64.67-1,1s-.6.75-.91.75c-3.34.13-6.64.19-9.93.2a3.66,3.66,0,0,1-1.68-.44,16.44,16.44,0,0,0-7.38-1.4,19.15,19.15,0,0,0-7.5,1.12,11.17,11.17,0,0,1-3.89.58c-3,0-5.91-.12-9-.2v-1c0-.71-.27-1.06-1.1-1.13a40.14,40.14,0,0,0-12.32.7c-3.94.84-7.83.21-11.81-.24l3.27-1.69v-.25a42,42,0,0,0-5.49-.39c-3.62.17-7.22.7-10.85.79-2.72.06-5.46-.32-8.2-.52v-.44l8.08-1.39V210c-1.68-.14-3.35-.42-5-.41-4.1,0-8.19.28-12.29.3a22.08,22.08,0,0,1-4-.72v-.42L54,207.69v-.34a13.45,13.45,0,0,0-2.34-.46c-4.33-.1-8.66-.15-13-.2a1.67,1.67,0,0,1-1.84-1.19l14.36-.5.11-.45a5.09,5.09,0,0,0-1.25-.41c-3.23-.19-6.47-.33-9.7-.48l-1.25-.12a3.78,3.78,0,0,1,3.22-1.19H53.24l.41-1.16-5.54-.59a13.76,13.76,0,0,1,6.08-1,2.91,2.91,0,0,0,2.06-.81c2.38-1.6,4.86-3,7.31-4.52,2,.26,3.19-1.13,4.51-2.23a1.42,1.42,0,0,0,.45-.92v-2.92a6.67,6.67,0,0,1,1.25-4.34,6.64,6.64,0,0,0,.87-3A5.19,5.19,0,0,1,72,178a19.08,19.08,0,0,0,2.41-3.1,77.38,77.38,0,0,0,7.65-16c.94-2.79,1.46-5.71,2.15-8.59.26-1.09.46-2.2.69-3.3.22-.11.57-.16.65-.34.66-1.47,1.25-3,1.9-4.47L91,134.54c.39-.79.76-1.6,1.19-2.38a19.9,19.9,0,0,1,1.16-1.84l-.65,2A62.2,62.2,0,0,0,89.2,147.5a34.68,34.68,0,0,0-.2,12.4,41.19,41.19,0,0,1,.36,5.44,14.83,14.83,0,0,1-.24,2.3l-1.25,3.52c-.9,2.93-1.78,5.85-2.75,9,1.94-2.88,2-6.14,3.13-9l7.12-14.07c0-.1.24-.15.35-.23a6.94,6.94,0,0,1-.28,1.11c-1.25,2.5-2.4,5-3.6,7.5-.13.27-.22.53-.32.79l.32.16,3.2-5.75h.17l.29.13v.12c-1.66,3.2-3.35,6.4-5,9.62A26.85,26.85,0,0,0,89,173.75c-.77,2.29-1.56,4.58-2.12,6.92-.65,2.7-2.25,5.13-2.21,8h-.22l-.07-.75a14,14,0,0,0-.65,6A22.55,22.55,0,0,0,82,196a9.92,9.92,0,0,0-.81,1.59c.11.15.24.45.34.43,1.36-.14,2.71-.32,4.38-.55l-2.16-1.11a59.13,59.13,0,0,1,6.9-.61,11.83,11.83,0,0,1,3.25.24,39.7,39.7,0,0,0,11.51.58c.36,0,.9-.12,1-.37.6-1.06,1.57-1,2.5-1l3.4-.07c2.5-.09,5-.2,7.44,1a3.16,3.16,0,0,0,1.46.16c3.51-.19,7.11.49,10.5-1a2.22,2.22,0,0,1,.81-.09l7.6.07c.82,0,1.74-.17,2.08,1,0,.16.46.32.7.32a70.92,70.92,0,0,0,9.67,0,48.64,48.64,0,0,1,10.72-.23l2,.15v.21l-1.89.92,7.42.7,1.64.48.22,1.65c.3.8.72.46,1.05.06.79-.93,1.54-1.91,2.3-2.86h0l.25-.49h.22l1.45-1.83.2-.27.13-.2h-.25l-.23.19-3.75,3.23a45.23,45.23,0,0,1,2.5-4.23c1.36-2.39,3-4.13,6.08-3.75l.49.21.14.15-.16-.14-.45-.25a11.81,11.81,0,0,0-1.48-1.52c-.9-.66-1.91-1.16-2.84-1.8-1.86-1.31-3.75-2.68-5.53-4l-3.23-2.5L165,177.15a3.53,3.53,0,0,0,0,.46c.94,3.65,1.9,7.3,2.81,11,.2.79.26,1.6.39,2.4h0l-.68-1.17L165.84,187h0l-.24-.71h0l-.26-.46h-.45c-1.4-3.43-2.77-6.88-4.23-10.29a7.14,7.14,0,0,0-1.39-1.66,4.38,4.38,0,0,1,.93-.55q5.76-1.74,11.54-3.44C172.2,169.75,172.8,169.64,173.4,169.49Zm3.75,40.25.24.23L182,212l3.3.65v-.32l-3.46-.72L177.4,210l-.24-.24h-.09ZM75.26,189.2l.2.3.29.39.36.56.69.94L79.49,195l.27.26-.08-.42L77,191.25l-.72-.93c-.13-.17-.25-.36-.39-.53l-.34-.38-.22-.24-.19-.14Zm15.78-22,.29-.43.08-.29-.23.15-.24.47-.16.3c-.08.08-.14.17,0,0h0Zm88.37,18.06.2.37.15-.07-.21-.41-.32-.85-.25.12Zm-1.55-4.33-.34.14,1.25,3,.37-.15Zm2,4.89-.08.3.34.09Z"/><path class="cls-4" d="M112.5,90.33c.28-.88-.73-.5-.91-.93l1.25-.27,5.16,1,5.1,1.71,6,1.84.13-.42L123.5,91.7c-.61-.22-1.25-.42-1.85-.68s-1.56-.69-2.35-1l13.85,2.5a23.44,23.44,0,0,0,3.83.68c.47,0,1.45-.88,1.38-1.25-.26-1.42-.16-3-1.43-4.13l.58-.48-.62-.9.24-.25,1.13.83,2.5,2.3a10.09,10.09,0,0,1,.77-7l-1.63,1.25c.7-1,1.33-2.08,2.11-3,1-1.25,2.22-2.33,3.34-3.51a8.48,8.48,0,0,0,.93-.87c1.47-1.87,2.91-3.75,4.37-5.65a22.44,22.44,0,0,1-1.39,4.37A49.22,49.22,0,0,0,145,86a.75.75,0,0,1-.15.57c-2.14,2.27-2.63,5.62-5,7.7a9.43,9.43,0,0,1-1.94.95c-.64,1.92.94,3.21,1.83,4.73a3.89,3.89,0,0,0,.48,1.13c1.5,1.49,3,2.92,4.57,4.39l1,.82.17-.22-1-.8c-.32-.31-.67-.61-1-.94-.92-.92-1.84-1.87-2.76-2.81,2.05.4,4.12.71,6.14,1.25a12.4,12.4,0,0,1,3.56,1.6c1.74,1.17,3.31,2.6,5,3.85a3,3,0,0,0,1.44.41,11,11,0,0,0,1.62,0,1.88,1.88,0,0,1-.56.25c-1.25.08-2.57.13-3.87.19h-.44l-.79-.09c-.59-.06-1.16-.11-1.74-.19a20.64,20.64,0,0,1-3.33-.43,33.28,33.28,0,0,1-10-5l-.23-.17.09.3a73.52,73.52,0,0,0,4.6,7.8c2.31,3,5.35,5.14,9.5,4.75l1.61.1-1.71.25H150.3c-1.25-.32-2.41-.65-3.61-1-.51-.15-1-.35-1.51-.52a1.11,1.11,0,0,0-.17-.3q-4.59-3.75-9.2-7.5a1.69,1.69,0,0,1-.62-1.79,34.36,34.36,0,0,0,.27-4.3l-.78,1.81-.23-.11c.41-1.76.84-3.52,1.25-5.29l.39-1.57.12-.16h-.27c-.39.26-.78.51-1.15.78-1.48,1-2.91,2.19-4.85,1l-1-.56.57,1.56v.4l-.65-.11c0,.47-.26,1,.55,1.06v.41c0,.54-.11,1.08-.15,1.63A25.94,25.94,0,0,0,131.1,112a10.78,10.78,0,0,0,2.35,3.94,54.79,54.79,0,0,0,14.6,10.57,10,10,0,0,1,3.75,3.21c1.54,2.2,3.21,4.3,4.84,6.44l.6,1.08h-.35a8.78,8.78,0,0,0-2.21-1.63c-2.78-.94-5.62-1.71-8.43-2.5a3.31,3.31,0,0,0-.72.15h0a.52.52,0,0,1-.39-.2c-1.09-1.92-2.23-3.82-3.23-5.8a4.3,4.3,0,0,0-2.25-2.5l.6,1.71-.37-.32-.28-.44-.25-.46-.2-.14.08.28.22.45.27.46.53.95v-.79a5.9,5.9,0,0,1,.7.8q2.91,4.67,5.77,9.35l.48.69.2.26.72.63.18-.2a.14.14,0,0,1,.08.1l-.36,1a7.35,7.35,0,0,0-.87-1.05,11.78,11.78,0,0,0-1.16-.84l.14-.4a5.29,5.29,0,0,0-2.23-2.76l-.58-.57h0l-.24-.47h0l-.24-.48h0l-.47-.36c-.29-.61-.54-1.25-.87-1.84-1-1.71-2-3.41-2.91-5-.79.27-1.47.47-2.12.74-.2.09-.29.4-.44.63a5.17,5.17,0,0,1-.8-.67c-.44-.55-.83-1.15-1.18-1.63-.26,1-.5,1.92-.75,2.86h-.5c-.12-.45-.27-.9-.37-1.36-.49-2.25-1.51-4.17-3.75-4.93a67,67,0,0,0-8-2.2,4.44,4.44,0,0,1-3.75-3.07c-.19-.49-.45-1-.68-1.44a12,12,0,0,0-.27-1.57c-.29-1-2.88-2-3.75-1.48l-2.11,1.25.28,2.5a7.48,7.48,0,0,0,.09,1.41h-.34c-.13-.88-.26-1.75-.41-2.63-.24-1.25-.66-1.61-2-1.55h-.63a11.8,11.8,0,0,0-2.71.72,11,11,0,0,0-2,1.83l-3.28,3.11c.09.12.19.23.29.35l.2.2-3.21,3.12-.24.24h0a13.5,13.5,0,0,0-1,1.7c-1.5,3.62-3,7.27-4.44,10.91l-3.31,7.5-.68,1c-.06-.27,0-.7-.2-.78a14,14,0,0,0-3-1.35c-3.44-.86-6.9-1.62-10.38-2.32a3.83,3.83,0,0,0-2,.32A55.28,55.28,0,0,0,59.3,145.8a21.24,21.24,0,0,0-5.29,6c-.11-.11-.34-.25-.31-.31.2-.59.41-1.16.66-1.74A74.09,74.09,0,0,1,66.6,131a2.64,2.64,0,0,0,.31-.71h0l.26-.25h0l.25-.26h0l.25-.27h0l.27-.25h0l1.17-1.17h0l.24-.24h0l.24-.46h0l.22-.24h0l.24-.22h0l.24-.24h0l1.25-1.08c1.63-1.6,3.27-3.21,4.92-4.78a6.47,6.47,0,0,1,1.66-1.25c5.08-2.23,10.17-4.4,15.27-6.59,2.11-.79,4.26-1.5,6.25-2.4a12,12,0,0,0,2.24-1.84l.42-.5,1.16-1.41-.24-.19c-.37.47-.76.94-1.15,1.41l-.37.52a26.43,26.43,0,0,1-3.18,2c-1.77.82-3.66,1.43-5.48,2.12-.3.1-.6.19-.89.3-4.06,1.62-8.15,3.21-12.15,5-1.44.63-2.79,1.5-4.18,2.26l-.3-.31,1.25-1.81L77,118l.33-.26a11.54,11.54,0,0,1,1.17-.92c2.61-1.64,5.25-3.21,7.84-4.89,2.24-1.45,4.4-3,6.6-4.51h0l.25-.24h0l.49-.25h0l.71-.48h0l.5-.24h0l.49-.25h0l.25-.25h0l.61-.25.11-.66c5.54-3.5,10.11-8.14,14.83-12.6a15.26,15.26,0,0,0,1.36-1.86c-.14.47-.24,1-.4,1.43-.54,1.57-1.09,3.12-1.64,4.67l-1.71,3.31a24.33,24.33,0,0,0,4.49-7h0l.23-.47h0l.25-.62c0-.26.12-.68,0-.76A6.88,6.88,0,0,0,112.5,90.33Zm24,31.35-.21-.27c-.75-.78-.23-2.23-1.47-2.76h-1.18a3.24,3.24,0,0,0-.22-1.06,13.8,13.8,0,0,0-1.25-1.5c-.44-.49-.79-1.25-1.33-1.41a55.07,55.07,0,0,0-5.4-1.78,9,9,0,0,0,1.1,2.5c1.92,2,3.88,4.14,7.14,3.31-1.11,1.25-2.41.42-3.65.19v.31l2.71.8,3.44,1.63.23.21.25.1A.67.67,0,0,1,136.48,121.68Zm1.36,0-.19-.07.17.08.19.29.18.12-.12-.2Zm2.68,6.18.23.35h.14l-.16-.45-.24-.47-.23-.18v.35Zm-1.12-3.75.24.1-.09-.25-.91-1.66-.4.25Zm-11.18-17.17c.1-.14.33-.31.29-.41-.27-1-.6-1.89-.91-2.84l-.71-2.14a8.72,8.72,0,0,0-1.25-2.4C124.31,98,122.92,97,121.49,96l-2.77-2.08.67,3.75.23,1.36h-.15l-1-1.64L117.05,95l-1.32-2.71c-1.41,1.81-2.8,3.37-3.92,5.12-1.66,2.59-3.06,5.42-4.69,8.13l-.13.15h.27l.63-.23.1.16-1.33,1.5-3.52,3.13c3.11-.25,5.61-1.75,8.23-2.75l.56.21-.25.21-.18.18h.58a23,23,0,0,1,7.31-.6c3.25.62,6.63.17,10.1,1.56Zm-8.87,6.25c.31.39.65.76.94,1.16a12,12,0,0,0,8.26,4.51c-1.16-1.25-2.36-2.58-3.48-4a17,17,0,0,1-1.25-2.15v-.51h-.15l.2.47-.1.66-.62-1.11c-.18-.29-.29-.72-.53-.81-1.25-.41-2.5-.74-3.75-1.09l-.27.11.22.85v.45a9.75,9.75,0,0,0-.6-1.32,2.69,2.69,0,0,0-.81-.8c-.22-.15-.61,0-.81-.23a4.48,4.48,0,0,0-4.06-.31c-.15.09-.19.36-.32.6a1.82,1.82,0,0,0,.5.16,4.06,4.06,0,0,1,4.27,3.32,9.5,9.5,0,0,0,1.06,2.5,3.41,3.41,0,0,0,3,1.9c-.2-.57-.36-1-.51-1.45Zm10.26-1.56a1.88,1.88,0,0,0-1.17-2,12,12,0,0,0-6.89-1.25,1.14,1.14,0,0,0-.74.86,1.16,1.16,0,0,0,.7.9c2.68.65,5.38,1.16,8.1,1.6Zm-18.22-2.54a7.78,7.78,0,0,0-4.35,1.7C109.83,111.76,111.44,111.13,111.39,109.09Zm15.86-10.72.29-.11c-.7-1,.44-2.65-1.61-3.26Zm-23.85,8.07.24.15.47-.76-.17-.12Zm.84-1.11-.1.18h.17v-.08Zm42.05,1.07-.25-.09s-.08.14,0,.17a1.08,1.08,0,0,0,.2.16Zm-7.42,18.3s.09-.06.08-.09a.67.67,0,0,0,0-.2.08.08,0,0,0-.08.09A1.33,1.33,0,0,0,138.87,124.7ZM108.65,99.85l-.26.16c.07,0,.15.15.22.14s.14-.15.14-.15Zm28.21,22.5v-.09a.07.07,0,0,0-.07.08c0,.07,0,0,.06.08Z"/><path class="cls-5" d="M157.17,137.14l-.6-1.08a36.81,36.81,0,0,1,2.42-3.27c1.63-1.78,3.45-3.39,5.08-5.17A15.78,15.78,0,0,0,165.7,125l.9-.5a2,2,0,0,0,2.5.41l-1.25-.1a6,6,0,0,1,3.14-4.38,4.17,4.17,0,0,1,5.55,1.25c.32.47.63.94-.28,1.25-.31.09-.5.62-.74.94l-2.5.43-2-.2v.32a2,2,0,0,0,2.21.1l4.47-.3,5.6-.09c-.22,1.25.4,1.69,1.48,2.07a9.32,9.32,0,0,1,4.82,3.15,14.21,14.21,0,0,1,2.85,8.45,6.15,6.15,0,0,0,.36,2.4,11.34,11.34,0,0,1-.15,9.8c-1.5,3-2.81,6.14-4.44,9.08a15.46,15.46,0,0,1-4.62,5.59l2.3-.2c-3.45,1.36-6.9,2.71-10.34,4.09a7.79,7.79,0,0,0-1.11.67l-1,.27c-.59.15-1.25.26-1.78.43q-5.77,1.71-11.54,3.44a4.08,4.08,0,0,0-.92.55l-1.13-.15c-1.06,1.57-3.2.5-4.75,1.59l-.22-.94a4.86,4.86,0,0,0,.8-1.05c.7-1.82,1.33-3.67,2-5.52.87-3.18,1.77-6.35,2.6-9.54.46-1.79.77-3.62,1.15-5.44.17-.55.35-1.08.51-1.63a10.23,10.23,0,0,0,.31-1.25,11.71,11.71,0,0,0,.11-1.35c-.09-1.64-.16-3.27-.25-4.89l-.62-2.35Zm18.91,30,.11.37,3.75-1.32-.14-.38Zm-5.59-42.24v-.46l-1.11.12v.34Z"/><path class="cls-6" d="M159.38,108.36h1.41l5.1-.67,2.5-.43a5.06,5.06,0,0,0,1.25.4c2.32.12,4.65.19,7,.27h1.94c.15.15.28.36.46.41,1.16.34,2.34.62,3.52.94l2.16.87a3,3,0,0,0,0,3.18c.17.33.21.76.4,1.1a8.06,8.06,0,0,0,1.16,1.73c1.11,1.06,2.44,1.93,3.46,3.06,1.39,1.52,2.58,3.2,3.84,4.83l-3.29-.16-.26-.14c-.39-.7-.8-.55-1.25,0l-6.74-.11a5.23,5.23,0,0,0,0-1.58c-.7-2.23-1.49-4.44-2.25-6.65a23.45,23.45,0,0,1-1-3,2.08,2.08,0,0,0-1.57-1.67,17.8,17.8,0,0,0-2.13-.61,1.53,1.53,0,0,0-1.07.12c-1.42,1-2.78,2.06-4.17,3.1a18.64,18.64,0,0,1-2,1.44,11.7,11.7,0,0,0-4.1,4.2,52.71,52.71,0,0,1-3.62,4.55s.11.2.22.43l-3.09-.26-.73-.11a17.8,17.8,0,0,1-6.83-1.8,18.21,18.21,0,0,1,1.69-1.18,6.86,6.86,0,0,0,3.06-3.32l-.93-.78H157v-.16l-1.59-.28a11.39,11.39,0,0,1,3-5.36C159.16,110,159.77,109.46,159.38,108.36Z"/><path class="cls-4" d="M149.06,61.06c-1,.4-2,.79-3,1.25s-1.79.78-2.68,1.16l-.15.33L142,65.42,138.54,69l-1.4.32h-.53l-3.75.79-4.23.38a12.31,12.31,0,0,0-1.92,0,2.67,2.67,0,0,0-.93.55l-.7-.34-.1.19.46.48h-.35v2.08L124,71.66c-1.25,2.5-2.38,4.89-3.48,7.29a3.29,3.29,0,0,0,1.32,3.75V83l-3-.14-1.28-.3h-1l-3.92-1.35h.23l1.8.12c.07-1,.21-2.11.21-3.18,0-.28-.39-.62-.66-.82a61.43,61.43,0,0,0-10.25-5.46l-.58-.7-.6-.25h0a3.34,3.34,0,0,1,.67-.92c.75-.5,1.56-.93,2.36-1.38l5-1.37h4.76a12.85,12.85,0,0,0,2.5-.68l7.25-3.1.19.3c-.64.54-1.25,1.06-1.93,1.62s-1.25,1-1.81,1.57h0l-.69.25-.55.24.79.22.17.26-.18-.25V67.3h1c.25,0,.54.16.75.09,4.8-1.7,9.59-3.44,14.39-5.15a3.16,3.16,0,0,1,1,0l.48,2.28V66.3a21.23,21.23,0,0,0,1.2-3.8c.23-.76.57-1.48.86-2.21a2.26,2.26,0,0,1,3.19.27l0,.06c.15.17.49.17.74.24l1.25.15,3-.36ZM121,75.84h.19l2.77-5-.25-.34-2.5.75-.28-.08c-.07-.1-.17-.3-.22-.28L116.44,72l-5.09,1.13c1.25,1.4,2.5,1.18,3.89.88a1.37,1.37,0,0,0,.67-.61,4.6,4.6,0,0,0,.34-.94c.23,2.5.44,5,.68,7.59,0,.06.18.11.28.16h.37l-.17,1.16-.31.1.28.14,1,.68c.33-1,.59-1.81.89-2.62.21-.53.49-1,.72-1.57Z"/><path class="cls-4" d="M142.69,44.51c.25,1.17.5,2.31.77,3.61a10.59,10.59,0,0,1-2.09,4.38c0-.56-.08-1.13-.15-2-.41,1.05-.7,1.75-1,2.44v.36l-.13.08h0V53.3l.28-.19.85-.31c-.44,1-.87,2-1.32,3.05a1.82,1.82,0,0,1-.49.75c-.66.39-.5.86-.24,1.37v.42l-.24.28h0l-1.37.22v-.37c.14-.12.38-.22.41-.37a20.06,20.06,0,0,0,.66-5,38.66,38.66,0,0,0-1.7-6.33c-.22-.76-.56-1.47-.88-2.28l-.56.18.49,1.54c-.76-.56-1.09-1.81-2.36-1,1.25,2,1.32,2.44.14,3.59a2.26,2.26,0,0,0-1-3l-.1-.05a3.63,3.63,0,0,0-3.15,0,3.2,3.2,0,0,0-.67,4A3.56,3.56,0,0,1,127.66,46c.1-.42.42-.95-.45-.88a2.49,2.49,0,0,0-.83,3.08v.53l-.4-.55.15-2.91.12-.24v-.28l-.24.12-.22.25c-.52,1.6-1.05,3.2-1.53,4.82-.17.64-.21,1.34-.32,2l.37,3.38q1,2.41,2,4.83v.35h-1.12l-.44-.62-.85-1.13c.11-.27.76-.83,0-1.48l.36-.47-.86-.13-.2-.28.12-.16-.32-.08-.46-.91c.62-.17.62-.17.91.56.42-1.08-.76-1.66-1.08-2.5l-.27,1.25c-.51-1-1.39-1.87-1.06-3.16a.38.38,0,0,0-.12-.32c-1.12-1.14-.8-2.39-.3-3.67V47.1l-.22.11-.28-.21c.42-.74.84-1.48,1.44-2.5l-1.41.39-.14-.14,1.34-1.11a27.54,27.54,0,0,1-.1-3.52c0-.5.51-1,.8-1.45h.1a.17.17,0,0,1,0,.1,13.37,13.37,0,0,1,0,1.79,2,2,0,0,0,.92,2.25l.25.21v.08h0l-.1-.09-.2-.26a8.92,8.92,0,0,1-.2-1.36c0-.88.14-1.75.22-2.63h.43a4.4,4.4,0,0,0,1.25,4.84,6,6,0,0,1,.65-5.5c0,1.44-.3,2.92.58,4.27l.46-4,.64-.23v2.33h.45V37.67c0-1.52,0-1.57-1.6-1.65a5.13,5.13,0,0,1-1-.21h2.56l1.63-1.8.21.18-.53,1.36c-.76.31-1,1.16-.62,2.15.3-.2.71-.35.87-.65.3-.54,1.25-.84.77-1.73.6-.55,1.18-1.08,2.1-.67-.12.19-.17.49-.33.56-1.18.58-1.25,1.66-1.43,2.8a18.2,18.2,0,0,0,2.33-2.56c.15-.2-.1-.71-.16-1.07l.6-.87c.22.78.4,1.39.56,2a4.72,4.72,0,0,0-2.25,2.71c2.35,0,2.26,1.84,2.78,3.22l.26-.09-.65-3.62.31-.14a18.3,18.3,0,0,1,.85,2,7.62,7.62,0,0,1,0,1.51.61.61,0,0,0,.25.45.67.67,0,0,0,.52,0c.18-1.16,1.5-2,1-3.35a3.5,3.5,0,0,1,0-1.12c-.08-.67.53-1.48-.42-2l.53-1,1.89,2.68c-1.08.57-1.57,2.63-.82,4.18a9.36,9.36,0,0,0,.75-2c.13-.55.16-1.12.25-1.68l.44-1.17a6.11,6.11,0,0,1,1.54,4.26l.5-1.39c.53.79.48,1.25-.45,3.2,1.76.09,2.32,1.4,2.79,2.82l-.69-.65-.39-.18Zm-14.25-5.76-.2.29a2.88,2.88,0,0,0,.23,2.81V39.06a.28.28,0,0,0,0-.18l.08-.17Zm12.15,2.33-.24.22-.23.24-.23.23-.24.24-.24.23-.67.48c-.7.07-.85.37-.35,1.1.18-.43.31-.71.42-1l.73-.46.23-.22.23-.24.24-.24.23-.23.22-.25V41Zm.75,7.32.11.09-.09-.13-.21-.25a2.09,2.09,0,0,0-2.28-1.87,2,2,0,0,0-1.14.49l3.36,1.45Zm-18-2.34c0-.16.13-.32.2-.5l.14-.08h-.08v.08l-.29.42-.22.25-.25.46-.18.44h.15l.18-.38c.07-.16.15-.31.21-.47Zm15.2-3.75,1.25-1.15-.44-.33-.77,1.47-.11.11Zm1.17,6.55-.26-.17v.09l.31.08a2.5,2.5,0,0,1-1.25.4c.57,1.05,1.25,1.08,2.24,0Zm1.34-2.61c-.66-1.48.83-2.5,0-3.84-.48.79-.9,1.42-1.25,2.08-.19.37-.49,1-.35,1.15A6.43,6.43,0,0,0,141.05,46.25Zm-9.14-3.67c.28-1.48,1.25-2.62,0-3.89Zm-.83-3.15a1.67,1.67,0,0,0-.64,2.28,1.43,1.43,0,0,0,.29.36ZM122,46.5l-.38-.12-.74,2.18.34.12Zm17.75-6h.3l.16-1.88H140Zm-17.6,7.76.28.1.24-.76-.2-.08Zm7.77-9.14h.22v-.56H130Zm-7.73,6.56.23.13.18-.48-.16-.07Zm6.59-7.5h.1v-.51h-.09Z"/><path class="cls-7" d="M118.86,82.85l3,.14,6.82,1.25a6,6,0,0,0,1.68.22,12.18,12.18,0,0,0,2.11-.71,3.13,3.13,0,0,1,3.31,1.5A10.23,10.23,0,0,0,137,86.39l.63.9-.59.47c-.7-.11-1,.3-1.25.85-.53.9-1.25,1.72-1.79,2.58-.26.4-.46.83-.69,1.25L119.3,90l-1.35.12-5.16-1c-.49-.84-1-.7-1.44,0l-.19-.4-.71-.26h0l-1.6-.5-.33-.34-.07.08.35.32,1,.66v.49h-.42l-1-.24h-.46l-.76-.21-.44-.16v-.2c1.06-.38,1.25-1.25,1.25-2.21,0-1.94.23-2.37,1.56-2.84,1.9-.66,1.9-.66,1.46-2.5h.93l.28.24h.32v.27l3.87,1.44,4.13,2.15.12-.28-1.85-1.15Z"/><path class="cls-7" d="M66.91,130.15a2.64,2.64,0,0,1-.31.71,74.26,74.26,0,0,0-12.24,18.75c-.25.58-.46,1.15-.66,1.74l.31.31-1.86,5.39-.85-.47v-6.09c.12-.79.29-1.57.36-2.37a8.54,8.54,0,0,0,0-1.43c.18-1.52.29-3,.53-4.54s.6-3.21.9-4.81a3.16,3.16,0,0,0,.65-.73c.51-1.37,1-2.77,1.43-4.16a9.26,9.26,0,0,0,1.43-.75,37.49,37.49,0,0,1,3.31-2.86,14.62,14.62,0,0,1,9.18-2.21q-1.65,2-3.33,4.07l-.16.18-.23.28-.27.34.45-.16.22-.24.23-.25Z"/><path class="cls-7" d="M137.61,58.91,139,58.7c-1.12.63-2.19,1.33-3.34,1.88-4.41,2.08-8.86,4.12-13.3,6.17a2.88,2.88,0,0,1-.71.14c.6-.53,1.25-1.06,1.81-1.58s1.25-1.07,1.92-1.61l-.18-.3-7.25,3.1c-.25-.25-.52-.71-.75-.7-1.9.1-3.75.25-5.7.49-.3,0-.54.62-.8.95l-5,1.37c-.55,0-1.1-.11-1.64-.14h-2.81V68l2.5-2.5.58-.72h0l.49-.25h0l5-2.4,3.25-.5,1.77-.15v.16l-3.58,1.78a49.77,49.77,0,0,0,5.63-2,.74.74,0,0,1,.07-.32l1.42-.48c.13.15.25.43.37.42,2.15-.15,4.28-.33,6.43-.5h1.13l4.7-.15Zm-27.15,5.21.19-.14h-.09a.24.24,0,0,1-.08.21h0Zm.68-.34a.08.08,0,0,0-.08-.08h-.15a.08.08,0,0,0,.08.08Z"/><path class="cls-7" d="M150.7,70.48l-4.38,5.65a7.57,7.57,0,0,1-.92.87,2.8,2.8,0,0,0-.91-.15c-.87.16-1.8.75-2.5.54a3,3,0,0,0-3.38,1.32,10.18,10.18,0,0,1-1.25,1.53c-.72.64-.38,2-1.54,2.27-.72.19-.85.69-.8,1.33l-2-.73c.57-.24,1.17-.44,1.73-.73.18-.11.23-.45.34-.69h0l.48-.48h0l.23-.47h0l.24-.24h0l.7-.7h0l.24-.46h0l.52-.26.18-.34L141.56,74l-.31-.2-.54.31-.24-.2c.14-.47.28-1,.44-1.42l.88-2.5.26-.24h0l.17-.2.3-1,.12-.19,1.58-2,.64-.77h0l.5-.24h0l.48-.49h0a2.45,2.45,0,0,0,.75-.2,1.36,1.36,0,0,1,1.93.18,1,1,0,0,1,.2.32c.67,1,1.34,2,2,3C151,68.87,151.54,69.68,150.7,70.48Z"/><path class="cls-8" d="M92.91,107.5c-2.2,1.51-4.36,3.06-6.6,4.51-2.58,1.68-5.22,3.25-7.83,4.89a13.2,13.2,0,0,0-1.18.91l-.32.27-.19.2a3.51,3.51,0,0,1-3.88.07,2,2,0,0,0-.76-.27,2.73,2.73,0,0,0-1.39,0c-2.25,1.13-4.43,2.37-6.67,3.52a3.3,3.3,0,0,1-1.25.1,35.18,35.18,0,0,1,15.27-9.37c1.09-.22,2.19-.39,3.27-.67s2.07-.63,3.11-1a24.36,24.36,0,0,0,2.71-1c1.44-.64,2.85-1.34,4.28-2Z"/><path class="cls-9" d="M103.25,77.7l1.34,1.64a3.37,3.37,0,0,1-.68.57c-1.71.75-3.44,1.45-5.17,2.18l-5.67-3.45-1.14-.7h0l-1-.72h0L90.71,77h0l-.25-.48,2.09.26H93c0,.11.12.24.2.35s.11,0,.17-.08l-.33-.32c-.37-.36-.7-.76-1.08-1.11-.87-.82-1.77-1.6-2.66-2.4l.36-.5a24.28,24.28,0,0,0,2.5,1.25,6.68,6.68,0,0,0,1.6.26h0l-.07.5h.65l.28.8c.87.75.87.75,1.88.42l-3-2.06-1.89-1.48a4.2,4.2,0,0,0-.2-.83c1.78,1,3.4,2,5.12,2.69a7.93,7.93,0,0,0,2.61.2l1,.66,2.82,2.68Z"/><path class="cls-4" d="M194.5,118a32.44,32.44,0,0,1,6.75,10.94c.21.61.56,1.18.77,1.79,2.24,6.62.69,12.87-2,19-.87,2-2,3.84-3,5.75h-.32a20.5,20.5,0,0,0,1.25-2.25A34.48,34.48,0,0,0,199,128.24a5.35,5.35,0,0,0-.75-1.14l.25-.35-.24-.36h0a3.9,3.9,0,0,0-.18-.67l-4-7.73Z"/><path class="cls-9" d="M149.06,60.66l-3,.36.81-2.5a2.41,2.41,0,0,0-2,2.34c-.25-.07-.59-.07-.74-.24a2.26,2.26,0,0,0-3.17-.38l-.06,0,.23-1.57c1.82-.4,2-.81,2.35-2.86.23-1.25.08-2.72,1.25-3.75l.35-.49h0l.25-.25h0l.25-.25h0l.24-.23h0l1.25-.72h0l.16.24.11.23.17.71a9.88,9.88,0,0,1,0,1.72c0,.29-.42.52-.63.77l-.25-.21V52.22A4.88,4.88,0,0,0,145,56.53a14.29,14.29,0,0,1-.11,2c1.07-.86,2-1.51,2.85-2.31s1.39-1.33,2.29-.88a7.07,7.07,0,0,1,.46-1.34,13.3,13.3,0,0,1,1-1.36L151,54.78h0l-.31.45v1.25l1-1.09h0l.22-.24h0l1-.94h0l.49-.23h2.11l-.23.48h0l-.25.25h0l-.24.24h0l-.94,1.18h0l-.25.35-.87,1.25-2.4,2.13h0l-.25.27h0l-.25.26h0Z"/><path class="cls-4" d="M78.12,112.31a35.29,35.29,0,0,0-15.27,9.38l-.9,1A48.16,48.16,0,0,0,58.2,127c-1.11,1.79-2,3.68-3,5.54-.47,1.39-.92,2.79-1.43,4.16a3.16,3.16,0,0,1-.65.73,38.82,38.82,0,0,1,1.25-5.08,37,37,0,0,1,11.5-15.42c3.41-2.84,7.5-3.64,11.51-4.76a7.66,7.66,0,0,1,.8-.18Z"/><path class="cls-10" d="M159.38,108.36c.39,1.1-.22,1.67-1,2.43a11.41,11.41,0,0,0-3,5.36h-1.64l-1.61-.1a6.21,6.21,0,0,0-.85-.85c-.61-.42-1.25-.77-2.2-1.32A15.94,15.94,0,0,0,151,113c1.53-1,3.53-1.6,3.51-4,1.25,0,2.59-.11,3.88-.19a1.88,1.88,0,0,0,.56-.25Z"/><path class="cls-11" d="M136.18,35.07c.95.48.33,1.25.41,2a3.29,3.29,0,0,0,0,1.13c.5,1.37-.83,2.19-1,3.35a.8.8,0,0,1-.53,0,.66.66,0,0,1-.25-.45,7.62,7.62,0,0,0,0-1.51,15.87,15.87,0,0,0-.85-2l-.31.14.65,3.62-.26.09c-.52-1.39-.43-3.26-2.78-3.23a4.76,4.76,0,0,1,2.35-2.71h0l.15.41.08-.46h0l.73-.11.35-.06c.2.25.5.48.57.77a9.39,9.39,0,0,1,0,1.5h.25l.45-2.57Z"/><path class="cls-11" d="M125.41,38.14a6,6,0,0,0-.65,5.5,4.4,4.4,0,0,1-1.25-4.84h-.39c-.07.88-.18,1.75-.21,2.62a7.94,7.94,0,0,0,.2,1.37h0a2,2,0,0,1-.92-2.25,13.37,13.37,0,0,0,0-1.79,6.72,6.72,0,0,0,.75-.4l2.16-1.67-1.44-.4,1.33-.52a6.09,6.09,0,0,0,1,.22c1.55.07,1.6.12,1.6,1.65l-.44.45-.65.23-.51.34-.09-.9Z"/><path class="cls-11" d="M121.64,66.89a2.88,2.88,0,0,0,.71-.14c4.44-2,8.89-4.09,13.3-6.18,1.15-.54,2.22-1.25,3.34-1.87h.36l-.13-.25V58l2.5-1.15v.38a7.88,7.88,0,0,0-.7.37q-2.52,1.74-5.21,3.24C131.46,63,127.06,65,122.62,67a4.41,4.41,0,0,1-.55.15h-.48v-.1a1.3,1.3,0,0,0-.08-.17Z"/><path class="cls-4" d="M98.75,82.09c1.74-.73,3.46-1.43,5.17-2.18a3.12,3.12,0,0,0,.68-.57l2.57.26v.22a4.47,4.47,0,0,0-4.84,3c-.12.25-.24.49-.37.74a.38.38,0,0,0-.21,0c-.26-.23-.49-.56-.79-.66a18.26,18.26,0,0,0-2.21-.54Z"/><path class="cls-11" d="M174.4,169.23a7,7,0,0,1,1.11-.68l10.34-4.09,4.25-2c.52-.25,1.06-.46,1.6-.7h0a15.83,15.83,0,0,1-2.34,1.47C184.39,165.26,179.39,167.24,174.4,169.23Z"/><path class="cls-9" d="M152.35,46.9l1.79-1.9.32-.5h0c.16.12.48.29.45.39-.1.73-.27,1.46-.43,2.2h0l-.73,1h0l-1.65,2.84.2-1.44h0l.24-.49.17-.32v-.29l-.23.11-1.58.8-1.25.08.25-.6h0l.49-.24h0l.23-.24h0l.48-.23h0l.71-.47h0l.24-.23h0Z"/><path class="cls-12" d="M101.25,68.45h2.81c.54,0,1.09.09,1.64.14-.8.45-1.61.87-2.36,1.37a3.45,3.45,0,0,0-.67.93l-1.42-.65h0l-.1-1.7A.11.11,0,0,1,101.25,68.45Z"/><path class="cls-12" d="M177.24,179.29l.48,1.25-.26.11c-1.64-3.5-3.29-7-5-10.59l.69-.14.49,1a4,4,0,0,0,.16.9C175,174.35,176.1,176.83,177.24,179.29Z"/><path class="cls-11" d="M99.17,74.44a7.93,7.93,0,0,1-2.61-.2c-1.72-.74-3.33-1.73-5.12-2.69.09.36.14.6.2.82l-.81-1.25Z"/><path class="cls-11" d="M150.68,68.09c-.68-1-1.36-2-2-3a1.36,1.36,0,0,0-1.81-.7,1.16,1.16,0,0,0-.32.2,2.87,2.87,0,0,1-.75.2l1-.92h-2.66l-.95-.16.15-.32a22.79,22.79,0,0,0,2.85.22,2.78,2.78,0,0,1,2.7,1.25C149.58,65.93,150.1,67,150.68,68.09Z"/><path class="cls-13" d="M178.31,107.9h-1.67c-2.33-.07-4.65-.15-7-.26a5.52,5.52,0,0,1-1.25-.4l9.08.4A4.88,4.88,0,0,1,178.31,107.9Z"/><path class="cls-11" d="M101.75,83.55a.37.37,0,0,1,.21,0l-.73,2.5,5.43,2.31v.2A30,30,0,0,1,102.5,87C100.6,85.9,100.61,85.62,101.75,83.55Z"/><path class="cls-11" d="M98.75,82.09v.26a20.11,20.11,0,0,1-6.81-4.14v-.27l1.15.7Z"/><path class="cls-11" d="M138.75,37.19c-.09.56-.12,1.12-.25,1.67a10.38,10.38,0,0,1-.75,2c-.75-1.55-.26-3.61.81-4.19Z"/><path class="cls-11" d="M117,61.09c0,.11,0,.3-.08.32a48.86,48.86,0,0,1-5.66,2l3.5-1.73v-.16L113,61.7v-.34Z"/><path class="cls-8" d="M144.71,105.49c-1.52-1.46-3.06-2.9-4.56-4.39a3.91,3.91,0,0,1-.49-1.13l1.25,1.34.26.26h0c.93.94,1.84,1.89,2.77,2.82.32.32.67.62,1,.93Z"/><path class="cls-11" d="M177.24,179.29c-1.14-2.5-2.29-5-3.42-7.41a4.69,4.69,0,0,1-.16-.91c1.25,2.79,2.64,5.57,4,8.35Z"/><path class="cls-11" d="M132.39,34.38c0,.36.31.87.16,1.07A18.76,18.76,0,0,1,130.23,38c.11-1.13.24-2.22,1.42-2.8.16-.07.21-.37.33-.56Z"/><path class="cls-11" d="M51.35,150.52v7l.24.47-.19.46h-.29v-7.93Z"/><path class="cls-13" d="M125.21,60.52c-2.15.18-4.29.35-6.44.5-.11,0-.23-.26-.36-.41,1.94-.14,3.88-.27,5.81-.44a1.76,1.76,0,0,0,.55-.27Z"/><path class="cls-4" d="M141.84,57.26v-.38l1.65-1c-.39,2-.54,2.5-2.35,2.86C141.36,58.25,141.6,57.75,141.84,57.26Z"/><path class="cls-12" d="M86.75,142.78l.68-1,.08.46c-.62,1.5-1.25,3-1.9,4.48-.07.17-.42.22-.65.34l1.6-3.75.22-.49Z"/><path class="cls-11" d="M184.71,110.12l-2.21-.87v-.33a15,15,0,0,1,6,3.29l-.17.18Z"/><path class="cls-11" d="M152.12,50.8,153.75,48a7.58,7.58,0,0,1-.23.94c-.68,1.77-1.37,3.55-2.08,5.3-.09.23-.34.39-.52.57l.49-2.12h0l.24-.48h0l.24-.72h0l.25-.71Z"/><path class="cls-13" d="M78.12,112.31v-.37l6.38-1.25c-1,.32-2.06.68-3.11,1S79.21,112.1,78.12,112.31Z"/><path class="cls-13" d="M150,48.65l-.25.6,1.25-.08a2.69,2.69,0,0,1-.47.43c-.85.41-1.72.79-2.58,1.17h0l-.77-.23L147,50.3c.78-.61,1.92-.6,2.5-1.46C149.6,48.75,149.84,48.75,150,48.65Z"/><path class="cls-11" d="M129.88,35.33c.46.88-.47,1.18-.77,1.72-.16.3-.57.45-.87.65-.36-1-.14-1.84.62-2.15l-.1,1Z"/><path class="cls-11" d="M109.74,62.2l-5,2.4a9,9,0,0,1,4.71-2.6Z"/><path class="cls-4" d="M103.25,77.7c-.11,0-.26.11-.31.08l-2.82-2.68C101.91,75.06,102.56,76.41,103.25,77.7Z"/><path class="cls-11" d="M190.54,114l3.52,3.5-.2.21c-1.17-1.17-2.33-2.34-3.5-3.53Z"/><path class="cls-13" d="M183.75,194.51l2.15.43h.24l.66.68-3.05-.62Z"/><path class="cls-11" d="M165.89,107.69l-5.1.67Z"/><path class="cls-4" d="M93.56,74l3,2.06c-1,.33-1,.33-1.88-.42l-.29-.8h0l-.57-.51h0Z"/><path class="cls-4" d="M136.25,35.06l-.45,2.58h-.25a9.39,9.39,0,0,0,0-1.5c-.06-.29-.36-.53-.56-.78l.36-1.41C135.83,34.16,135.23,35.23,136.25,35.06Z"/><path class="cls-13" d="M107.17,79.83V79.6l4.27,1.15h-.52Z"/><path class="cls-13" d="M51.35,150.52H51l.65-3.75a8.65,8.65,0,0,1,0,1.44A17.26,17.26,0,0,1,51.35,150.52Z"/><path class="cls-13" d="M182.5,108.92v.33c-1.18-.31-2.35-.6-3.51-.94-.19,0-.31-.26-.46-.41Z"/><path class="cls-11" d="M122.15,54.52l.28-1.25c.31.89,1.49,1.47,1.07,2.5-.29-.73-.29-.73-.91-.56Z"/><path class="cls-13" d="M109.74,62.2l-.23-.2,3.5-.64v.34Z"/><path class="cls-11" d="M154.45,47.05c.16-.74.34-1.46.44-2.2,0-.1-.29-.26-.45-.39l.43-.55C155.1,45,155.64,46.25,154.45,47.05Z"/><path class="cls-12" d="M141.25,52.85l-.85.31-.2-.16,1-2.44a18.12,18.12,0,0,0,.15,2Z"/><path class="cls-13" d="M155.4,54.06h-2.12c.47-.74,2-1,2.5-.47C155.78,53.61,155.52,53.9,155.4,54.06Z"/><path class="cls-11" d="M150.24,59.92l2.4-2.13A3.45,3.45,0,0,1,150.24,59.92Z"/><path class="cls-11" d="M92.61,76.79l-2.09-.26V76.4l-.15.08-.17.13c-.4-.65-.1-.77.47-.57S92,76.54,92.61,76.79Z"/><path class="cls-11" d="M185.94,194l-.32-.63c.85-.79.18-1.52-.1-2.25l.22-.19A2.31,2.31,0,0,1,185.94,194Z"/><path class="cls-11" d="M96.18,104.9l-.12.66-.61.25h0l-.25.25h0l-.49.25h0l-.5.24h-.43l0-.19Z"/><path class="cls-11" d="M92.91,107.5l-1.42.21,2.21-1.25.16.19-.27.44h0l-.49.25h0l-.25.23Z"/><path class="cls-6" d="M111.35,89.13c.47-.7,1-.84,1.44,0l-1.25.27Z"/><path class="cls-11" d="M184.56,189l1.18,1.9-.22.19c-.3-.33-.58-.66-.87-1h0l-.24-.46h0v-.43Z"/><path class="cls-11" d="M183.75,187.75c-.83,0-1.25-.35-.85-1.25Z"/><path class="cls-11" d="M188.55,112.21l1.42,1.25-.21.18-1.39-1.25Z"/><path class="cls-13" d="M151.64,55.44l-1,1.08V55.27h.26Z"/><path class="cls-11" d="M196.7,155.41H197l-1,1.52-.13-.12Z"/><path class="cls-11" d="M193,160.94l-1.32.82h0l1.12-1Z"/><path class="cls-11" d="M103.31,71.15l.58.7-1.25-.57.16-.17Z"/><path class="cls-11" d="M101.25,70.24l1.45.67h0v.21l-.16.17Z"/><path class="cls-13" d="M153.75,56.17l.94-1.17Z"/><path class="cls-11" d="M101.18,68.54l.07,1.7C100.68,69.71,100.52,69.15,101.18,68.54Z"/><path class="cls-11" d="M123.45,56.69l.86.13-.36.47Z"/><path class="cls-11" d="M183.86,188.91l.14-.71.56.79-.18.21h-.21Z"/><path class="cls-13" d="M152.81,54.27l-.95.94Z"/><path class="cls-11" d="M91,77.24,92,78Z"/><path class="cls-13" d="M147,50.29l-1.25.71C146.15,50.71,146.25,49.91,147,50.29Z"/><path class="cls-11" d="M153.75,48l.73-1Z"/><path class="cls-6" d="M108.33,89l1,.24Z"/><path class="cls-7" d="M51.49,158l-.24-.51h.86l.08.25Z"/><path class="cls-6" d="M109.72,89.19v-.27h.72l-.4.63Z"/><path class="cls-11" d="M149.06,60.66l.73-.27-.73.67Z"/><path class="cls-6" d="M110.45,88.46l.71.26-.5.23Z"/><path class="cls-11" d="M193.75,159.72l-.35.73-.11-.1.32-.61h.07Z"/><path class="cls-11" d="M104.35,64.81l-.59.73Z"/><path class="cls-6" d="M193.75,159.72h-.14l-.09-.08.8-.56h0Z"/><path class="cls-11" d="M195.51,157.64l-.47.66H195l.46-.71Z"/><path class="cls-13" d="M151.88,47.5l-.72.46Z"/><path class="cls-11" d="M196,156.93l-.49.71-.1-.11.46-.72Z"/><path class="cls-6" d="M107.14,88.75l.72.24Z"/><path class="cls-4" d="M134.55,35.43l-.74.11.55-.5Z"/><path class="cls-11" d="M194.72,158.75l-.38.4h0l.37-.36Z"/><path class="cls-11" d="M90.52,76.53l.25.48-.57-.4.17-.13a.18.18,0,0,1,.17.07Z"/><path class="cls-11" d="M194.5,118h-.39l-.25-.31.2-.21Z"/><path class="cls-13" d="M150.47,48.43l-.48.23Z"/><path class="cls-11" d="M104.83,64.57l-.49.26Z"/><path class="cls-11" d="M195,158.3l-.31.41h0l.21-.48Z"/><path class="cls-13" d="M151.18,48l-.48.24Z"/><path class="cls-11" d="M123.05,56.17l.33.08-.13.16Z"/><path class="cls-11" d="M154.46,44.44l-.32.5Z"/><path class="cls-13" d="M145.09,51.7l-.35.49Z"/><path class="cls-11" d="M150.91,55.24h-.26l.31-.45Z"/><path class="cls-7" d="M110.45,88.46l.21.49h-.22v-.49Z"/><path class="cls-11" d="M190.15,113.58l.39.38-.18.18-.36-.39Z"/><path class="cls-13" d="M153.29,54l-.49.23Z"/><path class="cls-6" d="M112.56,81.25V81l.25.23Z"/><path class="cls-4" d="M133.84,35.51l-.08.47-.15-.42A.37.37,0,0,0,133.84,35.51Z"/><path class="cls-4" d="M86.77,142.76l-.21.49Z"/><path class="cls-13" d="M155.16,54.54l.24-.49Z"/><path class="cls-13" d="M152.35,46.9l-.25.35Z"/><path class="cls-13" d="M152.1,47.25l-.24.24Z"/><path class="cls-13" d="M150.7,48.19l-.24.23Z"/><path class="cls-11" d="M90.75,77l.25.25Z"/><path class="cls-13" d="M145.79,51l-.24.24Z"/><path class="cls-11" d="M193.44,160.45l-.23.28a.41.41,0,0,0-.12-.14l.24-.24Z"/><path class="cls-11" d="M193.21,160.73l-.2.21-.18-.15.26-.2A.41.41,0,0,1,193.21,160.73Z"/><path class="cls-13" d="M145.56,51.25l-.25.25Z"/><path class="cls-13" d="M145.33,51.46l-.25.25Z"/><path class="cls-13" d="M154.93,54.77l.24-.25Z"/><path class="cls-11" d="M190,113.4l.17.18-.17.17-.26-.2Z"/><path class="cls-13" d="M154.7,55l.24-.24Z"/><path class="cls-13" d="M151.86,55.21l-.22.24Z"/><path class="cls-13" d="M153.51,56.51l.25-.35Z"/><path class="cls-11" d="M150,60.16l.25-.26Z"/><path class="cls-11" d="M149.77,60.4l.25-.26Z"/><path class="cls-12" d="M101.31,68v.45l-.22-.15Z"/><path class="cls-4" d="M141.14,101.58l-.26-.27Z"/><path class="cls-3" d="M186.09,195h0Z"/><path class="cls-6" d="M112.11,81l-.27-.23Z"/><path class="cls-14" d="M153.05,174.41l.23.94c1.55-1.09,3.68,0,4.75-1.59l1.12.15a7.86,7.86,0,0,1,1.39,1.66c1.46,3.42,2.82,6.87,4.22,10.29q1.05,3.07,2.12,6.15c.06.18.27.3.42.45h0l.95.95h0l.33.35,1.36,3.05h.26l.75,1.44-7.42-.7,1.88-.93v-.21l-2-.15a49.17,49.17,0,0,0-10.71.24,71.07,71.07,0,0,1-9.68,0c-.23,0-.64-.16-.69-.33-.34-1.15-1.25-1-2.08-1l-7.6-.08a2.22,2.22,0,0,0-.81.09c-3.39,1.5-7,.83-10.5,1a3.06,3.06,0,0,1-1.5-.2c-2.38-1.25-4.92-1.07-7.44-1l-3.4.07c-1,0-1.94,0-2.5,1-.14.25-.68.36-1,.37A40.05,40.05,0,0,1,94,195.93a11.83,11.83,0,0,0-3.25-.24,59.13,59.13,0,0,0-6.9.61L86,197.4c-1.67.23-3,.4-4.39.55-.1,0-.22-.29-.33-.44a4.18,4.18,0,0,0,3-3.4,42.13,42.13,0,0,0,.52-5.5c0-2.88,1.57-5.31,2.22-8,.56-2.35,1.35-4.64,2.12-6.92a27.59,27.59,0,0,1,1.45-3.29c1.65-3.21,3.34-6.41,5-9.61l.29-.48c1.05-1.75,2.16-3.47,2-5.65l2.29-7.37a4,4,0,0,0,4.2.62l19.31-9.35c1-.49,2-1,3-1.56,3,3.46,6.06,6.81,9,10.24,1.6,1.88,3,3.9,4.56,5.85l.15.2.33.25h0l.25.48h0l.46.72h0l.95,1.65h0c.46.76.91,1.52,1.36,2.3l.09.07.6.63.24.2.16.16,3.07,2.65,1.88,1.62,1.46,1.25a.23.23,0,0,0,.15.14c1,.95,2,1.94,3,2.85a1.58,1.58,0,0,1,.47,2A36,36,0,0,0,153.05,174.41Z"/><path class="cls-15" d="M87.83,171.12c.42-1.17.86-2.35,1.25-3.52a4.41,4.41,0,0,0,.78-.89c1-2,1.84-4.12,2.85-6.14,1.58-3.17,3.84-6,4.29-9.71.17-1.51.61-3,1-4.64a19.81,19.81,0,0,1-3,.85,7,7,0,0,1-3-.12c-1.13-.4-2-.73-2.77.51a61.71,61.71,0,0,1,3.49-15.16l.65-2a3.62,3.62,0,0,1,.15-1c.67-1.85,1.38-3.67,2.1-5.52a4.08,4.08,0,0,0,1.13-.69c2.22-2.59,5.23-4,8.13-5.52.89-.48,2.11-.19,2.72-1.25.22.93.43,1.87.63,2.81v.66l-1.11-.74-.2.28,2.5,3.32-7.6,3v.19l5.2-1.25a4.32,4.32,0,0,1-1,.59,1.69,1.69,0,0,0-1.35,1.67c-.09,1.82-.14,3.63-.25,5.44a3.78,3.78,0,0,1-.36,1.44c-.79,1.64-1.63,3.24-2.5,4.85-.08.14-.29.2-.44.3l-.35-.08c-.35,1-.69,2.09-1,3.13-.72,2.82-1.47,5.65-2.2,8.49-.16.67-.26,1.36-.38,2l-1.64,4v.47h0c-.11.07-.29.12-.35.22L88,171.18ZM106.58,119l.35.1-.09-.32-.38-.17-.12-.24-.09.41Z"/><path class="cls-16" d="M191.47,210.94a17.08,17.08,0,0,1-13.75-1.77c-2-1.16-2.15-1.25-1.25-3.46a9.14,9.14,0,0,1,7.1-5.89,4.09,4.09,0,0,1,2.5.47,10.7,10.7,0,0,1,5.84,8,8.9,8.9,0,0,1-.4,2.71Z"/><path class="cls-12" d="M89.2,147.5c.74-1.25,1.64-.91,2.78-.51a7,7,0,0,0,3,.12,21,21,0,0,0,3-.85c-.35,1.66-.78,3.13-1,4.64-.45,3.75-2.71,6.54-4.29,9.71-1,2-1.87,4.1-2.85,6.14a4.41,4.41,0,0,1-.78.89,16.15,16.15,0,0,0,.23-2.3A41.19,41.19,0,0,0,89,159.9,34.68,34.68,0,0,1,89.2,147.5Z"/><path class="cls-15" d="M182.5,190.32c-3-.4-4.72,1.34-6.09,3.75-.8,1.4-1.77,2.7-2.5,4.23l3.75-3.23.15.23-1.45,1.84h-.21l-.25.48h0a9.49,9.49,0,0,0-1,.63c-.8.71-1.56,1.45-2.34,2.17l-.05-1.67a25.3,25.3,0,0,1,3.69-9.54,41,41,0,0,0-3.47,3c-.82.8-1.55,1.71-2.32,2.56-.23-3.19-.44-6.38-.66-9.58,1.77-.16,2.86-1,3-2.21,1.84,1.34,3.67,2.7,5.54,4,.92.63,1.93,1.13,2.83,1.8a11.81,11.81,0,0,1,1.48,1.52Z"/><path class="cls-13" d="M169.7,185.17l.66,9.58-.21,2.1h-.26c-.44-2.78-.87-5.55-1.25-8.33h-.32c0,.54.13,1.08.15,1.62,0,1.08.08,2.17.12,3.26h-.34l-.95-1h0c-.1-.41-.19-.83-.31-1.25-.42-1.41-.84-2.81-1.25-4.21l1.63,2.82.68,1.18h0c-.13-.8-.19-1.61-.39-2.4-.91-3.66-1.87-7.32-2.81-11a3.53,3.53,0,0,1,0-.46l4.66,3.24c-.06.12-.2.26-.19.39C169.42,182.26,169.56,183.75,169.7,185.17Z"/><path class="cls-4" d="M170.15,196.85l.21-2.1c.78-.85,1.5-1.76,2.33-2.56a40.85,40.85,0,0,1,3.46-3,25.29,25.29,0,0,0-3.65,9.54l-1.56-.46Z"/><path class="cls-12" d="M169.7,185.17c-.14-1.45-.28-2.91-.4-4.36,0-.12.12-.26.19-.39l3.22,2.5C172.56,184.21,171.47,185,169.7,185.17Z"/><path class="cls-8" d="M95.59,123.75c-.71,1.85-1.43,3.68-2.1,5.52a3.62,3.62,0,0,0-.15,1c-.4.61-.82,1.25-1.17,1.84s-.8,1.58-1.18,2.37l-.25-.27c1.47-3.64,2.94-7.29,4.44-10.91a13.5,13.5,0,0,1,1-1.7C96,122.39,95.78,123.1,95.59,123.75Z"/><path class="cls-11" d="M84.67,188.68a42,42,0,0,1-.52,5.49,4.17,4.17,0,0,1-2.9,3.4,11.2,11.2,0,0,1,.81-1.58c.53-.74,1.15-1.39,1.74-2.08.07-.37.2-.74.24-1.1.17-1.37.32-2.76.49-4.14Z"/><path class="cls-13" d="M95,160.59l-3.2,5.75-.31-.16c.1-.27.19-.53.31-.79,1.25-2.5,2.41-5,3.6-7.5a8.77,8.77,0,0,0,.29-1.12h0l.26-.47h.24c-.08.4-.13.83-.23,1.25-.23.84-.5,1.67-.73,2.5h0Z"/><path class="cls-11" d="M96.18,156.37H95.7l1.64-4,.42,2.32c.15,2.18-1,3.9-2,5.65l-.3.35-.29-.12v-.49h0l.59-.94.35-.47h0a5.32,5.32,0,0,0,1.06-4l-.57,1.45-.15-.23-.33.47Z"/><path class="cls-15" d="M90.74,134.29l.25.27-3.49,7.65-.09-.46Z"/><path class="cls-13" d="M87.83,171.12h.37c-1.11,2.91-1.25,6.17-3.12,9C86,177,86.93,174.05,87.83,171.12Z"/><path class="cls-11" d="M165.73,187c.42,1.4.84,2.81,1.25,4.22.12.4.21.81.31,1.25-.15-.15-.36-.28-.43-.45q-1.06-3.07-2.11-6.15h.45l.26.46h0l.24.71Z"/><path class="cls-15" d="M183.75,194.51v.5l-4.52-.62-.08-.27a7.67,7.67,0,0,1,1.85-.22A23.25,23.25,0,0,1,183.75,194.51Z"/><path class="cls-9" d="M172.69,200.4c.77-.72,1.53-1.46,2.33-2.17a7.18,7.18,0,0,1,1-.63c-.77,1-1.52,1.92-2.3,2.86C173.4,200.86,173,201.25,172.69,200.4Z"/><path class="cls-13" d="M84.46,188.68c-.16,1.37-.31,2.76-.48,4.13a6.39,6.39,0,0,1-.24,1.1,13.94,13.94,0,0,1,.65-6Z"/><path class="cls-16" d="M177.4,210l4.46,1.64.12.4-4.57-2Z"/><path class="cls-15" d="M79.49,195l-2.69-3.65.21-.17,2.66,3.66Z"/><path class="cls-13" d="M184.65,190.09c.29.34.58.66.87,1,.28.73.95,1.46.1,2.25Z"/><path class="cls-4" d="M182,212l-.12-.4,3.47.73v.32Z"/><path class="cls-13" d="M177.86,180.91l1.25,3-.36.15-1.25-3Z"/><path class="cls-15" d="M76.8,191.39l-.69-.94.18-.16.72.92Z"/><path class="cls-13" d="M179.41,185.24l-.44-.84.25-.13.33.85Z"/><path class="cls-15" d="M79.68,194.87l.08.43-.27-.26Z"/><path class="cls-15" d="M76.11,190.45l-.36-.56.15-.14.39.54Z"/><path class="cls-13" d="M179.84,185.8l.26.39-.34-.09Z"/><path class="cls-13" d="M165.7,187l-.24-.72Z"/><path class="cls-13" d="M184.17,189.15h.21v.43Z"/><path class="cls-4" d="M95.21,160.1v.49H95Z"/><path class="cls-4" d="M95.45,160.71l.3-.35-.29.48S95.45,160.75,95.45,160.71Z"/><path class="cls-15" d="M75.75,189.89c-.1-.13-.19-.26-.28-.4l.09-.11.34.37Z"/><path class="cls-13" d="M184.41,189.62l.24.47Z"/><path class="cls-13" d="M165.48,186.34l-.27-.46Z"/><path class="cls-15" d="M182.56,190.3l.45.25h0l-.48-.21Z"/><path class="cls-13" d="M179.55,185.13l.21.41-.15.07-.2-.37Z"/><path class="cls-9" d="M176,197.6l.25-.49Z"/><path class="cls-13" d="M90.78,167.37h0C90.64,167.56,90.7,167.47,90.78,167.37Z"/><path class="cls-13" d="M91.32,166.75l-.28.42-.1-.1.23-.46Z"/><path class="cls-13" d="M91.18,166.61l.23-.15a.4.4,0,0,1-.08.29Z"/><path class="cls-13" d="M90.78,167.37l.16-.3.1.1Z"/><path class="cls-15" d="M75.26,189.2l-.11-.21.19.15Z"/><path class="cls-13" d="M183.86,188.91l.33.25Z"/><path class="cls-15" d="M75.34,189.14l.22.24-.08.11a3.15,3.15,0,0,1-.22-.29Z"/><path class="cls-15" d="M183,190.55l.17.14-.14-.15Z"/><path class="cls-15" d="M178,194.86h.25l-.14.2Z"/><path class="cls-15" d="M178.11,195l-.2.26-.15-.22.24-.19Z"/><path class="cls-9" d="M176.25,197.15h0Z"/><path class="cls-16" d="M177.18,209.74h0Z"/><path class="cls-16" d="M177.41,210l-.24-.24h0Z"/><path class="cls-15" d="M116.31,114.21c.23.48.49,1,.68,1.44a4.45,4.45,0,0,0,3.75,3.08,66.41,66.41,0,0,1,7.85,2.13c2.29.77,3.31,2.68,3.75,4.93.1.46.25.91.37,1.36h.5c.25-.94.49-1.87.75-2.86.35.48.74,1.09,1.18,1.63a5.17,5.17,0,0,0,.8.67q3.1,3.3,6.25,6.58a5.38,5.38,0,0,0,1,.69h0l.25.25h0v.48a17.75,17.75,0,0,0,1.53,1.82c.24.23.71.21,1.07.31l-.13.4c.82.95,1.66,1.89,2.5,2.83h0l.25.25h0l.52.77c1,1.25,2.09,2.5,3,3.85a11,11,0,0,1,1.15,2.37c.35.91.59,1.87.87,2.81l.16,1.35-.37.09-.85-2.38a15.63,15.63,0,0,0-2.5.84,16.7,16.7,0,0,1-6.25,1.57,6,6,0,0,0-1.58.68,17.5,17.5,0,0,1-6-5.81,14.78,14.78,0,0,0-2-2.37c1.05-.31.61-1.1.35-1.58-1.13-2.12-2.38-4.17-3.52-6.25a5,5,0,0,1-.91-3.28c.09-.57-.76-1.41-1.36-1.94a6,6,0,0,0-1.83-.73l-.22-.23.62-.15.15-.35c-1.37-.87-2.76-1.71-4.1-2.62a8.78,8.78,0,0,1-1.11-1.25l3.75-.83h-2.85c-1.46,0-2.91-.14-4.37-.19-.09,0-.19.19-.29.3l-1,.09h0L117,124l-5.45-1.7-.24-.86c-.26-1.72-.51-3.44-.76-5.15L110.5,115c.8,1.67,2.06,1.25,3.31.7a1.74,1.74,0,0,1,.67-.2A1.66,1.66,0,0,0,116.31,114.21Z"/><path class="cls-6" d="M165.7,125a15.87,15.87,0,0,1-1.63,2.59c-1.63,1.77-3.45,3.38-5.08,5.16a36.81,36.81,0,0,0-2.42,3.27c-1.62-2.13-3.3-4.23-4.83-6.43a10.06,10.06,0,0,0-3.75-3.22,54.57,54.57,0,0,1-14.6-10.57,10.69,10.69,0,0,1-2.35-3.94,25.73,25.73,0,0,1-1.84-10.15c0-.55.1-1.09.15-1.62l.26.06.33,2c.07.48.15,1,.21,1.46l.45,3.75c.21,1.11.39,2.24.65,3.35a4.46,4.46,0,0,0,.74,1.75,22.42,22.42,0,0,0,2.15,2.1c.15.46.16,1.11.48,1.37,2.72,2.25,5.48,4.44,8.23,6.63a2.1,2.1,0,0,0,.67.25l.18-.25-2.11-1.76c1.25,0,2.22-.32,2.77.76l-.66-.1a12.32,12.32,0,0,0,.94,1.8c.23.32,1,.79,1,.71.71-.65,1.25,0,1.73.23,1.41.66,2.8,1.36,4.2,2,.57.26,1.25.46,1.78.69a14.64,14.64,0,0,0-3-2.22c-1.86-1-3.75-2-5.66-3,.81-.35,1.61-.72,2.42-1.06s1.25-.26,1.49.52h-.71a14,14,0,0,0,6.4,2.5c2.41.32,4.85.53,7.29.8Z"/><path class="cls-14" d="M159.66,141.39l.63,2.35c-.11,0-.35.08-.35.13,0,1.52.09,3,.16,4.54,0,.08.29.14.44.21a5.6,5.6,0,0,1-.11,1.35c-.12.45-.2.84-.32,1.25s-.33,1.09-.51,1.64c-.55-.69-1.12-1.35-1.66-2.05a76.2,76.2,0,0,0-5.18-6.7,16.07,16.07,0,0,1-3.51-4.35L148.3,138a.23.23,0,0,0-.07-.1l-.28-.33h0l-.72-1.17h0l-.77-1.32h0l-.73-1.15h0l-.25-.25h0l-.14-.46c.24-.07.51-.22.72-.15,2.82.8,5.65,1.57,8.43,2.5a9,9,0,0,1,2.21,1.62c.84,1.36,1.66,2.73,2.5,4.08A2,2,0,0,1,159.66,141.39Z"/><path class="cls-10" d="M148.6,121.25c-.29-.78-.85-.79-1.49-.51s-1.61.71-2.42,1.06l-.34-.18c-.55-1.07-1.5-.8-2.78-.76l2.18,1.75-.17.25a1.86,1.86,0,0,1-.68-.25c-2.75-2.19-5.51-4.37-8.23-6.62-.32-.27-.33-.92-.48-1.38l2.5,1.94,4.44,2.32.18-.38-4.43-2.13-1.73-2.1a9.1,9.1,0,0,0,1.8.88c1.69.37,3.4.6,5.1.92s2.64,0,3-1.17c.5.17,1,.37,1.51.52,1.25.35,2.42.68,3.62,1l-.12.39,2-.25h1.4l.92.78a6.86,6.86,0,0,1-3.06,3.32,16.48,16.48,0,0,0-1.69,1.18Z"/><path class="cls-6" d="M118.41,97.36l1,1.64h.15l-.24-1.36c.69.33,1.58.5,2,1a3.87,3.87,0,0,1,.73,2.42c0,.93-1,.66-1.69.78a2.09,2.09,0,0,0-2,1.6l2.5-.4a2.67,2.67,0,0,1-.65.81c-1.14,1.25-3.24.74-4.17,2.35,0,.06-.29,0-.43,0a3.56,3.56,0,0,0-.7.29c-.29,0-.64-.23-.88-.14-.88.32-1.75.74-2.62,1.12-2.64,1-5.14,2.49-8.25,2.74l3.52-3.13a4,4,0,0,0,3-1l2.63-4.74h0l.24-.24h.23c.23-.36.63-.71.67-1.1.14-1.25.91-1.51,2-1.72S117.41,97.67,118.41,97.36Z"/><path class="cls-8" d="M154.45,109.05c0,2.36-2,3-3.51,4a14.6,14.6,0,0,1-1.88.88c.92.55,1.59.9,2.2,1.32a6.21,6.21,0,0,1,.85.85c-4.15.39-7.18-1.71-9.5-4.75a73.52,73.52,0,0,1-4.6-7.8l.14-.14a33,33,0,0,0,10,5,19.84,19.84,0,0,0,3.34.44c.57.08,1.15.13,1.74.19l.78.09Z"/><path class="cls-8" d="M145.1,114.89c-.41,1.25-1.25,1.51-3,1.17s-3.41-.55-5.1-.92a9.1,9.1,0,0,1-1.8-.88l-.39-.42-.59-1.55c-.16-2.26-.33-4.53-.52-7.14l-1.74,5.35-1-2.6,1.09.46c.22-1.78.54-3.48.61-5.2a8.73,8.73,0,0,1,3-5.81c-.41,1.76-.83,3.53-1.24,5.29l.22.11.79-1.81a36.38,36.38,0,0,1-.28,4.3,1.68,1.68,0,0,0,.63,1.79l9.2,7.5A1.17,1.17,0,0,1,145.1,114.89Z"/><path class="cls-10" d="M114.88,106.5a5.28,5.28,0,0,1,.69-.29H116c.93-1.61,3-1.12,4.16-2.35a2.43,2.43,0,0,0,.65-.81l-2.5.4a2.13,2.13,0,0,1,2-1.6c.66-.11,1.65.15,1.69-.78a3.91,3.91,0,0,0-.73-2.42c-.4-.54-1.25-.7-2-1l-.66-3.75L121.42,96c.11.36.08.82.3,1.06q2,2.08,4,4a3.83,3.83,0,0,0,1.12.48l.71,2.13c-.39.12-.79.2-1.17.34a6.78,6.78,0,0,1-1.25.58c-1.25.21-2.6.28-3.88.5-.59.08-1.5,0-1,1.16l-.14.24a1.94,1.94,0,0,0-.65-.19,3.61,3.61,0,0,0-.8.2,5.38,5.38,0,0,0,.39.7,1.52,1.52,0,0,0,.31.31,23.31,23.31,0,0,0-7.31.49l-.4-.11.25-.22Z"/><path class="cls-12" d="M95.59,123.75c.19-.7.37-1.41.55-2.12h0l.24-.24,3.21-3.13.32-.27-.1-.14-.42.21c-.1-.11-.2-.23-.29-.35l3.28-3.1a11.45,11.45,0,0,1,2-1.84,12.25,12.25,0,0,1,2.72-.71l.45,4.19c-.62,1.06-1.84.77-2.73,1.25-2.9,1.55-5.91,2.94-8.12,5.52A4.18,4.18,0,0,1,95.59,123.75Zm4.71-5.94v-.06h0c.06,0,0,.13,0,.11Z"/><path class="cls-6" d="M135,83.84c0-.64.07-1.14.8-1.33,1.15-.3.81-1.63,1.54-2.27a10.84,10.84,0,0,0,1.25-1.53A2.94,2.94,0,0,1,142,77.39c.74.21,1.68-.38,2.5-.54a2.91,2.91,0,0,1,.92.15c-1.13,1.17-2.3,2.29-3.34,3.51-.79.94-1.41,2-2.11,3-.21.42-.43.82-.63,1.25-.35.73-.7,1.47-1.06,2.21l-1.14-.83Z"/><path class="cls-10" d="M62,122.64l.9-1a3.52,3.52,0,0,0,1.25-.1c2.24-1.15,4.43-2.39,6.68-3.53a2.93,2.93,0,0,1,1.38,0,2.17,2.17,0,0,1,.77.28,3.48,3.48,0,0,0,3.87-.08l-1.25,1.81-3,2.87c-.56-.15-1.1-.34-1.68-.44-2.5-.39-5-.75-7.5.26A4.63,4.63,0,0,1,62,122.64Z"/><path class="cls-8" d="M112.31,101.35q-1.31,2.37-2.64,4.74a4,4,0,0,1-3,1L108,105.6l-.1-.16-.63.22-.14-.12c1.57-2.71,3-5.49,4.69-8.13,1.11-1.75,2.5-3.31,3.91-5.12L117.05,95a6.63,6.63,0,0,1-1,.52,7.28,7.28,0,0,0-4.28,4.48C111.53,100.49,111.25,101.31,112.31,101.35Zm-4.08,3.56-.16.4.32-.16.13-.22Z"/><path class="cls-15" d="M135.62,97.35a8.73,8.73,0,0,0-3,5.81c-.07,1.72-.39,3.42-.61,5.2L131,107.9l-.36-.49-.45-3.75a10.7,10.7,0,0,0-.21-1.46V97.34c1.93,1.25,3.37,0,4.84-1l1.15-.79.16.19Z"/><path class="cls-12" d="M118.66,111.89v-.45l4.35.94.63,1.11.1-.66h0A17.17,17.17,0,0,0,125,115c1.11,1.37,2.31,2.66,3.47,4a12,12,0,0,1-8.26-4.51c-.29-.4-.62-.78-.94-1.17h0L119,113h0l-.48-1.17Z"/><path class="cls-12" d="M116.31,114.21a1.64,1.64,0,0,1-1.83,1.25,1.74,1.74,0,0,0-.67.2c-1.25.5-2.5,1-3.31-.7l-.29-2.5c.78-.47,1.45-.85,2.12-1.25s3.42.47,3.75,1.49C116.18,113.2,116.26,113.7,116.31,114.21Z"/><path class="cls-13" d="M133.63,118.75c-3.27.83-5.23-1.25-7.14-3.31a8.59,8.59,0,0,1-1.1-2.5c1.86.58,3.66,1.09,5.4,1.77.54.21.89.93,1.32,1.41a16,16,0,0,1,1.25,1.5,3.25,3.25,0,0,1,.23,1.07Z"/><path class="cls-11" d="M119.35,113.25l1,3c.15.45.31.89.51,1.45a3.4,3.4,0,0,1-3-1.9,9.5,9.5,0,0,1-1.06-2.5,4.06,4.06,0,0,0-4.27-3.3,2.24,2.24,0,0,1-.5-.16c.13-.24.16-.52.32-.6a4.46,4.46,0,0,1,4.06.31c.2.16.59.07.81.22a2.81,2.81,0,0,1,.81.8,11.29,11.29,0,0,1,.6,1.33h0l.48,1.17h0l.24.25Z"/><path class="cls-6" d="M133.15,92.5a14,14,0,0,1,.69-1.25c.59-.86,1.25-1.67,1.78-2.57.33-.56.61-1,1.26-.85,1.24,1.08,1.17,2.71,1.43,4.13a2.14,2.14,0,0,1-1.38,1.25A23.11,23.11,0,0,1,133.15,92.5Z"/><path class="cls-11" d="M129.61,111.69c-2.72-.5-5.42-1-8.1-1.5a.9.9,0,0,1,0-1.77,12.16,12.16,0,0,1,6.89,1.25A1.9,1.9,0,0,1,129.61,111.69Z"/><path class="cls-13" d="M143.21,133.9a5.38,5.38,0,0,1-1-.69q-3.13-3.27-6.25-6.58c.15-.23.24-.54.43-.63.65-.27,1.34-.47,2.13-.74.94,1.6,1.94,3.3,2.91,5,.33.59.58,1.25.86,1.84l.48.36h0l.24.48h0l.24.47h0Z"/><path class="cls-10" d="M112.31,101.35c-1.1,0-.78-.86-.57-1.34A7.23,7.23,0,0,1,116,95.53a7.7,7.7,0,0,0,1-.53l1.36,2.36a29.82,29.82,0,0,1-3,.93c-1,.21-1.81.46-2,1.71,0,.39-.44.74-.67,1.1h-.28l-.24.24Z"/><path class="cls-6" d="M75.79,120.31c1.39-.76,2.73-1.63,4.17-2.26,4-1.75,8.13-3.39,12.19-5.07.29-.12.59-.2.89-.3l.19.25C88.12,115.11,83,117.29,78,119.51a6.58,6.58,0,0,0-1.66,1.25c-1.65,1.58-3.29,3.19-4.92,4.79v-.36Z"/><path class="cls-12" d="M107.83,112.15c1.35,0,1.77.25,2,1.55.15.87.27,1.75.41,2.62a3.28,3.28,0,0,0-.17,1.12c.25,1.36.58,2.71.9,4.06-.15.11-.4.34-.44.31-.38-.3-.71-.65-1.08-1l-.21-.29h0a6.47,6.47,0,0,0-.14-1.25C108.75,116.94,108.26,114.54,107.83,112.15Z"/><path class="cls-8" d="M120.28,106.25c-.49-1.1.42-1.08,1-1.16,1.25-.21,2.6-.29,3.88-.5a6.78,6.78,0,0,0,1.25-.58c.38-.14.78-.22,1.17-.33.31.95.64,1.88.91,2.83,0,.1-.19.28-.29.42h0a4.7,4.7,0,0,0-1.25-.51C124.75,106.36,122.5,106.34,120.28,106.25Z"/><path class="cls-8" d="M119.39,107.5a1.82,1.82,0,0,1-.31-.31,5.38,5.38,0,0,1-.39-.7,3.13,3.13,0,0,1,.8-.2,1.73,1.73,0,0,1,.65.19l8.11.46h0l1.25,2.15C126,107.71,122.64,108.16,119.39,107.5Z"/><path class="cls-10" d="M138.26,87c.37-.73.72-1.47,1.06-2.2.21-.42.43-.82.63-1.25l1.63-1.25a10.1,10.1,0,0,0-.77,7Z"/><path class="cls-13" d="M146.64,136.55q-2.88-4.7-5.77-9.35a5.28,5.28,0,0,0-.7-.8h0l-.6-1.71a4.24,4.24,0,0,1,2.25,2.5c1,2,2.14,3.87,3.23,5.8,0,.11.26.13.39.2s.1.32.16.48h0l.25.25h0l.74,1.15h0l.35,1.25Z"/><path class="cls-11" d="M75.79,120.31l-4.46,4.9-1.15,1.44h0l-.24.24h0l-.24.22h0l-.22.24h0l-.24.46H69v.27h0l-1.18,1.17h0l-.26.25h0l-.25.26h0L67,130h0l-.26.25h0l-.92.73-.23-.15q1.66-2,3.32-4.07l.4-.44.46-.5L72.43,123l3.09-3Z"/><path class="cls-8" d="M126.89,101.56a3.64,3.64,0,0,1-1.11-.47q-2-2-4-4c-.23-.24-.2-.7-.3-1.07,1.43,1,2.82,2.06,4.15,3.19A9.15,9.15,0,0,1,126.89,101.56Z"/><path class="cls-12" d="M112.5,90.33a6.52,6.52,0,0,1,1.25.53c.11.08,0,.5,0,.77l-.25.61h0l-.24.47h0l-1.11,1.49c-.56.75-1.11,1.5-1.67,2.24.55-1.55,1.1-3.1,1.63-4.67.16-.47.27-1,.4-1.43Z"/><path class="cls-15" d="M111.39,109.09c0,2-1.56,2.67-4.35,1.7A7.78,7.78,0,0,1,111.39,109.09Z"/><path class="cls-13" d="M134.8,118.65c1.25.52.72,2,1.47,2.76l-.18.2L132.65,120Z"/><path class="cls-10" d="M93,112.67a57.42,57.42,0,0,0,5.48-2.11,25.33,25.33,0,0,0,3.18-2l.18.18a11.46,11.46,0,0,1-2.34,1.83c-2.05.9-4.2,1.62-6.25,2.4Z"/><path class="cls-11" d="M135,83.84l2.11,2.3-.23.25a9.44,9.44,0,0,1-1.14-1.14,3.15,3.15,0,0,0-3.24-1.5v-.86l.46-.28,2.15-.92c-.11.24-.16.58-.33.69-.57.29-1.17.5-1.74.73Z"/><path class="cls-10" d="M110.47,96.42c.57-.73,1.12-1.48,1.68-2.23l1.11-1.49a24.39,24.39,0,0,1-4.51,7Z"/><path class="cls-13" d="M123.05,112.38l-4.3-.94-.23-.85c.14,0,.22-.13.28-.11,1.25.35,2.5.67,3.75,1.08C122.76,111.65,122.88,112.09,123.05,112.38Z"/><path class="cls-8" d="M107.83,112.15c.43,2.39.86,4.79,1.25,7.17.07.43.1.84.13,1.25l-.73-1.43-1.09-7Z"/><path class="cls-11" d="M111,121.5c-.31-1.35-.64-2.7-.9-4.06a3.55,3.55,0,0,1,.18-1.12h.34c.25,1.72.5,3.43.76,5.16Z"/><path class="cls-12" d="M146.05,136.74c-.36-.1-.84-.09-1.08-.32a19,19,0,0,1-1.52-1.82l.19-.42.18-.2A5.24,5.24,0,0,1,146.05,136.74Z"/><path class="cls-11" d="M107.43,112.14l1.08,7h-.31c-.2-.94-.41-1.88-.62-2.81l-.45-4.19Z"/><path class="cls-11" d="M129.86,97.36v4.86c-.11-.67-.21-1.36-.32-2l-.16-1.83-.58-1.56Z"/><path class="cls-12" d="M118,90.1,119.3,90c.79.35,1.56.71,2.35,1s1.25.46,1.85.68l-.45.11Z"/><path class="cls-13" d="M123.05,91.81l.45-.11,5.64,1.53-.13.42Z"/><path class="cls-12" d="M134.8,118.65,132.65,120l-2.65-.81v-.32c1.25.23,2.5,1,3.65-.18h0Z"/><path class="cls-15" d="M127.25,98.37,125.92,95c2,.61.92,2.3,1.62,3.26Z"/><path class="cls-11" d="M159.66,141.39c-.11,0-.27,0-.32-.15-.85-1.35-1.68-2.72-2.5-4.08h.35Z"/><path class="cls-11" d="M153.52,116.59h-1.4a.2.2,0,0,1-.11-.14l1.72-.25h1.66l1.59.28v.16Z"/><path class="cls-9" d="M148.4,140l-2.5-2.83a13.69,13.69,0,0,1,1.16.84,8.66,8.66,0,0,1,.87,1.05Z"/><path class="cls-11" d="M114.88,106.5l-2.95,1.25-.56-.25c.88-.39,1.74-.8,2.63-1.13C114.24,106.25,114.59,106.45,114.88,106.5Z"/><path class="cls-11" d="M148.4,140l-.46-.94.36-1,.95,1.74-.44.49h-.2l-.25-.25Z"/><path class="cls-6" d="M152,116.41a.18.18,0,0,0,.11.14l-2,.25.11-.39Z"/><path class="cls-13" d="M139.4,124.13l-1.16-1.57.4-.25.91,1.67Z"/><path class="cls-11" d="M129.29,99.71c-.82,0-.6-.59-.55-1.06l.65.11Z"/><path class="cls-8" d="M102.08,108l1.15-1.41.23.19-1.16,1.41Z"/><path class="cls-8" d="M70.17,126.65l1.15-1.44v.36Z"/><path class="cls-8" d="M67.84,129.22,69,128.05Z"/><path class="cls-8" d="M144.89,105.29l1,.8-.17.22-1-.82Z"/><path class="cls-15" d="M129.29,99.71l.1-.95v-.4l.16,1.83-.26-.07Z"/><path class="cls-8" d="M103.4,106.44l.54-.73.17.11-.47.77Z"/><path class="cls-13" d="M147.12,137.24l-.48-.69.22-.21h.41V137Z"/><path class="cls-13" d="M148,138.12l-.71-.62.15-.14.48.23h0A3.4,3.4,0,0,0,148,138.12Z"/><path class="cls-8" d="M93.59,107l.27-.44h.44Z"/><path class="cls-13" d="M140.17,126.4v.79l-.53-1,.16-.15.37.32Z"/><path class="cls-12" d="M143.21,133.9v-.49l.59.57-.19.2h-.2l-.25-.25Z"/><path class="cls-8" d="M104.24,105.33l.12.13v.09a.49.49,0,0,1-.17,0Z"/><path class="cls-8" d="M102.3,108.19l-.42.5-.18-.18.38-.51Z"/><path class="cls-10" d="M154,109l-.78-.09Z"/><path class="cls-12" d="M123.75,112.83l-.2-.48h.15v.51Z"/><path class="cls-11" d="M111.67,107.91l.4.11h-.57Z"/><path class="cls-8" d="M93.11,107.22l.49-.24Z"/><path class="cls-8" d="M146.25,106.4l-.1.24a1.56,1.56,0,0,1-.2-.16v-.17Z"/><path class="cls-8" d="M94.27,106.51l.5-.24Z"/><path class="cls-8" d="M94.75,106.25l.49-.25Z"/><path class="cls-13" d="M139.38,125.78l-.23-.45.12-.14.25.46Z"/><path class="cls-13" d="M139.64,126.25l-.26-.46.15-.13.27.44Z"/><path class="cls-8" d="M95.45,105.81l.61-.25Z"/><path class="cls-13" d="M138.87,124.7v-.2c0-.06,0,0,.08-.09a.67.67,0,0,1,0,.2Z"/><path class="cls-8" d="M69.25,127.81l.24-.46Z"/><path class="cls-13" d="M140.49,127.26l.24.48-.21.16-.22-.46Z"/><path class="cls-13" d="M140.73,127.74l.16.45h-.14l-.23-.35Z"/><path class="cls-10" d="M108.65,99.85l.1.15c-.06,0-.12.17-.19.17s-.15-.08-.22-.13Z"/><path class="cls-10" d="M113.26,92.7l.24-.47Z"/><path class="cls-10" d="M113.49,92.24l.25-.61Z"/><path class="cls-12" d="M142.76,132.5l-.47-.36Z"/><path class="cls-12" d="M143,133l-.24-.47Z"/><path class="cls-12" d="M143.24,133.41l-.24-.47Z"/><path class="cls-11" d="M145.6,133.64a1.87,1.87,0,0,0-.16-.49h0Z"/><path class="cls-11" d="M148,138.12a4.51,4.51,0,0,0-.09-.53l.28.33Z"/><path class="cls-13" d="M147.33,137.5l-.21-.26.18-.15.17.27Z"/><path class="cls-7" d="M66.89,130.16l.26-.25Z"/><path class="cls-7" d="M67.13,130l.25-.26Z"/><path class="cls-7" d="M67.36,129.7l.25-.26Z"/><path class="cls-7" d="M67.59,129.46l.26-.25Z"/><path class="cls-8" d="M69,128.05v-.26h.26Z"/><path class="cls-13" d="M140.3,127.5v-.35l.22.18Z"/><path class="cls-8" d="M69.49,127.35l.22-.24Z"/><path class="cls-8" d="M69.71,127.11l.24-.22Z"/><path class="cls-8" d="M70,126.89l.24-.24Z"/><path class="cls-13" d="M139.15,125.33l-.07-.28.2.14Z"/><path class="cls-13" d="M139.55,124l.09.24-.24-.1Z"/><path class="cls-13" d="M136.86,122.3l-.07.07s-.07-.06-.07-.08,0,0,.08-.08Z"/><path class="cls-13" d="M138.07,121.94l.12.2L138,122Z"/><path class="cls-13" d="M138,122l-.18-.29h0l.23.23Z"/><path class="cls-13" d="M136.48,121.67l.08.25-.25-.1Z"/><path class="cls-13" d="M137.83,121.72l-.18-.07.19.06Z"/><path class="cls-13" d="M136.25,121.41l.2.26-.16.15-.23-.21Z"/><path class="cls-8" d="M96.37,121.48l-.23.23Z"/><path class="cls-10" d="M77,118l.32-.26Z"/><path class="cls-8" d="M92.89,107.5l.25-.24Z"/><path class="cls-8" d="M95.23,106.05l.24-.25Z"/><path class="cls-8" d="M107.26,105.66H107l.13-.15Z"/><path class="cls-8" d="M138,103.51l-.08-.3.22.16Z"/><path class="cls-15" d="M135.86,95.59h.28l-.13.16Z"/><path class="cls-6" d="M193.09,160.59l-.27.2-1.12,1c-.54.24-1.08.45-1.6.7l-4.25,2-2.3.2a15.54,15.54,0,0,0,4.63-5.58c1.62-3,2.93-6.07,4.43-9.09a11.3,11.3,0,0,0,.15-9.8,6.54,6.54,0,0,1-.36-2.4,14.15,14.15,0,0,0-2.85-8.45,9.3,9.3,0,0,0-4.81-3.15c-1.09-.38-1.7-.86-1.49-2.06l7,.08,1.25.12A5.65,5.65,0,0,1,196.1,126l.56,4.21.45-.07-.75-4.2.43-.45.3.91c0,.09-.2.2-.18.28,1.36,4,.45,8.17,1.07,12.23a27.15,27.15,0,0,1-.19,3,29.58,29.58,0,0,1-3.15,12.82c-.79,1.77-1.61,3.52-2.5,5.41l1.41-.49.09.09-.33.61Z"/><path class="cls-7" d="M160.31,124c-.11-.24-.24-.46-.22-.43a52.71,52.71,0,0,0,3.62-4.55,11.74,11.74,0,0,1,4.24-4.19,18.64,18.64,0,0,0,2-1.44c1.39-1,2.75-2.1,4.17-3.1a1.47,1.47,0,0,1,1.07-.11,16.07,16.07,0,0,1,2.13.6,2.09,2.09,0,0,1,1.57,1.71,23.45,23.45,0,0,0,1,3c.76,2.21,1.55,4.42,2.25,6.65a5.23,5.23,0,0,1,0,1.58l-4.44.22h-2.12c.24-.32.42-.85.74-.93.91-.28.6-.75.27-1.25a4.16,4.16,0,0,0-5.55-1.25,6,6,0,0,0-3.13,4.37l1.25.1a2,2,0,0,1-2.5-.41Z"/><path class="cls-4" d="M148.81,140.25l.44-.49a16.07,16.07,0,0,0,3.51,4.35,76.2,76.2,0,0,1,5.18,6.7c.53.7,1.11,1.36,1.66,2.05-.38,1.81-.69,3.65-1.15,5.44-.83,3.19-1.72,6.36-2.6,9.54h-.4L153.94,165l-.19-.46v-.24c-.35-1.14-.71-2.29-1.06-3.44-.42-1.35-.25-1.76,1-2.27a12.17,12.17,0,0,1,2.5-.81c.94-.16,1.19-.62,1.05-1.43-.33-1.91-.69-3.75-1-5.73-.19-1.14-1.09-1.52-2-2.1V150c-.29-.94-.53-1.9-.88-2.81a10.32,10.32,0,0,0-1.15-2.36c-.95-1.33-2-2.58-3-3.86Z"/><path class="cls-11" d="M160.31,124l6.25.53-.9.5-4.12-.48c-2.44-.26-4.88-.47-7.29-.8a14,14,0,0,1-6.4-2.5h.71l1.1.63a17.85,17.85,0,0,0,6.83,1.8l.73.11Z"/><path class="cls-11" d="M155.45,167.84h.4c-.66,1.85-1.25,3.75-2,5.52a4.3,4.3,0,0,1-.8,1c.56-1.39,1.11-2.77,1.71-4.13a1.58,1.58,0,0,0-.47-2c-1-.91-2-1.9-3-2.85l.21-.18,2.19,1.77.64.9.22-.53Z"/><path class="cls-4" d="M177.65,123.87l4.44-.22,6.73.11h1.25l.23.08v.35l-7-.09-5.6.09Z"/><path class="cls-11" d="M177.65,123.87v.34l-4.46.3-.22-.22,2.5-.43Z"/><path class="cls-11" d="M160.54,148.63c-.15-.08-.44-.14-.44-.22-.08-1.51-.13-3-.16-4.53l.35-.14C160.38,145.36,160.45,147,160.54,148.63Z"/><path class="cls-11" d="M176.08,167.15l3.75-1.32.13.37-3.71,1.3Z"/><path class="cls-7" d="M173,124.29l.21.22a2,2,0,0,1-2.22-.1v-.32Z"/><path class="cls-7" d="M170.49,124.91h-1.08v-.33l1.11-.13Z"/><path class="cls-10" d="M189.76,113.58l.24.17.34.36c1.16,1.25,2.32,2.37,3.5,3.54l.25.31c1.32,2.59,2.66,5.16,4,7.74a3.1,3.1,0,0,1,.19.66h-.43a2.3,2.3,0,0,0-1.95-1.56l-1.1-1.25-.37.75-.88-.19c-1.25-1.62-2.5-3.31-3.83-4.82-1-1.14-2.35-2-3.47-3.06a8.12,8.12,0,0,1-1.16-1.74c-.19-.34-.22-.76-.4-1.1a3,3,0,0,1,0-3.18l3.66,2.27Z"/><path class="cls-11" d="M195.9,124.76a2.33,2.33,0,0,1,1.95,1.56h.42l.24.37-.25.35-1.15-.7-.3-.92-.42.45h-.27a5.66,5.66,0,0,0-4.58-1.67l-1.25-.11v-.35l3.29.16.87.19c.34.24.65.5,1,.7C195.52,125,195.74,124.81,195.9,124.76Z"/><path class="cls-7" d="M190,123.75h-1.25C189.24,123.24,189.65,123.09,190,123.75Z"/><path class="cls-7" d="M157.26,123.75l-.73-.11Z"/><path class="cls-6" d="M121.9,82.65a3.31,3.31,0,0,1-1.33-3.75c1.1-2.4,2.28-4.76,3.49-7.29l1.13,1.79c0,.14.1.38.19.39,1.91.3,2.4,1.6,2.5,3.31,0,.19.51.38.78.56l-1.18,5.77Z"/><path class="cls-6" d="M141.84,57.26c-.24.49-.48,1-.73,1.48a4.84,4.84,0,0,0-.24,1.56c-.28.74-.63,1.45-.86,2.21a21.59,21.59,0,0,1-1.25,3.6V64.34l1-3.08-.25-.17-1.25,1a3.22,3.22,0,0,0-1,0c-4.79,1.71-9.58,3.45-14.38,5.15a1.18,1.18,0,0,1-.75-.09,2.81,2.81,0,0,0,.55-.15c4.4-2,8.84-4,13.19-6.16a59.52,59.52,0,0,0,5.21-3.24Q141.45,57.4,141.84,57.26Z"/><path class="cls-11" d="M121.9,82.65l5.51.84c.4-1.93.79-3.85,1.19-5.76l.8-1.67,2.2-3.89c0-.08.06-.18.09-.27h-.29l-2,.51a4.77,4.77,0,0,1-4.28-1h.35l.34-.34a3.06,3.06,0,0,1,.94-.55,15.22,15.22,0,0,1,1.91,0c-.14.69.25.85.79.7,1.16-.31,2.31-.7,3.47-1-.81,1.65-1.63,3.29-2.41,5a11.29,11.29,0,0,0-.46,1.5l-.23.47h-.33c-1.42,2-1.25,4.33-1.12,6.65,0,.07.19.12.29.18v.32L121.89,83Zm4.58-11.25h-.39l.21.21a4.6,4.6,0,0,0,3.84,0Z"/><path class="cls-6" d="M130.1,76.54a11.29,11.29,0,0,1,.46-1.5c.78-1.65,1.6-3.29,2.42-5h0l3.75-.79a3.05,3.05,0,0,1-1.52,3.52,32.36,32.36,0,0,0-2.7,1.79c-.71.51-1.36,1.1-2,1.64Z"/><path class="cls-7" d="M144.16,63.92h2.66l-1,.92h0l-.48.48h0l-.5.24h0l-.66.73a1.64,1.64,0,0,0-1.64,1.56l-2.09,3.23a.74.74,0,0,0,0,.21l-1.66,2.46-.63-.37a7.93,7.93,0,0,0,.69-1.44,7.25,7.25,0,0,0,.34-2c0-.31-.4-.62-.61-.93L142,65.41C142.9,65.94,143.89,65.28,144.16,63.92Z"/><path class="cls-8" d="M116.45,72l4.31-1.14.23.28c-.16.78-.31,1.57-.48,2.34h0l-.22.22h0l-.24.26h0l-.24.47h0l-.47.7h0l-.7.94h0l-.74.46c-1.15.1-1.05-.76-1.15-1.47s-.2-1.72-.29-2.58Z"/><path class="cls-6" d="M138.56,69c.21.31.61.63.61.94a7.23,7.23,0,0,1-.33,2,9.52,9.52,0,0,1-.69,1.44l.62.37c-1.32,1.09-1.13,2.62-1.25,4.08,0,.21-.27.41-.42.62-1-.48-.54-1.25-.33-1.92a2.17,2.17,0,0,0-.56-2.5l-1.25.15a4.85,4.85,0,0,0,2.14-4.91Z"/><path class="cls-10" d="M125.17,71.39a4.83,4.83,0,0,0,4.28,1,2.5,2.5,0,0,0-.09,3.53l.09.09-.8,1.67c-.28-.19-.79-.38-.79-.57,0-1.71-.52-3-2.5-3.31-.08,0-.12-.25-.19-.39Z"/><path class="cls-6" d="M120.06,78.18c-.23.52-.51,1-.72,1.57-.3.81-.56,1.64-.89,2.61l-1-.67v-.24l.16-1.16a7.34,7.34,0,0,1,1-4.22h0l.7-.93h0l.48-.7h0L120,74h0l.24-.25h0l.23-.22h0l.19,1.62c-.53.61-1.1,1.25-1.58,1.85a3.92,3.92,0,0,0-.35,1.1Z"/><path class="cls-11" d="M137.16,69.29A4.87,4.87,0,0,1,135,74.2c-1.48,1.25-1.82,1.74-.92,3.27l-.9-.46.1-2c-.64.31-1.1.57-1.59.79s-.89.3-1.34.45c.69-.54,1.34-1.13,2.05-1.64a32.36,32.36,0,0,1,2.7-1.79,3,3,0,0,0,1.51-3.52Z"/><path class="cls-6" d="M110.69,67.24c.26-.33.5-.91.8-.95,1.89-.24,3.75-.39,5.7-.49.24,0,.5.45.75.7a13.6,13.6,0,0,1-2.5.68C113.86,67.29,112.27,67.22,110.69,67.24Z"/><path class="cls-6" d="M121.25,71.25l2.5-.74.24.34-2.78,5Z"/><path class="cls-12" d="M116.45,72v.47a.44.44,0,0,1-.2,0,5,5,0,0,1-.38.89,1.33,1.33,0,0,1-.67.61c-1.33.3-2.68.52-3.89-.88Z"/><path class="cls-10" d="M116.25,72.5a.48.48,0,0,0,.17,0c.09.86.19,1.73.29,2.58s0,1.57,1.15,1.47l-.65,3.75c-.1,0-.28-.1-.28-.16C116.74,77.6,116.53,75.08,116.25,72.5Z"/><path class="cls-10" d="M120.06,78.18l-1.25-.11a3.92,3.92,0,0,1,.35-1.1c.48-.65,1-1.25,1.58-1.85l.34.72Z"/><path class="cls-15" d="M144.85,60.88a2.4,2.4,0,0,1,2-2.34l-.81,2.5Z"/><path class="cls-12" d="M138.3,62.05l1.25-1,.25.17-1,3.08C138.63,63.58,138.46,62.81,138.3,62.05Z"/><path class="cls-15" d="M133,70.08h0c-1.16.35-2.31.73-3.47,1-.54.15-.93,0-.79-.7Z"/><path class="cls-6" d="M144.16,63.92c-.27,1.36-1.25,2-2.17,1.47l1.25-1.63Z"/><path class="cls-13" d="M121,75.84l-.34-.72-.19-1.62c.17-.77.32-1.56.48-2.34l.26.09V75.8h-.09Z"/><path class="cls-11" d="M117.26,80.29l.65-3.75.74-.46a7.3,7.3,0,0,0-1,4.21Z"/><path class="cls-11" d="M118.84,83.4l1.85,1.15-.13.28-4.12-2.16h1.06Z"/><path class="cls-6" d="M118.84,83.4l-1.34-.8,1.4.25Z"/><path class="cls-10" d="M125.86,71l-.33.34-.47-.49.1-.18Z"/><path class="cls-11" d="M121.25,67.62l-.79-.22.55-.24h.24v.46Z"/><path class="cls-6" d="M117.5,82.61Z"/><path class="cls-7" d="M121.25,67.21H121l.69-.25a.51.51,0,0,1,.07.17v.1Z"/><path class="cls-11" d="M121.25,67.64l.19.25-.19-.27Z"/><path class="cls-12" d="M102.75,71.11V70.9l.6.25Z"/><path class="cls-11" d="M117.5,81.45v.24l-.28-.14Z"/><path class="cls-9" d="M126,48.16l.4.55v-.52c.29-1,.56-2.07.84-3.09.86,0,.55.46.45.89a3.52,3.52,0,0,0,1.25,3.83,3.2,3.2,0,0,1,.66-4,3.63,3.63,0,0,1,3.15,0,2.25,2.25,0,0,1,1.11,3,.54.54,0,0,1-.05.11c1.25-1.15,1.15-1.64-.14-3.59,1.25-.85,1.6.4,2.37,1l-.49-1.54.55-.19c.32.81.66,1.53.89,2.29a38.77,38.77,0,0,1,1.81,6.27,20.54,20.54,0,0,1-.66,5c0,.15-.28.25-.42.38L131,60l-4.68.21c-.67-1.61-1.33-3.22-2-4.84a3.23,3.23,0,0,0,.33-2.91l1-1.13.27.11.24.89v.34c-1.25.67-1.25.83-.18,1.84l.27-.5c.75.68,1.46.79,2.11-.14.07-.1.36,0,.54-.08a3.39,3.39,0,0,0,1.16-.53,1.05,1.05,0,0,0-.23-.9c-1.43-.55-2.9-1-4.35-1.48C124.9,49.59,125,48.75,126,48.16Zm10.73,2.44c-1.68-.36-2.62,1.37-4.2,1.35-.4,1.37,0,1.76,1.62,1.48h.2l2.74.88c.35-.66,1-1.25.06-1.65a20.41,20.41,0,0,0-2.34-.71Zm-5.5,8.34V54.66h-.34C131.25,56,129.7,57.5,131.18,58.94Z"/><path class="cls-8" d="M125.68,51.25c-.34.37-.67.76-1,1.14l-.7-.46c.11-.67.15-1.37.32-2,.48-1.63,1-3.23,1.53-4.83l.26.14L126,48.15c-.9.58-1,1.43-.49,2.65Z"/><path class="cls-11" d="M141.05,46.25c-.83-.28-1.36-.31-1.65-.61s.16-.78.35-1.15c.35-.66.77-1.25,1.25-2.08C141.88,43.81,140.39,44.81,141.05,46.25Z"/><path class="cls-11" d="M131,60l6.57-1.39V59L131,60.41Z"/><path class="cls-11" d="M141.09,48.24l-3.36-1.46a2.08,2.08,0,0,1,3.42,1.38Z"/><path class="cls-13" d="M125.41,38.14l.43-.34.08.9.52-.34c-.15,1.34-.3,2.66-.45,4C125.11,41.06,125.45,39.57,125.41,38.14Z"/><path class="cls-11" d="M131.91,42.61V38.75C133.12,40,132.19,41.14,131.91,42.61Z"/><path class="cls-13" d="M131,60v.41l-4.7.15v-.35Z"/><path class="cls-15" d="M124,51.94l.7.46a3.23,3.23,0,0,1-.33,2.91Z"/><path class="cls-8" d="M127.25,45.1q-.41,1.55-.84,3.09A2.5,2.5,0,0,1,127.25,45.1Z"/><path class="cls-13" d="M127.09,38.12l.43-.45v2.79h-.43Z"/><path class="cls-11" d="M139.71,48.9l.94.37c-1.05,1.1-1.67,1.08-2.24,0a2.32,2.32,0,0,0,1.25-.4Z"/><path class="cls-11" d="M131.08,39.46l-.35,2.65a1.67,1.67,0,0,1,0-2.37A1.72,1.72,0,0,1,131.08,39.46Z"/><path class="cls-13" d="M128.47,39.06V41.9a2.88,2.88,0,0,1-.23-2.81Z"/><path class="cls-11" d="M122,46.54l-.78,2.21-.34-.11.74-2.19Z"/><path class="cls-11" d="M138.52,42.34l.78-1.48.44.34-1.25,1.15Z"/><path class="cls-11" d="M139.71,40.51l.28-1.86h.18L140,40.52Z"/><path class="cls-11" d="M138.81,42.87l-.42,1c-.5-.73-.35-1,.35-1.1Z"/><path class="cls-13" d="M122.11,48.24l.32-.73.2.06-.24.77Z"/><path class="cls-11" d="M129.88,39.1v-.57H130v.56Z"/><path class="cls-11" d="M122.15,45.66l.25-.42.16.07-.19.48Z"/><path class="cls-11" d="M139.54,42.41l-.73.46-.07-.1.67-.48Z"/><path class="cls-11" d="M128.75,38.18v-.52h.1v.52Z"/><path class="cls-11" d="M139.7,48.9l-.31-.09v-.09l.26.18Z"/><path class="cls-2" d="M142.69,44.51l-.18-.43.39.18Z"/><path class="cls-7" d="M139.22,58.44l.13.25H139Z"/><path class="cls-13" d="M122.94,46.88l-.18.37h-.15l.18-.44Z"/><path class="cls-13" d="M122.79,46.75l.25-.46.12.11-.22.48Z"/><path class="cls-13" d="M123.26,46l.29-.42h0c0,.18-.14.34-.2.51Z"/><path class="cls-13" d="M123.55,45.62v-.08h.07l-.13.08Z"/><path class="cls-13" d="M123,46.25l.22-.25.08.08-.19.28Z"/><path class="cls-8" d="M126.25,45l-.16.23-.26-.14.22-.25Z"/><path class="cls-8" d="M126.06,44.86l.24-.11V45Z"/><path class="cls-2" d="M120.45,47.21l.23-.11v.28Z"/><path class="cls-11" d="M141.34,48.45l-.25-.21v-.08a2.76,2.76,0,0,0,.21.25Z"/><path class="cls-11" d="M141.36,48.41l.09.13-.11-.09Z"/><path class="cls-11" d="M123.31,43.05l.1.09h0v-.08Z"/><path class="cls-11" d="M123.31,43.05l-.25-.21h0l.2.26Z"/><path class="cls-12" d="M140.45,53.16l-.28.19h0V53Z"/><path class="cls-12" d="M140.17,53.35v.09h0l.13-.08Z"/><path class="cls-11" d="M138.54,42.35l-.11.1.1-.11Z"/><path class="cls-11" d="M139.41,42.29l.24-.23a.74.74,0,0,1,.12.13l-.23.22Z"/><path class="cls-11" d="M140,42l-.23.24a.74.74,0,0,0-.12-.13l.24-.23Z"/><path class="cls-11" d="M140.24,41.71,140,42l-.11-.13c.07-.07.16-.14.24-.23Z"/><path class="cls-11" d="M140.47,41.48l-.23.23-.12-.12.23-.24Z"/><path class="cls-11" d="M140.35,41.35l.24-.22.11.1-.23.25Z"/><path class="cls-11" d="M140.59,41.13l.15-.13v.23Z"/><path class="cls-11" d="M128.47,39.06h-.23l.2-.28.07.07A.38.38,0,0,1,128.47,39.06Z"/><path class="cls-11" d="M128.44,38.75l.15-.09-.08.16Z"/><path class="cls-6" d="M107.17,79.83l3.75,1c.44,1.84.44,1.84-1.46,2.5-1.34.47-1.61.9-1.56,2.84,0,1-.16,1.83-1.25,2.21L101.25,86l.74-2.5c.12-.25.25-.49.36-.74A4.47,4.47,0,0,1,107.17,79.83Z"/><path class="cls-4" d="M133.2,77l.9.46v1.09l1.25.09c-.92.3-2,.31-1.83,1.77,0,.09-.28.22-.43.33l-.25-1.44c-1,.71-1.15,1.61-.45,3.58v.86a12.67,12.67,0,0,1-2,.69,6,6,0,0,1-1.68-.23V83.9l1.64-.32a10.86,10.86,0,0,0,.61-1.1c.37-1,.62-2,1-3S132.79,77.84,133.2,77Z"/><path class="cls-6" d="M110.42,88.47v.28h-.68l-1-.71V88Z"/><path class="cls-6" d="M108.75,88l-.35-.33.07-.07.33.33Z"/><path class="cls-2" d="M109.74,88.75h.69v.19h-.7Z"/><path class="cls-6" d="M69.49,126.25l-.4.44a14.62,14.62,0,0,0-9.18,2.21,37.49,37.49,0,0,0-3.31,2.86,8.46,8.46,0,0,1-1.43.75c1-1.85,1.92-3.75,3.09-5.52A50,50,0,0,1,62,122.66c.48,0,1,.25,1.44.09,2.5-1,5-.65,7.5-.26.58.1,1.11.29,1.68.43L70,125.73C69.49,125.52,69.49,125.52,69.49,126.25Z"/><path class="cls-11" d="M65.55,131.37l-.45.17.27-.34Z"/><path class="cls-11" d="M65.37,131.25l.23-.29.17.23-.22.23Z"/><path class="cls-11" d="M65.6,130.91l.16-.17.24.15-.23.25Z"/><path class="cls-11" d="M111.14,63.75H111l-.08-.08h.15S111.11,63.75,111.14,63.75Z"/><path class="cls-11" d="M110.47,64.15l.09-.23h.09l-.19.15Z"/><polygon class="cls-11" points="110.46 64.13 110.41 64.15 110.47 64.14 110.46 64.13"/><path class="cls-10" d="M133.14,80.75c.15-.11.45-.24.44-.33-.22-1.46.9-1.47,1.82-1.77l-1.25-.09V77.5c-.9-1.54-.55-2,.92-3.27l1.25-.15a2.18,2.18,0,0,1,.57,2.5c-.22.63-.64,1.43.32,1.92l.46.34-.17.34-.52.26h0l-.24.46h0l-.7.7h0l-.24.24h0l-.24.47h0l-.47.48h0l-2.15.92C133,82,133.06,81.37,133.14,80.75Z"/><path class="cls-4" d="M137.6,78.75l-.46-.34c.15-.21.42-.41.42-.62.08-1.46-.11-3,1.25-4.08l1.58-2.46h.17l-.12-.23,2.06-3.17.09.49-.11.18-.7,1.25h0l-.23.09.23.18h0l-.88,2.5c-.16.47-.3.95-.44,1.42l-.07.36.31-.16.55-.41.25.25Zm2.65-4.14.16-.15s-.12-.12-.15-.11a1.73,1.73,0,0,0-.21.17Z"/><path class="cls-6" d="M142.61,68.34l-.09-.49a1.65,1.65,0,0,1,1.68-1.6h0Z"/><path class="cls-6" d="M141.8,69.76l.7-1.25-.3,1-.17.2h0Z"/><path class="cls-11" d="M144.22,66.25h0l.67-.73Z"/><path class="cls-11" d="M136,80.52l.7-.7Z"/><path class="cls-11" d="M135,81.7l.47-.47Z"/><path class="cls-11" d="M145.33,65.3l.47-.49Z"/><path class="cls-11" d="M144.84,65.52l.5-.23Z"/><path class="cls-11" d="M135.5,81.25l.24-.47Z"/><path class="cls-11" d="M136.67,79.81l.24-.46Z"/><path class="cls-11" d="M136.9,79.36l.52-.26Z"/><path class="cls-4" d="M142,69.75l.17-.2Z"/><path class="cls-4" d="M141.8,69.76h.26l-.26.24h0v-.24Z"/><path class="cls-11" d="M135.74,80.76l.23-.24Z"/><path class="cls-2" d="M93.82,74.26l.58.51h-.65Z"/><path class="cls-2" d="M94.41,74.79l.29.8Z"/><path class="cls-2" d="M93.14,76.74l.33.32a.89.89,0,0,1-.17.08l-.2-.35Z"/><path class="cls-10" d="M197.09,126.4l1.15.7a5.76,5.76,0,0,1,.75,1.14,34.53,34.53,0,0,1-1.07,24.92,17.65,17.65,0,0,1-1.25,2.25l-.82,1.4-.46.72-.46.71-.22.49-.37.36-.8.56-1.42.49c.88-1.89,1.7-3.64,2.5-5.41a29.45,29.45,0,0,0,3.16-12.82,27.14,27.14,0,0,0,.18-3c-.61-4.06.3-8.25-1.06-12.23C196.89,126.6,197,126.49,197.09,126.4Z"/><path class="cls-10" d="M198.49,126.75l-.24-.36Z"/><path class="cls-4" d="M147.9,50.77c.86-.38,1.72-.76,2.57-1.17a2.73,2.73,0,0,0,.48-.42l1.55-.8.23.17-.18.32-.24.49h0L150.51,51c-.26-.06-.62-.26-.76-.16a3.52,3.52,0,0,0-1.4,3.16l.82-.09.15.17A7.77,7.77,0,0,1,145,56.53a4.81,4.81,0,0,1,1.58-4.3v1.52l.24.21c.22-.25.58-.47.63-.76a10,10,0,0,0,0-1.73Z"/><path class="cls-15" d="M149.19,53.92l-.83.09a3.52,3.52,0,0,1,1.4-3.16c.14-.1.5.1.76.16l1.81-1.65-.21,1.44h0l-.24.71h0l-.24.73h0l-.24.47h0a12.4,12.4,0,0,0-1,1.37,7.78,7.78,0,0,0-.47,1.33c-.9-.45-1.56.17-2.28.88s-1.78,1.45-2.85,2.31c0-.86.07-1.44.11-2a7.81,7.81,0,0,0,4.4-2.44l.15-.15Z"/><path class="cls-13" d="M147.9,50.77l-.49.71-.16-.72h.65Z"/><path class="cls-4" d="M147.91,50.77h-.66l-.11-.22Z"/><path class="cls-15" d="M152.34,49.36l.24-.48Z"/><path class="cls-4" d="M152.5,48.38l.24-.12a1.41,1.41,0,0,0,0,.29Z"/><path class="cls-9" d="M151.66,52.2l.24-.73Z"/><path class="cls-9" d="M151.89,51.49l.25-.72Z"/><path class="cls-9" d="M151.42,52.66l.24-.47Z"/><path class="cls-9" d="M90.54,76.55a.17.17,0,0,0-.16-.07l.15-.08Z"/><path class="cls-4" d="M108.2,119.15h.31l.74,1.44h0l.21.29c.36.32.7.67,1.08,1l.43-.31h.38l.24.86,5.45,1.7c-.19.13-.4.38-.55.34-.85-.18-1.68-.43-2.5-.65l-.08.2.71.37c-.24.88.53.77.94.94,2.34,1,4.69,2,7,3a.61.61,0,0,1,0,.19L118,126.88a5.8,5.8,0,0,0,1.25,1.66l5.75,5.75,4.39,4.32,5.42,5.4a14,14,0,0,1,2,2.37,17.59,17.59,0,0,0,5.95,5.81,16.94,16.94,0,0,1,4.73,5.17l-.2.24-4.38-2.89.33,1.25a11.19,11.19,0,0,0-1.25-1.57,14.82,14.82,0,0,0-1.8-1.25c-1.53-1.95-3-4-4.57-5.85-2.92-3.43-6-6.78-9-10.24-1,.55-2,1.08-3,1.56L104.25,148a4,4,0,0,1-4.2-.62l-2.29,7.37-.42-2.32c.12-.68.22-1.36.39-2,.72-2.84,1.47-5.66,2.2-8.49h.36l-.48,2.69c.33-.26.44-.31.48-.4,1.5-3,3.16-5.82,4.42-8.87,1.42-3.42,2.5-7,3.75-10.47l.15-.35h-1l-.42.08-5.2,1.25v-.19l7.6-2.95-2.5-3.33.2-.27,1.12.74Zm11.61,10.75.13.12-.14-.11a7.22,7.22,0,0,0-1.48-1c-1.25-.41-2.5-.7-3.67-1l-.13.42ZM107.09,135A53.24,53.24,0,0,0,100,145.57c.39-.12.5-.11.52-.16q3.32-4.89,6.58-9.8a1.59,1.59,0,0,0,.16-.43l.19-.43Zm1.75-3.54.25.23,3-2.78c-1.75.09-2.26,1.55-3.21,2.54Zm4.84-7.71v-.16h-.52v.16Zm3.92,3h.07v-.06Z"/><path class="cls-4" d="M168.54,193.44c0-1.09-.07-2.18-.11-3.27,0-.53-.1-1.07-.15-1.61h.31c.44,2.78.86,5.55,1.25,8.33l-1.31-3.14Z"/><path class="cls-12" d="M140.15,153.14a14.82,14.82,0,0,1,1.8,1.25A11.19,11.19,0,0,1,143.2,156h0v.23l.46.47h0l.48.7h0l.1.48-1-.27-1-1.11h0l-1-1.71h0l-.46-.71h0l-.25-.49h0l-.33-.25Z"/><path class="cls-11" d="M147.76,162.41l-3.07-2.65.22-.19.65-.16,2.4,2.74Z"/><path class="cls-11" d="M149.64,164l-1.88-1.63.2-.26,1.88,1.64Z"/><path class="cls-11" d="M142.24,156.4l1,1.11.5.92-.15.27Z"/><path class="cls-11" d="M151.1,165.25,149.64,164l.2-.25,1.37,1.25Z"/><path class="cls-11" d="M141.25,154.75l.95,1.65Z"/><path class="cls-11" d="M167.29,192.5l1,.95Z"/><path class="cls-11" d="M140.85,154.05l.46.71Z"/><path class="cls-11" d="M144.29,159.4l-.54-.65.28-.1.46.46Z"/><path class="cls-11" d="M168.54,193.44v.31l-.33-.35Z"/><path class="cls-11" d="M140.6,153.56l.25.49Z"/><path class="cls-11" d="M140.3,153.34l.32.25Z"/><path class="cls-11" d="M143.75,158.75l-.09-.07.15-.28c0,.09.14.16.22.25Z"/><path class="cls-11" d="M144.53,159.6l-.24-.2.14-.26.24.22Z"/><path class="cls-11" d="M144.69,159.76l-.16-.16.15-.24.23.21Z"/><path class="cls-11" d="M151.25,165.39a.23.23,0,0,1-.15-.14l.15-.25.25.22Z"/><path class="cls-12" d="M107.16,124.53l.42-.08.83.34c-1.25,3.5-2.28,7-3.75,10.46-1.25,3.05-2.92,5.93-4.42,8.88,0,.08-.15.13-.48.4.19-1.07.33-1.88.48-2.69.15-.39.29-.79.44-1.18l.08-.22.49-1.63c.15-.1.36-.16.44-.3.85-1.61,1.68-3.21,2.5-4.85a3.78,3.78,0,0,0,.36-1.44c.11-1.81.16-3.62.25-5.43a1.7,1.7,0,0,1,1.35-1.68A4.41,4.41,0,0,0,107.16,124.53Z"/><path class="cls-11" d="M101.25,138.81l-.49,1.63-.08.22c-.16.39-.29.79-.44,1.18h-.36c.33-1,.67-2.09,1-3.13Z"/><path class="cls-3" d="M95.7,156.37h.24l-.26.48Z"/><path class="cls-4" d="M106.46,118.61l.38.18-.21.19-.38-.23Z"/><path class="cls-12" d="M106.46,118.61l-.21.14.1-.33Z"/><path class="cls-4" d="M106.84,118.75l.14.29-.35-.1Z"/><path class="cls-3" d="M168,191h0C168.1,191.25,168,191.14,168,191Z"/><path class="cls-4" d="M95.8,159.17l-.59.94c.24-.84.5-1.67.74-2.5.1-.4.15-.82.22-1.25h0l.33-.47.15.24-.49,2.5h0Z"/><path class="cls-13" d="M96.15,158.75l.49-2.5c.18-.47.38-1,.57-1.45A5.28,5.28,0,0,1,96.15,158.75Z"/><path class="cls-13" d="M95.8,159.17l.35-.47Z"/><path class="cls-13" d="M96.49,155.9l-.33.47Z"/><path class="cls-12" d="M143.23,155.91l-.33-1.25,4.37,2.89.21-.24a16.83,16.83,0,0,0-4.73-5.17,6,6,0,0,1,1.58-.68,16.8,16.8,0,0,0,6.25-1.57,15.3,15.3,0,0,1,2.5-.84l.85,2.37.37-.08-.16-1.35v-1.44c.91.57,1.81.95,2,2.1.32,1.91.69,3.75,1,5.72.14.82-.11,1.25-1.05,1.43a12.17,12.17,0,0,0-2.5.81c-1.25.52-1.41.93-1,2.28.35,1.15.71,2.3,1.06,3.44l-1.33-.72-1.19-1.39-.46-.71-1.25-.66-3.89-2.1h-.44l-.46-.7h0l-.49-.7h0l-.47-.7h0l-.22-.72h-.26Z"/><path class="cls-12" d="M134.76,144l-5.42-5.4c.89,0,.9-.3.42-1-1.32-1.77-2.6-3.6-3.65-5.07l1.39-2.38a6.28,6.28,0,0,1,1.82.74c.61.52,1.46,1.36,1.37,1.94a4.91,4.91,0,0,0,.91,3.27c1.14,2.12,2.39,4.17,3.51,6.25C135.38,142.88,135.81,143.66,134.76,144Z"/><path class="cls-13" d="M127.5,130.16l-1.39,2.38c1,1.47,2.33,3.3,3.65,5.07.48.66.47,1-.42,1L125,134.25c-1.93-1.92-3.84-3.83-5.75-5.75a5.63,5.63,0,0,1-1.25-1.66l4.64,1.66h.87l.55.23h0l2.83.93h0l.46.24h0Z"/><path class="cls-12" d="M123.46,128.52h-.07l-.8-.24c-2.35-1-4.7-2-7-3-.41-.18-1.25,0-.94-.94l3.57.67h0a7.77,7.77,0,0,0,4.68.63,8.28,8.28,0,0,0,1.12,1.25c1.33.91,2.72,1.75,4.09,2.62l-.15.35-.62.15h0l-.46-.24h0l-2.84-1h0Z"/><path class="cls-9" d="M122.84,125.61a7.73,7.73,0,0,1-4.69-.62l1-.09,4.66-.11h2.66Z"/><path class="cls-11" d="M123.86,124.79l-4.66.11c.1-.11.2-.3.29-.3C121,124.65,122.4,124.72,123.86,124.79Z"/><path class="cls-9" d="M118.18,125l-3.57-.68-.71-.37.08-.2c.83.22,1.66.47,2.5.65.15,0,.36-.21.55-.34Z"/><path class="cls-9" d="M148.81,140.25l.33.72-.53-.77Z"/><path class="cls-13" d="M143.44,134.13h.2l-.19.42Z"/><path class="cls-9" d="M148.37,140l.25.25Z"/><path class="cls-13" d="M143.21,133.89l.25.25Z"/><path class="cls-4" d="M130.59,107.41l.36.49,1,2.6,1.74-5.35c.19,2.61.36,4.88.52,7.14.21.51.4,1,.59,1.55l.39.42,1.72,2.1-.18.19-2.5-1.94A21,21,0,0,1,132,112.5a4.32,4.32,0,0,1-.74-1.75C131,109.65,130.8,108.52,130.59,107.41Z"/><path class="cls-4" d="M144.35,121.61l.34.18c1.89,1,3.75,1.92,5.66,2.95a14.86,14.86,0,0,1,3,2.21c-.58-.23-1.25-.42-1.78-.69-1.41-.65-2.79-1.35-4.2-2-.53-.25-1-.88-1.73-.23-.07.08-.79-.38-1-.71a11.83,11.83,0,0,1-.94-1.8Z"/><path class="cls-11" d="M147.27,136.37h-.41l-.35-1.25Z"/><path class="cls-11" d="M147.5,137.36l-.17-.27v-.67l.72,1.17Z"/><path class="cls-11" d="M146.55,135l-.74-1.15Z"/><path class="cls-11" d="M145.84,133.87l-.25-.24Z"/><path class="cls-11" d="M136.69,116.55l.19-.19,4.43,2.13-.18.38Z"/><path class="cls-8" d="M112.31,101.35l.24-.24Z"/><path class="cls-8" d="M112.5,101.11Z"/><path class="cls-10" d="M134.76,113.84c-.19-.52-.38-1-.59-1.55C134.38,112.8,134.58,113.33,134.76,113.84Z"/><path class="cls-4" d="M128.25,107l-8.11-.47.14-.24c2.23,0,4.47.09,6.7.21A4.31,4.31,0,0,1,128.25,107Z"/><path class="cls-4" d="M99.39,118.15l.42-.21.1.13-.32.28Z"/><path class="cls-4" d="M100.3,117.86h-.06C100.31,117.86,100.28,117.84,100.3,117.86Z"/><path class="cls-4" d="M108.39,105.15l-.32.16.16-.4Z"/><path class="cls-4" d="M108.23,104.91h.29l-.13.23Z"/><path class="cls-4" d="M119.13,113.05l-.48-1.17Z"/><path class="cls-4" d="M119.35,113.29l-.24-.25Z"/><path class="cls-8" d="M109.46,120.84l-.21-.29Z"/><path class="cls-7" d="M69.49,126.25c0-.7,0-.7.46-.5Z"/><path class="cls-15" d="M133.14,80.75l-.24,1.86-.46.28c-.7-2-.58-2.87.45-3.58Z"/><path class="cls-12" d="M196.1,126h.26l.75,4.2-.45.08Z"/><path class="cls-15" d="M152.35,163.62l1.34.72v.24l.18.46,1.52,2.8-.94-.49h0l-.7-1.1h0l-.46-.7h0l-.24-.24h0l-.46-.7h0l-.4-.79Z"/><path class="cls-12" d="M153.94,165l-.19-.46Z"/><path class="cls-13" d="M145.54,158.75l4,2.14,1.25.66V162l.47.73h0l.7.94h0l.7.94h0l.47.7h0l.23.23h0l.47.7h0v.66l-.18.13-2.19-1.77-.17-.24-1.37-1.25L148,162.11l-2.4-2.73h0Z"/><path class="cls-13" d="M154.51,167.35l-.22.53-.64-.9.17-.13.65.51Z"/><path class="cls-6" d="M195.9,124.76c-.16,0-.38.2-.48.15-.35-.2-.66-.46-1-.7l.38-.75Z"/><path class="cls-8" d="M133.2,77c-.41.83-.89,1.64-1.25,2.5s-.65,2-1,3c-.18.37-.39.74-.61,1.1l.17-1.93c-1.59-.59-1.63-.6-1.34-2.35a18.43,18.43,0,0,1,.69-2.3l.23-.46.27-.3c.45-.15.91-.27,1.34-.45s.95-.48,1.59-.79Z"/><path class="cls-10" d="M129.88,77a15.58,15.58,0,0,0-.69,2.3c-.29,1.75-.25,1.76,1.33,2.35l-.17,1.93-1.64.32c-.1-.06-.27-.11-.29-.19-.18-2.31-.3-4.61,1.12-6.65C129.59,77,129.76,77,129.88,77Z"/><path class="cls-8" d="M129.4,76.06a2.5,2.5,0,0,1-.09-3.53l.09-.09,1.95-.52.2.25Z"/><path class="cls-10" d="M126.48,71.46l3.66.23a4.6,4.6,0,0,1-3.84,0Z"/><path class="cls-10" d="M126.25,71.68l-.21-.22h.38Z"/><path class="cls-8" d="M131.4,71.93h.29l-.09.27Z"/><path class="cls-6" d="M140.44,71.08l.12.22h-.17A.54.54,0,0,1,140.44,71.08Z"/><path class="cls-11" d="M119.35,75.14l-.7.94Z"/><path class="cls-11" d="M119.83,74.44l-.48.7Z"/><path class="cls-11" d="M120.06,74l-.23.48Z"/><path class="cls-13" d="M120.51,73.5l-.22.22Z"/><path class="cls-11" d="M120.29,73.75l-.24.25Z"/><path class="cls-11" d="M125.68,51.25l-.22-.45c1.45.49,2.92.94,4.35,1.49a1.05,1.05,0,0,1,.23.9,3.19,3.19,0,0,1-1.16.52c-.18.06-.47,0-.54.09-.65.92-1.36.81-2.11.14l-.27.5c-1.13-1-1.11-1.18.18-1.84l.74-.06-.7-.2v-.09l1.25-.11-1.55-.78Z"/><path class="cls-11" d="M136.67,50.6,134.76,52a20.41,20.41,0,0,1,2.34.71c1,.43.29,1-.06,1.65l-2.74-.89s-.14-.06-.2,0c-1.69.29-2-.1-1.63-1.47C134.06,52,135,50.24,136.67,50.6Z"/><path class="cls-13" d="M131.18,58.94c-1.48-1.49,0-2.92-.34-4.26h.34Z"/><path class="cls-8" d="M126,51.37l1.55.78-1.25.11A4.24,4.24,0,0,1,126,51.37Z"/><path class="cls-8" d="M126.18,52.35l.7.2-.74.06Z"/><path class="cls-7" d="M140.25,74.63l-.2-.09a1.18,1.18,0,0,1,.21-.18l.15.12Z"/><path class="cls-6" d="M141.82,69.72V70l-.22-.17Z"/><path class="cls-7" d="M140.73,74l-.32.16.08-.36Z"/><path class="cls-4" d="M149.19,53.92h.3l-.15.15Z"/><path class="cls-13" d="M107.3,135.17a1.7,1.7,0,0,1-.18.44q-3.25,4.92-6.57,9.8c-3.31,4.89-.14,0-.53.16A53.15,53.15,0,0,1,107.09,135Z"/><path class="cls-12" d="M119.83,129.9l-5.3-1.55.12-.42c1.25.32,2.5.61,3.68,1a7.43,7.43,0,0,1,1.47,1Z"/><path class="cls-13" d="M108.84,131.45c1-1,1.46-2.5,3.21-2.5l-3,2.78Z"/><path class="cls-15" d="M108.41,124.79l-.83-.34h1Z"/><path class="cls-15" d="M122.59,128.31l.8.25h-.8A1,1,0,0,0,122.59,128.31Z"/><path class="cls-13" d="M107.09,135l.38-.24c0,.14-.12.29-.17.43Z"/><path class="cls-9" d="M113.68,123.75h-.52v-.09h.52Z"/><path class="cls-12" d="M119.8,129.91l.2.09-.11-.12Z"/><path class="cls-13" d="M117.6,126.81h0a.06.06,0,0,1,.07-.06c.08,0,0,0,0,.06Z"/><path class="cls-13" d="M144.91,159.58l-.24-.22-.24-.22-.47-.46-.21-.25c-.17-.3-.34-.62-.5-.92l1,.27.39.22h0l.46.7h0l.45.7h0Z"/><path class="cls-11" d="M144.64,158l-.39-.22a2,2,0,0,0-.1-.48Z"/><path class="cls-11" d="M143.75,156.61l.47.7Z"/><path class="cls-11" d="M143.47,155.87l.22.73-.47-.47Z"/><path class="cls-4" d="M143.47,155.87l-.24.25v-.22Z"/><path class="cls-15" d="M100.73,140.66l.08-.22Z"/><path class="cls-15" d="M151.16,162.24l1.19,1.38-.15.14-.3-.15h0l-.7-.94h0v-.43Z"/><path class="cls-15" d="M150.71,162v-.42c.16.23.31.47.47.71h0Z"/><path class="cls-11" d="M145.1,158.75l-.46-.7Z"/><path class="cls-11" d="M145.55,159.4l-.45-.7h.44C145.54,159,145.55,159.17,145.55,159.4Z"/><path class="cls-15" d="M124,128.75l2.82.94Z"/><path class="cls-15" d="M123.46,128.52l.55.23Z"/><path class="cls-15" d="M126.82,129.69l.47.24Z"/><path class="cls-11" d="M151.9,163.61l.3.15.4.79Z"/><path class="cls-11" d="M154.48,167.36l-.65-.51v-.65Z"/><path class="cls-11" d="M153.06,165.25l-.46-.7Z"/><path class="cls-11" d="M153.75,166.25l-.46-.7Z"/><path class="cls-11" d="M153.3,165.49l-.24-.24Z"/><path class="cls-11" d="M151.25,162.67l.7.94Z"/><path class="cls-11" d="M150.71,162l.43.3v.44Z"/></svg>