<svg id="Layer_1" data-name="Layer 1" xmlns="http://www.w3.org/2000/svg" viewBox="0 0 200 200"><defs><style>.cls-1{fill:#f27f1b;}.cls-2{fill:#a94601;}.cls-3{fill:#eb740b;}.cls-4{fill:#561808;}.cls-5{fill:#ecbc26;}.cls-6{fill:#927f6f;}.cls-7{fill:#7f684e;}.cls-8{fill:#723314;}.cls-9{fill:#784e24;}.cls-10{fill:#dca786;}.cls-11{fill:#9acbed;}.cls-12{fill:#bc5135;}.cls-13{fill:#fadb8f;}.cls-14{fill:#fbe3c5;}.cls-15{fill:#fae3c6;}.cls-16{fill:#fefefe;}</style></defs><title>avatar</title><circle class="cls-1" cx="100" cy="100" r="100"/><path class="cls-2" d="M60.4,83.53l-.07,0v-.07l-.45-.59,0,0a.25.25,0,0,0,0-.17l0-.6-.19-.2-.3-.3-.52-.86-.69-1.13,0-.11a12.58,12.58,0,0,0-.55-1.6c-1.52-3-1.1-6,0-9,.46-1.2.81-2.43,1.21-3.65l0,0L59.56,64V64l.58-1.06a.81.81,0,0,1,.16-.16l.74-1.19.49-.54.82-1.07.66-.66.25-.43a.67.67,0,0,1,.15-.14l1.8,0L66,60.18c.28,1.8.59,3.6.84,5.4a5.85,5.85,0,0,1,0,1.67c-.22,1.68-.48,3.36-.73,5A11.62,11.62,0,0,1,65.32,75a1.2,1.2,0,0,0,.23,1.72c2.5,1.92,5.06,3.78,7.6,5.67l2,1.27c-.72.82-1.46,1.62-2.14,2.47-.5.62-.92,1.29-1.37,1.94l-.47.75,0,2.45c-.15.13-.39.24-.41.39-.28,1.7-.54,3.4-.77,5.11a3.09,3.09,0,0,0,.1,1.09c.18.72.4,1.43.68,2.43-.67-.18-1.07-.29-1.47-.38l-5-1.21-.88-.52-.3-.27-.21-.21L62,96.93l-1.16-1-.32-.23-1.45-1.45v-1h0l.24-.28a.78.78,0,0,0,0-.14l.23-.36.75-.64.48-.79h0l.23-.29.26-.66.24-.55,0-.42.48-1.28v-.26l-.23-2.22h0l-.24-.54Z" transform="translate(0 0)"/><path class="cls-3" d="M120.59,85.58l-.6-.28-1.81-.66.6-1.76,3.72-3.43c.83-1.16,1.68-2.32,2.48-3.51.07-.1-.19-.43-.3-.66V75c.88,0,.8-.72,1-1.29s.08-1.59,1.08-2a14,14,0,0,0,3.38-1.88c2.11-1.7,3.1-4.2,4.21-6.72l.66.9,0,1.07v3.56L134.82,70l-.3.76c-.61,1-1.17,2-1.82,2.87-.86,1.21-1.63,2.54-3.17,3.06.11-.41.23-.82.34-1.23l.36-.23-.15-.15-.24.36a7,7,0,0,0-3,3.72l-.25.46-.09.28c-.56,1.3-1.23,2.56-1.67,3.9-.67,2.06-.6,2.09-2.85,2A11.85,11.85,0,0,1,120.59,85.58Z" transform="translate(0 0)"/><path class="cls-4" d="M111.06,142c-1.4,2-1.4,4.44-1.88,6.73a2.06,2.06,0,0,1-1.85,1.8c-3.12.53-4.74,0-6.24-2.82a45.1,45.1,0,0,1-2.31-6,2.37,2.37,0,0,1,.09-1l.72.15h.84l1.56-.47.9,0,2.31-.47h.67l.31-.16h.74L108,140l2.09,1.07Zm-1.44,1.37c0-1.76-.14-2-1.68-2.31-.4-.08-.82-.07-1.22-.15-.8-.17-1.37,0-1.57.89-.34,1.46-.67,2.92-1,4.38a2,2,0,0,0,1.3,2.61l1.09.52c1.24.58,1.88.38,2.19-.95C109.15,146.71,109.36,145,109.62,143.41Z" transform="translate(0 0)"/><path class="cls-4" d="M50.21,163a10.24,10.24,0,0,1-2.67,5.87c-1.32,1.33-4.14,1.16-5-.55a17.47,17.47,0,0,1-.8-2.54l.06-.32c.78-.45,1.23-3.52.59-4.1-.08-.07-.23-.07-.35-.1L42.3,160v0c.27.15.54.3.8.46l.46.51.45.31.25,0a6.53,6.53,0,0,0,4.95,1.59l.29,0a.14.14,0,0,0,.13,0Z" transform="translate(0 0)"/><path class="cls-5" d="M119.24,85.93l-.72,1c-.56.62-1.12,1.24-1.67,1.87-1.13,1.32-2.25,2.65-3.4,4-.6.7-1.24,1.37-1.87,2l-1.06.6-.19.16-.85.51a5.21,5.21,0,0,1,0-1.31c.22-1,.53-2,.8-3l.09-.47.17-.24C112.3,87.83,115.58,85.19,119.24,85.93Z" transform="translate(0 0)"/><path class="cls-6" d="M119.27,93a3.25,3.25,0,0,1,2.34-1.62c3-.51,6-.85,9.07-1.26a4.62,4.62,0,0,1,3.58,1.27,65.27,65.27,0,0,1,5.55,5,5.52,5.52,0,0,1,1.48,3c.34,3.16.43,6.34.55,9.51a2,2,0,0,1-1.67,2.09l0-.42.33-.32.35-.33c.53-.86,1-1.73.11-2.65a6.06,6.06,0,0,0,.18-1.45c-.26-2.35-.54-4.7-.87-7.05a2.52,2.52,0,0,0-.62-1.28c-1.54-1.58-3.08-3.15-4.71-4.62a6.5,6.5,0,0,0-5.11-1.87,43,43,0,0,0-10.61,2Z" transform="translate(0 0)"/><path class="cls-5" d="M118.67,92.69l.6.3h0c-.47.43-.92.87-1.4,1.28a53.09,53.09,0,0,0-4.61,4.1c-1.36,1.54-1.21,1.67.63,2.22l-1,1.12a5.44,5.44,0,0,1-.73.44,2,2,0,0,1-1.05.29c-.94-.19-1.86-.51-2.8-.77l.84-4.25,3.48-1.74c1.72-.67,3.46-1.33,5.16-2,.25-.11.35-.57.51-.86h0Z" transform="translate(0 0)"/><path class="cls-7" d="M97.77,136.9c-.76.65-1.56,1.26-2.28,2a2.39,2.39,0,0,1-3.12.31,40.83,40.83,0,0,1-3.7-2.13,5.36,5.36,0,0,1-1.77-1.93,26.21,26.21,0,0,0-4-5.64,17.36,17.36,0,0,1-1.12-1.58l0-.69q2.49,3.13,5,6.28A21.47,21.47,0,0,0,89,136.32,16.48,16.48,0,0,0,91.82,138c2.27,1.31,2.92,1.15,4.51-1.2l-1.46-1.4-.54-.71-.49-.75-.3-.46-.21-.26-.32-.46-.66-1-2.11-2.94.9-.05.24.24.45.52,1.56,2.13.26.3,3.88,4.48Z" transform="translate(0 0)"/><path class="cls-6" d="M54.7,132c-.15-1.54-.31-3.08-.45-4.61a15.59,15.59,0,0,1,.89-6.49c.19-.57,0-1.26.28-1.8a5.32,5.32,0,0,1,1.41-2.26A21.72,21.72,0,0,1,60.54,115a4.63,4.63,0,0,0,2.93-2.85A15.88,15.88,0,0,1,65.25,109h.41c-.39.88-.82,1.74-1.15,2.64-.92,2.48-1.77,5-2.7,7.45a12.63,12.63,0,0,1-1,1.79l-.49-.2,1.75-5.18a23.48,23.48,0,0,0-4.29,1.61,2.49,2.49,0,0,0-1.51,2.26,34.75,34.75,0,0,1-1.32,4.92c-.1.24-.31.49-.29.73.14,2.23.33,4.45.5,6.68Z" transform="translate(0 0)"/><path class="cls-6" d="M149.05,35.63c.33-1,.91-1.26,1.83-.63.68.45,1.39.85,2.11,1.25a3.55,3.55,0,0,1,1.85,2.44,4.3,4.3,0,0,0,1.41,1.75,20.55,20.55,0,0,1,2.13,1.62,3.93,3.93,0,0,1,.87,2.14,7.71,7.71,0,0,1-.45,2.89c-.14.42-.87.63-1.33.93l-.72-.41c-.44-1.27-.87-2.54-1.33-3.9,1.93.21,1.9.21,1.86,1.79,0,.68-.16,1.5.93,1.71.06-1.37.53-2.83.07-3.89s-1.82-1.79-3-2.85c.22,2.22.23,2.25-1.6,2.53-.73.11-1,.46-.91,1.16a1.67,1.67,0,0,1-.74-1.89l2.39-.32A26.21,26.21,0,0,0,154,38.4c-.41-1.48-2.08-1.57-3-2.45a1,1,0,0,0-1.56.07Z" transform="translate(0 0)"/><path class="cls-7" d="M50.21,163h-.57a.34.34,0,0,0,0-.22l1-4.5,0-.47.45-1a5.58,5.58,0,0,0,1-3.47l1.66-1.08c.14-.41.37-1,.54-1.62a3.37,3.37,0,0,0,0-.84l.76-1.39a2.22,2.22,0,0,0,.53-.28c2.05-1.79,4.08-3.59,6.11-5.38l.77.22c-2,1.71-4,3.34-5.88,5.16-1.29,1.27-2.55,2.67-2.51,4.72a1.25,1.25,0,0,1-.35.89c-1.63,1.49-1.78,3.57-2.32,5.52C51.17,160.56,50.65,161.77,50.21,163Z" transform="translate(0 0)"/><path class="cls-8" d="M110.38,91.25l-.09.47-.66-.19c0-2.35,2.14-3.28,3.5-5-1.79.19-3.37.75-4.78-.39l.6-.38.89.13.53.18.49,0,.78-.2.68-.12.73-.25.29-.17.28-.2.21-.23.44-.23L115.4,84a.34.34,0,0,0,.19-.09l1-.65.05,0,.82-.58.31-.26,1.92-1.46,1.28-1,.2-.22,0,0,.7-.69.42-.21.16.73-3.72,3.43-3.73,2.37,4.5.35-.31.33c-3.66-.74-6.94,1.9-8.69,5.08Z" transform="translate(0 0)"/><path class="cls-6" d="M91.9,47a1.51,1.51,0,0,0,1.71-1.13A15.88,15.88,0,0,1,99.09,39c2.51-1.74,5.17-3.3,8.34-3.56,0,.2,0,.39,0,.59l-.26.28a29.71,29.71,0,0,0-3.87,1.14,15.57,15.57,0,0,0-9.36,10.26,5,5,0,0,1-.5.94l.1-1.06Z" transform="translate(0 0)"/><path class="cls-7" d="M152,42.27a1.67,1.67,0,0,0,.74,1.89l0,1-.47.22-.27.24-1,0-2.23-1.18,2.89.25-.45-1.51a9,9,0,0,1-2.19.25c-.86-.12-.93.2-.76.86l-.72-.19c-.77-1.51-2.15-1.69-4.23-.61-.79.41-1.63.73-2.45,1.09l-.13-.09-.06-.9a14.52,14.52,0,0,0,2.29-.72c1.85-.89,3.69-1.36,5.71-.32l.2-.69.29,0c-.07.62.1,1,.82.82l1.07-.52.57,0Z" transform="translate(0 0)"/><path class="cls-8" d="M99.59,141l-.72-.15c0-.6-.09-1.32.19-1.76.57-.89.23-1.41-.41-1.95,1.08,0,2.19.62,3.21-.3.79-.71,1.68-1.3,2.53-1.94l.3-.72v-.47l0-.26c2,.93,3.66.21,5.31-.8.54,0,.9.1.74.87-.09.42.3.94.48,1.41l.65,1.12.3.31.43.22-.05.72a.58.58,0,0,1-.22.08l-.59,0-1.2-1.92-.69-1.88a4.13,4.13,0,0,1-3.87,1c-.18,0-.55.21-.68.42a7.78,7.78,0,0,1-4.09,3.19C99.68,138.66,99.62,139.73,99.59,141Z" transform="translate(0 0)"/><path class="cls-7" d="M134.82,70c.08-.47.16-.93.23-1.39V65.06c0-.36,0-.71,0-1.07q-.09-3.84-.2-7.67s-.14-.08-.21-.11,0-.28,0-.42l.83-1.07L138,51.53l.58-.23.41-.5.5-.66c.24-1,.5-2.08.72-3.12.17-.83-.46-1.84.58-2.46l.13.09c-.08.72-.21,1.44-.22,2.17-.05,2.06-.42,3.89-2.19,5.32a20,20,0,0,0-2.88,3.32,2.09,2.09,0,0,0-.47,1.23c0,2.08.1,4.15.16,6.23.06,2.28.12,4.56.15,6.84,0,.24-.22.49-.34.73Z" transform="translate(0 0)"/><path class="cls-7" d="M140.2,110.51l0,.42a6.15,6.15,0,0,1-1.25.93c-3.39,1.5-5.62,4.37-8.26,6.78a32.29,32.29,0,0,1-4,2.71l-.3.23-.08.06h-.11l-.09-.46a28.17,28.17,0,0,0,2.76-1.91c1.42-1.23,2.73-2.57,4.09-3.86l2.07-2.22c.83-.45,1.64-.9,2.48-1.33S139.3,111,140.2,110.51Z" transform="translate(0 0)"/><path class="cls-4" d="M54.4,149.85a3.37,3.37,0,0,1,0,.84c-.17.61-.4,1.21-.54,1.62l-1.66,1.08-2.44-.76-.49-.79-.16-.25-.2-.71,1.51.41c0-.9.29-1.79-.64-2.37l-.9,1.83a.13.13,0,0,1,0-.18l-.1-.63.21-1h0l.21-.29.24-.7.91-.23c.06.23.11.47.16.7l.43.54C52.1,150.44,52.87,150.64,54.4,149.85Z" transform="translate(0 0)"/><path class="cls-6" d="M80,128c-.11.2-.17.49-.34.6A17.43,17.43,0,0,0,74,134.26a6.17,6.17,0,0,1-5.6,3,8,8,0,0,0-1,.12l-2.21-.26-1-.06,1.75-.65a30.86,30.86,0,0,1,3.19,0,3.6,3.6,0,0,0,3.41-1.73c1-1.26,2-2.48,2.94-3.72C77,129.86,78.08,128.29,80,128Z" transform="translate(0 0)"/><path class="cls-7" d="M112.57,137.27c0-.24,0-.48.05-.72,1.39.67,2.43.16,3.49-.82,2.78-2.58,5.54-5.2,9-6.9.34-.17.47-.76.7-1.15l.23-.27.54.08a1.83,1.83,0,0,1-1.18,2c-3.56,1.73-6.26,4.57-9.18,7.1C115,137.73,113.93,137.94,112.57,137.27Z" transform="translate(0 0)"/><path class="cls-8" d="M66.06,72.29c.25-1.68.51-3.36.73-5a5.85,5.85,0,0,0,0-1.67c-.25-1.8-.56-3.6-.84-5.4l1-.46.83.48.18.3-.88.41c1.38,3.78.63,7.56,0,11.34,0,.1-.16.17-.25.26Z" transform="translate(0 0)"/><path class="cls-7" d="M118.29,92.76c-.16.29-.26.75-.51.86-1.7.72-3.44,1.38-5.16,2l-1-.86c.63-.68,1.27-1.35,1.87-2,1.15-1.31,2.27-2.64,3.4-4,.55-.63,1.11-1.25,1.67-1.87a1.66,1.66,0,0,1-.08.68c-1.26,2-2.38,4.11-4.33,5.59a7.64,7.64,0,0,0-1,1.12l.19.25Z" transform="translate(0 0)"/><path class="cls-9" d="M59.35,92.8a.78.78,0,0,1,0,.14l-.24.28h0c-.67.34-.56.68,0,1l1.45,1.45.32.23,1.16,1,.82.72.21.21.3.27.88.52,2.51,1.14a6.85,6.85,0,0,1-2.44-.63c-2.1-1.58-4.08-3.32-6-5.06-.15-.13.09-.84.3-1.18a36.09,36.09,0,0,0,2.52-3.83,5.38,5.38,0,0,0-.67-5.56l1.17,1.25.24.54h0c.07.74.15,1.48.23,2.22v.26l-.48,1.28,0,.42-.24.55-.26.66-.23.29h0l-.48.79-.75.64Z" transform="translate(0 0)"/><path class="cls-8" d="M64.29,137l1,.06-1.23.72C59.62,138.9,57.3,136,55,133l-.86.91h-.48l1-1.94.45-.27h.37l.11.5.33.49C58,135.48,60.37,137.76,64.29,137Z" transform="translate(0 0)"/><path class="cls-8" d="M66.73,99.79l-2.51-1.14,5,1.21c.4.09.8.2,1.47.38-.28-1-.5-1.71-.68-2.43a3.09,3.09,0,0,1-.1-1.09c.23-1.71.49-3.41.77-5.11,0-.15.26-.26.41-.39l.45.76a1.73,1.73,0,0,1,0,.59,12.91,12.91,0,0,0,.2,8,2.89,2.89,0,0,1,.07.84l-.77-.26-4-1.24Z" transform="translate(0 0)"/><path class="cls-7" d="M53.67,133.9h.48v.51c-.65,2.55-1.24,5.11-2,7.63-.46,1.59-1.14,3.12-1.72,4.68l-.26-.51c.79-3.32,1.55-6.64,2.39-9.94A14.12,14.12,0,0,1,53.67,133.9Z" transform="translate(0 0)"/><path class="cls-7" d="M43.11,160.48c-.26-.16-.53-.31-.8-.46.7-1.19,1.36-2.39,2.09-3.55,1.08-1.74,2.46-3.32,2.79-5.47.07-.41.65-.75,1-1.12l.16.12.44.56a6.7,6.7,0,0,0-1,1.19c-.44.9-.65,1.93-1.16,2.79-.93,1.58-2,3.06-3,4.61A6.38,6.38,0,0,0,43.11,160.48Z" transform="translate(0 0)"/><path class="cls-7" d="M149.05,35.63l.32.39.24.59-2,.62a15.92,15.92,0,0,1-1.83,0c-2.29-.34-4.57-.76-6.86-1.07-.4,0-.86.27-1.29.42l-2.64-2c1.63,1.05,3.46.93,5.29,1.05s3.75.67,5.63.94a15.28,15.28,0,0,0,2.44,0l.43-.57Z" transform="translate(0 0)"/><path class="cls-7" d="M156.75,47.61l.72.41c-.31.39-.6.79-.93,1.14a1.7,1.7,0,0,1-.69.44c-.69.2-3.92-1.26-4.3-1.85s-.79-1-1.18-1.54l.56-.09,1.64.45.45,0,1.25.5h0a5.53,5.53,0,0,1,.47,1.06c.23,1,.7.91,1.33.36Z" transform="translate(0 0)"/><path class="cls-10" d="M104.69,133.68v.47l-.3.72c-.85.64-1.74,1.23-2.53,1.94-1,.92-2.13.32-3.21.3l-.88-.21-.24-.51a38,38,0,0,0,4.77-1.25c1.4-.55,1.37-.93.46-2.11a2.15,2.15,0,0,1-.24-.66Z" transform="translate(0 0)"/><path class="cls-8" d="M120.22,36.26l3.43-2.08.18.41c.14.12.32.36.43.33.72-.17,1.44-.41,2.15-.62l.14.36c-1.59,1.51-3.67,1.89-5.88,2.21l.47.81C119.74,37.44,119.55,37.15,120.22,36.26Z" transform="translate(0 0)"/><path class="cls-7" d="M120.59,85.58a11.85,11.85,0,0,0,1.43.24c2.25.08,2.18.05,2.85-2,.44-1.34,1.11-2.6,1.67-3.9l.62-.24.92-.11a7.31,7.31,0,0,0-2.66,5.55c-.09,1-.56,1.41-1.46,1.39C122.77,86.46,121.45,86.83,120.59,85.58Z" transform="translate(0 0)"/><path class="cls-9" d="M84.75,47.44l.84-.14.67.27c-.3.14-.59.3-.89.41A11.43,11.43,0,0,0,78,54.29c-.11.25-.42.41-.63.61l0-.63a9.1,9.1,0,0,1,3.29-4.64A19.53,19.53,0,0,1,83.37,48Z" transform="translate(0 0)"/><path class="cls-8" d="M58.82,65.24c-.4,1.22-.75,2.45-1.21,3.65-1.15,3-1.57,6,0,9a12.58,12.58,0,0,1,.55,1.6l-.53,0v0l-.14-.26c-.29-.64-.57-1.28-.85-1.92l-.18-.56a.11.11,0,0,1-.08-.14c-.13-1.26-.25-2.52-.38-3.78L56,72l.32-1.55a.14.14,0,0,1,.11-.16l.15-.54.31-1.18.92-2.3a.15.15,0,0,1,0-.17l.23-.27a.32.32,0,0,1,.1-.2Z" transform="translate(0 0)"/><path class="cls-9" d="M64,137.82l1.23-.72,2.21.26-1.5,2-.45.52h0l-.25.3c-.47.56-.94,1.13-1.42,1.69l-.29.3-1,.9-.77-.22.24-.5,4.05-4.11-.26-.37Z" transform="translate(0 0)"/><path class="cls-7" d="M69.69,62.63a2.58,2.58,0,0,0,4,.06A21,21,0,0,0,75.77,59a8.93,8.93,0,0,0,.37-.84l.25.43c0,.2,0,.39-.07.59l-.46,1.17,0,.3-.23.61c-.83,1.65-1.9,3-3.95,3.05l-1.72-.38h0l-.26-1Z" transform="translate(0 0)"/><path class="cls-9" d="M134.82,70l.32.48a14.59,14.59,0,0,1-4.41,7.6,7.48,7.48,0,0,1-1.22.74c-.07-.07-.13-.15-.19-.22,1.51-1.81,3.08-3.57,4.48-5.45a7.49,7.49,0,0,0,.72-2.39Z" transform="translate(0 0)"/><path class="cls-9" d="M126.11,121.17l.09.46h0l-.59.31-.1.87-.39.28h0l-.33-.59-2.1-2.36c-.35-.85-1-.82-1.78-.7l0,0-.26-.23a.26.26,0,0,1-.15-.07l-.31-.41-.18.41h0l-.4.14-.6-2.08a13.7,13.7,0,0,0,2.19,1.43,8.65,8.65,0,0,1,3.73,2.36C125.11,121.2,125.7,121.11,126.11,121.17Z" transform="translate(0 0)"/><path class="cls-7" d="M86.26,47.57l-.67-.27,3.33-.4,1.93.13H91.9l1.62.59c0,.27-.06.66-.1,1.06s-.07.59-.11.88h-.67c0-.66.53-1.61-.61-1.72C90.11,47.66,88.18,47.65,86.26,47.57Z" transform="translate(0 0)"/><path class="cls-7" d="M126.23,31.85c.16-.14.36-.42.47-.38,2.44.75,4.86,1.54,7.29,2.33.06,0,.11.12.16.18l-.91.24L128.89,33l-1.58-.68a.2.2,0,0,1-.13,0Z" transform="translate(0 0)"/><path class="cls-8" d="M133.24,34.22l.91-.24c.29.17.57.35.85.53l2.64,2a.28.28,0,0,1,.13.15L138,37l1.44,2.22c-.09.33-.17.67-.26,1A13.31,13.31,0,0,0,133.24,34.22Z" transform="translate(0 0)"/><path class="cls-7" d="M60.31,62.73a.81.81,0,0,0-.16.16c-.2.35-.39.71-.58,1.06V64l-.71.38a14.91,14.91,0,0,1,4.59-6.23c.44-.35,1.14-1,1.81-.17l-.29.19-1.54.52a.67.67,0,0,0-.15.14l-.25.43-.66.66L61.54,61l-.49.54Z" transform="translate(0 0)"/><path class="cls-2" d="M119.55,85.6l-4.5-.35,3.73-2.37-.6,1.76,1.81.66Z" transform="translate(0 0)"/><path class="cls-7" d="M65.66,109h-.41c.82-1.37,1.57-2.79,2.47-4.1a14.08,14.08,0,0,1,1.82-1.8l.35.17.06.07Z" transform="translate(0 0)"/><path class="cls-9" d="M42.06,161.26c.12,0,.27,0,.35.1.64.58.19,3.65-.59,4.1h-.26a.17.17,0,0,1,0-.23,6.35,6.35,0,0,0,.14-1c0-.85,0-1.7-.07-2.55l.44-.46Z" transform="translate(0 0)"/><path class="cls-8" d="M129.87,75.47c-.11.41-.23.82-.34,1.23l-1.55,2,1.34-.07c.06.07.12.15.19.22l-.42.32a.87.87,0,0,0-.22-.05l-2,.07a7,7,0,0,1,3-3.72Z" transform="translate(0 0)"/><path class="cls-7" d="M111.76,137.33l.59,0L111.06,142l-.93-1a4.06,4.06,0,0,0,.48-.69C111,139.35,111.38,138.33,111.76,137.33Z" transform="translate(0 0)"/><path class="cls-6" d="M125.12,123.1l.39-.28a5.53,5.53,0,0,1,1.07,4.67l-.54-.07.06-.4-.11-.54Z" transform="translate(0 0)"/><path class="cls-6" d="M114.57,35.5l4.19,1.27c0,.15,0,.3,0,.45l-4-.88-.48-.2Z" transform="translate(0 0)"/><path class="cls-10" d="M80,128c-1.93.3-3,1.87-4.43,3l-.21-.27c1.26-1.88,3.28-2.75,5.13-3.84a.47.47,0,0,0,0,.17v.71Z" transform="translate(0 0)"/><path class="cls-9" d="M150.93,46.12l-.56.09c-1.62-.09-2.42-.69-2.76-2l.72.19.51.15,2.23,1.18C151,45.83,151,46,150.93,46.12Z" transform="translate(0 0)"/><path class="cls-9" d="M118.78,37.22l0-.45h0l.74-.44.71-.07c-.67.89-.48,1.18.92,1.42v0l.56.28h0l.51.48h0l.25.25h0L123,39a.25.25,0,0,1,.17.16l-.09.76-3.35-2.19-.32-.17Z" transform="translate(0 0)"/><path class="cls-8" d="M126.23,31.85l1,.46c-.43.26-.87.52-1.29.81-.7.47-1.37,1-2,1.47l.09-.57.3-.21.21-.19,1.06-1,.41-.43Z" transform="translate(0 0)"/><path class="cls-7" d="M114.57,35.5l-.26.64-.74-.1-5.39,0-.77.06c0-.2,0-.39,0-.59l2.16-.13h2.79Z" transform="translate(0 0)"/><path class="cls-8" d="M80.53,127.71V127c.69-.2.58-.57.21-1v-1l.54-.49.22.76.27,1.9,0,.69Z" transform="translate(0 0)"/><path class="cls-4" d="M65,58.18l.29-.19c.57.41,1.14.82,1.72,1.22l0,.51-1,.46-.78-1.45C65.14,58.54,65.05,58.36,65,58.18Z" transform="translate(0 0)"/><path class="cls-9" d="M67.19,99.9l4,1.24-.53.24-2.27-1Z" transform="translate(0 0)"/><path class="cls-7" d="M70.61,101.38l.53-.24.77.26v.38a5.29,5.29,0,0,1,.09,1.31c0,.26-.34.48-.53.72,0-.66.36-1.44-.7-1.62l-.27-.26Z" transform="translate(0 0)"/><path class="cls-9" d="M69.69,62.63a2.45,2.45,0,0,0,0,.27h-.35c-.32-.34-.61-.7-1-1s-.81-.66-1.21-1L68,60.5a.16.16,0,0,1,.18.12l.26.29h0l.5.74.22.26.39.52A.23.23,0,0,1,69.69,62.63Z" transform="translate(0 0)"/><path class="cls-7" d="M41.63,161.72c0,.85.07,1.7.07,2.55a6.35,6.35,0,0,1-.14,1c-.55-1.25-.88-2.5,0-3.76Z" transform="translate(0 0)"/><path class="cls-9" d="M58.83,80.7l.52.86.3.3.19.2c0,.2,0,.4,0,.6a.25.25,0,0,1,0,.17c-.52-.73-1-1.46-1.55-2.2Z" transform="translate(0 0)"/><path class="cls-7" d="M56,72.76c.13,1.26.25,2.52.38,3.78C56.2,75.28,56.08,74,56,72.76Z" transform="translate(0 0)"/><path class="cls-9" d="M76.39,58.54l-.25-.43c0-.12.08-.25.13-.37l.5-1.88.13-.35.41,0C77,56.51,76.7,57.53,76.39,58.54Z" transform="translate(0 0)"/><path class="cls-11" d="M112.38,35.35h0Z" transform="translate(0 0)"/><path class="cls-8" d="M50.19,146.22l.26.51-.12,1-.91.23C49.68,147.36,49.94,146.79,50.19,146.22Z" transform="translate(0 0)"/><path class="cls-7" d="M57.82,66.28l-.92,2.3Z" transform="translate(0 0)"/><path class="cls-7" d="M76.77,55.86l-.5,1.88Z" transform="translate(0 0)"/><path class="cls-9" d="M126.88,79.17l2-.07,0,.26-.76.2-.91.11-.53,0Z" transform="translate(0 0)"/><path class="cls-7" d="M69.91,102.57l.59-.64.27.26c-.28.38-.55.77-.82,1.15l-.06-.07C69.89,103,69.9,102.8,69.91,102.57Z" transform="translate(0 0)"/><path class="cls-8" d="M58.83,80.7l-.53-.07-.23-.43c0-.21,0-.42.07-.63Z" transform="translate(0 0)"/><path class="cls-7" d="M67,59.72l0-.51.88,1Z" transform="translate(0 0)"/><path class="cls-7" d="M77.31,55.49l-.41,0,.48-1.24c0,.21,0,.42,0,.63S77.33,55.3,77.31,55.49Z" transform="translate(0 0)"/><path class="cls-7" d="M58.82,65.24l-.62.4.58-1.11.06.69Z" transform="translate(0 0)"/><path class="cls-7" d="M84.75,47.44l-1.38.6Z" transform="translate(0 0)"/><path class="cls-7" d="M56.33,70.46c-.11.52-.21,1-.32,1.55Z" transform="translate(0 0)"/><path class="cls-8" d="M58.84,65.22l-.06-.69a.15.15,0,0,1,.07-.14l.71-.38Z" transform="translate(0 0)"/><path class="cls-7" d="M42.3,160l-.24,1.22h0l-.46,0Z" transform="translate(0 0)"/><path class="cls-7" d="M49,148.94l-.21,1-.41.06-.16-.12Z" transform="translate(0 0)"/><path class="cls-6" d="M90.85,47l-1.93-.13Z" transform="translate(0 0)"/><path class="cls-9" d="M58.14,79.57c0,.21,0,.42-.07.63-.16-.26-.33-.51-.49-.76l.53,0Z" transform="translate(0 0)"/><path class="cls-7" d="M118.67,92.69l-.38.07.46-.26Z" transform="translate(0 0)"/><path class="cls-7" d="M69,61.65l-.5-.74Z" transform="translate(0 0)"/><path class="cls-9" d="M69.91,102.57c0,.23,0,.47,0,.7l-.35-.17Z" transform="translate(0 0)"/><path class="cls-6" d="M119.51,36.33l-.74.44Z" transform="translate(0 0)"/><path class="cls-7" d="M65.52,139.84l.45-.52Z" transform="translate(0 0)"/><path class="cls-6" d="M125.61,122l.59-.31Z" transform="translate(0 0)"/><path class="cls-7" d="M69.58,62.43l-.39-.52Z" transform="translate(0 0)"/><path class="cls-6" d="M148.79,35.94l-.43.57Z" transform="translate(0 0)"/><path class="cls-4" d="M41.61,161.29l.46,0-.44.46-.09-.25A.17.17,0,0,1,41.61,161.29Z" transform="translate(0 0)"/><path class="cls-9" d="M59.87,82.85l.45.59Z" transform="translate(0 0)"/><path class="cls-7" d="M125.91,32.15l-.41.43Z" transform="translate(0 0)"/><path class="cls-7" d="M123.93,34l-.09.57h0l-.18-.41Z" transform="translate(0 0)"/><path class="cls-7" d="M56.59,69.76l-.15.54Z" transform="translate(0 0)"/><path class="cls-7" d="M56.41,76.68l.18.56Z" transform="translate(0 0)"/><path class="cls-7" d="M128.83,79.36l0-.26a.87.87,0,0,1,.22.05Z" transform="translate(0 0)"/><path class="cls-9" d="M57.44,79.16l.14.26Z" transform="translate(0 0)"/><path class="cls-6" d="M126.39,121.58l.3-.23Z" transform="translate(0 0)"/><path class="cls-7" d="M58.1,65.84l-.23.27Z" transform="translate(0 0)"/><path class="cls-7" d="M65.27,140.13l.25-.3Z" transform="translate(0 0)"/><path class="cls-7" d="M68.47,60.91l-.26-.29Z" transform="translate(0 0)"/><path class="cls-7" d="M63.56,142.12l.29-.3Z" transform="translate(0 0)"/><path class="cls-7" d="M49.18,148.64l-.21.29Z" transform="translate(0 0)"/><path class="cls-7" d="M124.44,33.62l-.21.19Z" transform="translate(0 0)"/><path class="cls-7" d="M41.56,165.46h.26l-.06.32Z" transform="translate(0 0)"/><path class="cls-4" d="M66.06,72.29l.84.22c-.18.87-.4,1.73-.53,2.6-.05.4-.08,1,.15,1.2,2.34,1.83,4.73,3.59,7.1,5.37l-.47.66c-2.54-1.89-5.1-3.75-7.6-5.67A1.2,1.2,0,0,1,65.32,75,11.62,11.62,0,0,0,66.06,72.29Z" transform="translate(0 0)"/><path class="cls-4" d="M71.63,88c.45-.65.87-1.32,1.37-1.94.68-.85,1.42-1.65,2.14-2.47.07-.43.15-.87.22-1.3l.49,0,.78.83L72,88.56Z" transform="translate(0 0)"/><path class="cls-8" d="M75.36,82.31c-.07.43-.15.87-.22,1.3l-2-1.27.47-.66Z" transform="translate(0 0)"/><path class="cls-4" d="M71.59,92l-.45-.76c0-.82,0-1.63,0-2.45l.71,0Z" transform="translate(0 0)"/><path class="cls-8" d="M65,58.18c.09.18.18.36.26.55l-1.8,0Z" transform="translate(0 0)"/><path class="cls-8" d="M61.57,89.08l.48-1.28Z" transform="translate(0 0)"/><path class="cls-8" d="M62,87.54c-.08-.74-.16-1.48-.23-2.22C61.88,86.06,62,86.8,62,87.54Z" transform="translate(0 0)"/><path class="cls-8" d="M60.31,62.73l.74-1.19Z" transform="translate(0 0)"/><path class="cls-8" d="M61.54,61l.82-1.07Z" transform="translate(0 0)"/><path class="cls-8" d="M71.87,88.79l-.71,0,.47-.75.33.54Z" transform="translate(0 0)"/><path class="cls-8" d="M59.57,64c.19-.35.38-.71.58-1.06C60,63.24,59.76,63.6,59.57,64Z" transform="translate(0 0)"/><path class="cls-8" d="M59.08,94.24c-.56-.34-.67-.68,0-1Z" transform="translate(0 0)"/><path class="cls-8" d="M62.83,97.65,62,96.93Z" transform="translate(0 0)"/><path class="cls-8" d="M60.33,91.8l.48-.79Z" transform="translate(0 0)"/><path class="cls-8" d="M61.31,90.05l.24-.55Z" transform="translate(0 0)"/><path class="cls-8" d="M59.89,82.66c0-.2,0-.4,0-.6C59.86,82.26,59.87,82.46,59.89,82.66Z" transform="translate(0 0)"/><path class="cls-8" d="M61.81,85.32l-.24-.54Z" transform="translate(0 0)"/><path class="cls-8" d="M59.65,81.86l-.3-.3Z" transform="translate(0 0)"/><path class="cls-8" d="M60.82,91l.23-.29Z" transform="translate(0 0)"/><path class="cls-8" d="M59.35,92.8l.23-.36Z" transform="translate(0 0)"/><path class="cls-8" d="M59.09,93.22l.24-.28Z" transform="translate(0 0)"/><path class="cls-8" d="M60.85,95.92l-.32-.23Z" transform="translate(0 0)"/><path class="cls-8" d="M63,59.27l.25-.43Z" transform="translate(0 0)"/><path class="cls-8" d="M63.34,98.13l-.3-.27Z" transform="translate(0 0)"/><path class="cls-9" d="M134.6,56.2c.07,0,.21.08.21.12q.1,3.82.2,7.67l-.66-.9c-1.11,2.52-2.1,5-4.21,6.72a14,14,0,0,1-3.38,1.88c-1,.41-.84,1.29-1.08,2s-.11,1.27-1,1.29c.21-1.08.43-2.16.64-3.23l.12-1,.66-.74c.62.56,1.22,1,1.89.2a.4.4,0,0,0,.21-.09c1.7-.48,2.3-2.08,3.32-3.25a7.07,7.07,0,0,0,.71-1.3l0-.07.41-.66.09-.3.18-.44.19-.42.07-2-.09-.47c-.23-1.91-1.83-3.5-3.25-3.23l-.3-.07,1.51-.7h0l.26,0a6.89,6.89,0,0,1,2.89,4.94c.08-1.09.05-2.18.1-3.25C134.37,58,134.51,57.11,134.6,56.2Z" transform="translate(0 0)"/><path class="cls-2" d="M129.32,78.61l-1.34.07,1.55-2c1.54-.52,2.31-1.85,3.17-3.06.65-.92,1.21-1.91,1.82-2.87a7.49,7.49,0,0,1-.72,2.39C132.4,75,130.83,76.8,129.32,78.61Z" transform="translate(0 0)"/><path class="cls-9" d="M122.5,79.45c0-.24-.1-.48-.16-.73l.12-.33.16-.21,1.63-2.93.43,0c.11.23.37.56.3.66C124.18,77.13,123.33,78.29,122.5,79.45Z" transform="translate(0 0)"/><path class="cls-10" d="M124.68,75.28l-.43,0,1.08-3.5c-.21,1.07-.43,2.15-.64,3.23Z" transform="translate(0 0)"/><path class="cls-9" d="M135.05,65.06v0Z" transform="translate(0 0)"/><path class="cls-2" d="M129.84,75.45l.24-.36.15.15-.36.23Z" transform="translate(0 0)"/><path class="cls-8" d="M126.63,79.63l.53,0-.62.24Z" transform="translate(0 0)"/><path class="cls-12" d="M99.59,141c0-1.24.09-2.31,1.64-2.86a7.78,7.78,0,0,0,4.09-3.19c.13-.21.5-.46.68-.42a4.13,4.13,0,0,0,3.87-1l.69,1.88c-.23.31-.46.61-.67.93-.72,1.08-1.42,2.17-2.13,3.25l-.84.23h-.74l-.31.16h-.67l-2.31.47-.9,0-1.56.47Z" transform="translate(0 0)"/><path class="cls-9" d="M109.62,143.41c-.26,1.56-.47,3.3-.87,5-.31,1.33-1,1.53-2.19.95l-1.09-.52a2,2,0,0,1-1.3-2.61c.31-1.46.64-2.92,1-4.38.2-.86.77-1.06,1.57-.89.4.08.82.07,1.22.15C109.48,141.42,109.65,141.65,109.62,143.41Z" transform="translate(0 0)"/><path class="cls-10" d="M107.76,139.59c.71-1.08,1.41-2.17,2.13-3.25.21-.32.44-.62.67-.93l1.2,1.92c-.38,1-.75,2-1.15,3a4.06,4.06,0,0,1-.48.69L108,140Z" transform="translate(0 0)"/><path class="cls-8" d="M102.89,140.46l2.31-.47Z" transform="translate(0 0)"/><path class="cls-8" d="M100.43,141l1.56-.47Z" transform="translate(0 0)"/><path class="cls-8" d="M107.76,139.59l.28.37-1.12-.14Z" transform="translate(0 0)"/><path class="cls-8" d="M105.87,140l.31-.16Z" transform="translate(0 0)"/><path class="cls-12" d="M49.76,152.63l2.44.76a5.58,5.58,0,0,1-1,3.47l-.45,1,0,.47-1.5,4.65a6.5,6.5,0,0,1-4.95-1.6c.3-.53.57-1.08.9-1.59C46.69,157.37,48.23,155,49.76,152.63Z" transform="translate(0 0)"/><path class="cls-10" d="M49.76,152.63c-1.53,2.37-3.07,4.74-4.59,7.12-.33.51-.6,1.06-.9,1.59l-.25,0-.45-.31-.46-.51a6.38,6.38,0,0,1,.49-1.33c1-1.55,2.07-3,3-4.61.51-.86.72-1.89,1.16-2.79a6.7,6.7,0,0,1,1-1.19h.07a.13.13,0,0,0,0,.18.09.09,0,0,0,0,.13c.06.24.13.48.2.71s.11.17.16.25Z" transform="translate(0 0)"/><path class="cls-10" d="M49.22,162.94l1.5-4.65c-.35,1.5-.69,3-1,4.5l-.17.17Z" transform="translate(0 0)"/><path class="cls-7" d="M43.57,161l.45.31Z" transform="translate(0 0)"/><path class="cls-12" d="M49.51,163l.17-.17a.34.34,0,0,1,0,.22A.14.14,0,0,1,49.51,163Z" transform="translate(0 0)"/><path class="cls-9" d="M109.63,91.53l.66.19c-.27,1-.58,2-.8,3a5.21,5.21,0,0,0,0,1.31l-1-.15.36-2.37Z" transform="translate(0 0)"/><path class="cls-4" d="M108.45,95.93l1,.15.85-.51.19-.16,1.06-.6,1,.86-3.48,1.74-.74-.48Z" transform="translate(0 0)"/><path class="cls-9" d="M110.38,91.25l.17-.24Z" transform="translate(0 0)"/><path class="cls-7" d="M110.52,95.41l-.19.16Z" transform="translate(0 0)"/><path class="cls-13" d="M113.87,100.58c-1.84-.55-2-.68-.63-2.22a53.09,53.09,0,0,1,4.61-4.1c.48-.41.93-.85,1.4-1.28a43,43,0,0,1,10.61-2A6.5,6.5,0,0,1,135,92.81c1.63,1.47,3.17,3,4.71,4.62a2.52,2.52,0,0,1,.62,1.28c.33,2.35.61,4.7.87,7.05a6.06,6.06,0,0,1-.18,1.45c-2.28,1.63-4.61,3.17-7.62,2.75a31.44,31.44,0,0,1-10.87-3.55l-2.41-1.31c.41,2.15.43,2.19-1.45,2.94-1.06.43-2.18.69-3.27,1l-1.3-2a4.71,4.71,0,0,1,.76-5c.34-.45.7-.89,1.06-1.34l1.51-1.36c-1.22-.32-1.53.4-1.93,1l-.65.44Z" transform="translate(0 0)"/><path class="cls-5" d="M115.37,109.07c1.09-.34,2.21-.6,3.27-1,1.88-.75,1.86-.79,1.45-2.94l2.41,1.31A31.44,31.44,0,0,0,133.37,110c3,.42,5.34-1.12,7.62-2.75.84.92.42,1.79-.11,2.65l-.35.33-.33.32c-.9.45-1.8.88-2.69,1.34s-1.65.88-2.48,1.33a8.8,8.8,0,0,0-4.83,3,2.66,2.66,0,0,0,1.21-.27c.51-.19,1-.35,1.55-.52-1.36,1.29-2.67,2.63-4.09,3.86a28.17,28.17,0,0,1-2.76,1.91c-.41-.06-1,0-1.19-.2a8.65,8.65,0,0,0-3.73-2.36,13.7,13.7,0,0,1-2.19-1.43c-.08-.24-.17-.48-.26-.71a12.88,12.88,0,0,0-.67-2.24C117.22,112.48,116.28,110.78,115.37,109.07Z" transform="translate(0 0)"/><path class="cls-7" d="M140.53,110.19l.35-.33Z" transform="translate(0 0)"/><path class="cls-7" d="M115.89,100.7c-.36.45-.72.89-1.06,1.34a4.71,4.71,0,0,0-.76,5l-.53.52c-.21-.43-.41-.87-.65-1.28-.54-.93-.88-2.22-1.69-2.7a7.43,7.43,0,0,0-6-.9c.1-.29.2-.57.31-.85l1.91-.28.92.09c.94.26,1.86.58,2.8.77a2,2,0,0,0,1.05-.29,4.63,4.63,0,0,0,.73-.45.23.23,0,0,0,.16.14l.07.49.72-.59,1-1,.65-.44Z" transform="translate(0 0)"/><path class="cls-9" d="M108.3,101.66l-.92-.09,1-4.64.74.48Z" transform="translate(0 0)"/><path class="cls-6" d="M113,101.83a.23.23,0,0,1-.16-.14l1-1.11.95.15-1,1Z" transform="translate(0 0)"/><path class="cls-14" d="M105.16,102.7a7.43,7.43,0,0,1,6,.9c.81.48,1.15,1.77,1.69,2.7.24.41.44.85.65,1.28l.12.41.37.6.13.4.16.24h0l.21.32,3.48,6.32,2,6.7.14.21.25,2.26c-.63,2.79-4.53,5-7.76,4.84l-.22-.2L111.11,128l-.22-.31-1-1.66-.25-.59-.5-.88-.21-.24h0c-.55-2-1.11-4.08-1.64-6.12a21.85,21.85,0,0,0-.72-2.84c-.49-1.18-1-2.45-2.52-3.09.29,1.08,1.33,1.8.56,2.85,0,.06.15.38.3.49,1.07.74,1.12,1.88,1.38,3,.41,1.77,1,3.48,1.56,5.22l.33,1,.23.49.17.37c.55,1.07,1,2.17,1.65,3.19.88,1.43.85,2-.7,2.56s-3.26,1-4.89,1.42l-1.3-.93-.28-.3-.33-.4-.42-.55-.57-.93-.2-.25-.14-.21c-.86-2-1.7-4-2.58-6-.34-.77-.77-1.49-1.16-2.23l-.52-.77-1.16-1h0l0-.26c-.18-.74-.5-1.31-1.74-1.27l1.26,1.36.1.24.32.4v.34l-.71.26,0,.28.86.2.66.53.52.55.28.39.19.51.21.71.14.19.69,1.75s-.06.07,0,.09a.54.54,0,0,0,.1.16l1.24,3,.27.48.38.66.36.57,1.47,2a2.15,2.15,0,0,0,.24.66c.91,1.18.94,1.56-.46,2.11a38,38,0,0,1-4.77,1.25l-3.88-4.48-.26-.3-1.56-2.13-.45-.52-.24-.24c-1-1.52-2-2.1-3-1.49l2.09,1.54,2.11,2.94.66,1,.32.46.21.26.3.46.49.75.54.71c-1.37,1.57-2.84,1.68-4.2.15-1.9-2.12-3.68-4.35-5.51-6.54,0,0,0-.14,0-.12l1.43-.45a22.45,22.45,0,0,1-3.27-2.58c-.61-.69-1.08-.85-1.84-.53-.07-.26-.14-.51-.22-.76.77-1.26,1.37-2.65,2.68-3.5l.8-.66h0a6.29,6.29,0,0,0,.63-1.24c.24-.94.38-1.9.58-2.85.34-1.64,1-3,2.78-3.61,2.15-.68,3.37-2.22,4.46-4.21,2-3.64,2.2-3.94,6.74-3.14.79.14,1.71-.46,2.56-.72l.49-.25.71-.53h0l.32-.22a.15.15,0,0,0,.14-.1l.54-.44Zm-16,14.47c-.12-.3-.24-.59-.37-.88a5.61,5.61,0,0,0-.29-.54c-.16.15-.5.37-.47.44a11.47,11.47,0,0,0,.65,1.19l.14.77a4.16,4.16,0,0,1-.93-.43c-.71-.55-1.13,0-1.06.49a5.5,5.5,0,0,0,.84,2.33,1.83,1.83,0,0,0,2.62,0l-.64-1.38.73.3.21-.28Zm6.7-6c-.29-.6-.56-1.21-.86-1.8-.06-.13-.3-.31-.34-.28s-.42.27-.48.46c-.27.81,1,3.93,1.76,4.2a15.83,15.83,0,0,0,2.48.52.52.52,0,0,0,.47-.24.55.55,0,0,0-.2-.49,4.94,4.94,0,0,0-.88-.37Zm12-2.49-3.11-3C105,108.29,106.24,109.36,107.88,108.7Zm-10.39-1.78a3.33,3.33,0,0,0-.59.35c.26.93.54,1.85.86,2.76,0,.07.45.1.51,0a.89.89,0,0,0,.17-.65,11.3,11.3,0,0,0-.44-1.71A3.66,3.66,0,0,0,97.49,106.92Z" transform="translate(0 0)"/><path class="cls-10" d="M81.51,125.3c.76-.32,1.23-.16,1.84.53a22.45,22.45,0,0,0,3.27,2.58l-1.43.45s-.06.09,0,.12c1.83,2.19,3.61,4.42,5.51,6.54,1.36,1.53,2.83,1.42,4.2-.15l1.46,1.4c-1.59,2.35-2.24,2.51-4.51,1.2A16.48,16.48,0,0,1,89,136.32a21.47,21.47,0,0,1-2.23-2.84q-2.48-3.15-5-6.28Z" transform="translate(0 0)"/><path class="cls-6" d="M90.24,128.77l-2.09-1.54c1-.61,2,0,3,1.49Z" transform="translate(0 0)"/><path class="cls-10" d="M93,132.73l-.66-1Z" transform="translate(0 0)"/><path class="cls-10" d="M94.33,134.66l-.49-.75Z" transform="translate(0 0)"/><path class="cls-6" d="M91.38,129l.45.52Z" transform="translate(0 0)"/><path class="cls-6" d="M93.39,131.61l.26.3Z" transform="translate(0 0)"/><path class="cls-10" d="M93.54,133.45l-.21-.26Z" transform="translate(0 0)"/><path class="cls-13" d="M70,103.34c.27-.38.54-.77.82-1.15,1.06.18.74,1,.7,1.62l-.06.45a39.22,39.22,0,0,0-3.08,4.37,69.56,69.56,0,0,0-2.83,6.51c-1.67,4.13-3.3,8.27-5,12.41-.1.24-.35.61-.48.59a1.06,1.06,0,0,1-.73-.49,18.32,18.32,0,0,1-1.19-2.82c-.33-1.11-.5-2.26-.8-3.66l-1,1.39-1.37,2,0-.25a34.75,34.75,0,0,0,1.32-4.92,2.49,2.49,0,0,1,1.51-2.26,23.48,23.48,0,0,1,4.29-1.61l-1.75,5.18.49.2a12.63,12.63,0,0,0,1-1.79c.93-2.47,1.78-5,2.7-7.45.33-.9.76-1.76,1.15-2.64Z" transform="translate(0 0)"/><path class="cls-9" d="M54.94,124.28l0,.25c0,1.1-.07,2.2,0,3.3.1,1.29.34,2.57.52,3.86h-.37c-.17-2.23-.36-4.45-.5-6.68C54.63,124.77,54.84,124.52,54.94,124.28Z" transform="translate(0 0)"/><path class="cls-14" d="M153,46.6l-.45,0-.52-.92.27-.24.47-.22,0-1c-.1-.7.18-1,.91-1.16,1.83-.28,1.82-.31,1.6-2.53,1.18,1.06,2.54,1.76,3,2.85s0,2.52-.07,3.89c-1.09-.21-1-1-.93-1.71,0-1.58.07-1.58-1.86-1.79.46,1.36.89,2.63,1.33,3.9l-.68.91-1.8-1.42h0C154,46.48,153.66,46.21,153,46.6Z" transform="translate(0 0)"/><path class="cls-13" d="M149.61,36.61l-.24-.59a1,1,0,0,1,1.56-.07c1,.88,2.64,1,3,2.45a26.21,26.21,0,0,1,.44,3.55l-2.39.32-.34-.06c0-.25.05-.51.08-.76l.22-.52C152.5,39.1,151.73,37.71,149.61,36.61Z" transform="translate(0 0)"/><path class="cls-12" d="M64,137.82h1.8l.26.37L62,142.3a10.14,10.14,0,0,0-2.2,1,21.5,21.5,0,0,0-3,2.71,18.86,18.86,0,0,0-1.67,2.48l-.76,1.39c-1.53.79-2.3.59-3.48-.9,0-.14,0-.29,0-.43s.33-.15.38-.28q1.83-4.06,3.63-8.13a1.13,1.13,0,0,0,.14-.58c-.3-1.71-.62-3.41-.94-5.11v-.51L55,133C57.3,136,59.62,138.9,64,137.82Z" transform="translate(0 0)"/><path class="cls-10" d="M55.16,148.46A18.86,18.86,0,0,1,56.83,146a21.5,21.5,0,0,1,3-2.71,10.14,10.14,0,0,1,2.2-1l-.24.5c-2,1.79-4.06,3.59-6.11,5.38A2.22,2.22,0,0,1,55.16,148.46Z" transform="translate(0 0)"/><path class="cls-10" d="M50.75,157.82l.45-1Z" transform="translate(0 0)"/><path class="cls-15" d="M125.33,71.75l-1.08,3.5-1.63,2.93-.16.21-.12.33-.42.21-.7.69,0,0-.2.22-1.28,1-1.92,1.46-.31.26-.82.58-.05,0-1,.65a.34.34,0,0,1-.19.09l-1.13.72-.44.23c-.23,0-.51-.15-.7-.07a4.62,4.62,0,0,1-4.49-.12q-3.7-2.35-7.31-4.85a11.38,11.38,0,0,1-4.11-5.08,19.82,19.82,0,0,0-1-1.75c-.05-.22-.09-.45-.14-.67s.15-.32.12-.46c-.33-1.48-.64-3-1-4.44a6.19,6.19,0,0,0-.82-1.39c-.06-.42-.11-.84-.16-1.26l-.46-.46.08-.52,0-1.2-.43-2.73-.16-1.69.12-8.68c0-.29.08-.59.11-.88a5,5,0,0,0,.5-.94,15.57,15.57,0,0,1,9.36-10.26,29.71,29.71,0,0,1,3.87-1.14c-.32,3.17-.74,6.33-.92,9.51-.21,3.72-.24,7.45-.3,11.18,0,1.06-.43,1.51-1.49,1.42-1.53-.13-3.06-.24-5-.39A23,23,0,0,0,100.93,60c2.75,2.87,5.53,5.72,8.29,8.58a6.68,6.68,0,0,1,.68,1c-.64.93-1.32.1-2,0l-1.3-1.45L106,67.3h0c-.26-.29-.47-.72-.8-.85-2-.79-3.94-1.55-5.94-2.21a6.07,6.07,0,0,0-1.86,0l0,.45,1.1.42c0,.65,1.54.45.85,1.5l-1.22,0-.8.09.54,1.15.23.25.92.62,1.34,1.35c.24.35.4.8.73,1a5.89,5.89,0,0,0,4.36.73l2-.57a5.05,5.05,0,0,0,1.73.5c1.06-.11,1.13-1.08,1.28-1.91.62.39,1.19,1,2,.42,0,.28-.11.66,0,.83a12.76,12.76,0,0,0,1.34,1.31l.58-.63h1.42a2.41,2.41,0,0,0,3,0l.82-.17.46-.46,0,0c.22-.2.44-.4.67-.59l1.47-1.91a8.28,8.28,0,0,0,1.4-.88c.76-.72.6-1.15-.43-1.35-.61-.13-1.24-.18-2.09-.3l2.08-1.62a2.84,2.84,0,0,0-3.16.33l-1.71.41-.77.4,0,0-.66.52,0,0-.51,0c1-1.39,2-2.77,2.95-4.15s1.75-2.48,2.63-3.71l-.27-.38c-.83.07-1.68.06-2.5.2-2.76.47-3,.24-3.06-2.49-.06-3.44-.09-6.88-.31-10.31-.18-3-.61-6-.94-9l4,.88.67.3.32.17,3.35,2.19.17.17,1,1,.34.48c.09.17.17.34.26.5a2.85,2.85,0,0,0,.23.26l.28.24a.39.39,0,0,0,.08.14l.67,1.08a.46.46,0,0,0,.09.15l.62,1.08h0a25.86,25.86,0,0,1,1.28,9.72c-.17,2.07-.39,4.13-.59,6.19l-.5,1.35-.13,1.68c-.17.44-.51.89-.47,1.3a17.37,17.37,0,0,0,.55,2.43l.17.44.66.79.81.2-.41,1.1a.4.4,0,0,1-.21.09,1.48,1.48,0,0,1-1.49-1.76c-.79.75-1.68,1.18-1.06,2.3Zm-11.4,4.44c-2,2.37-3.92,1.71-5.72-.06-.49.87-.44,1.46.27,2,2.47,1.81,1.91,2,4.69.16C113.77,77.86,114.69,77.46,113.93,76.19ZM109,81.37a2.75,2.75,0,0,0,.75,0c.34-.13.66-.3,1-.46a5.41,5.41,0,0,0-1-.47,11.25,11.25,0,0,0-1.54-.26c-.75-.11-1.5-.22-2.25-.27-.17,0-.36.24-.54.37.17.19.31.52.52.56C107.08,81.06,108.19,81.23,109,81.37Zm6.85-.59c-.22-.31-.37-.75-.6-.79a6,6,0,0,0-3.6.78l.09.54Zm-3.77,1.64a3.14,3.14,0,0,0-1-.27,12.16,12.16,0,0,0-1.46.29c.1.23.19.66.32.67a8.26,8.26,0,0,0,1.72-.07C111.86,83,111.94,82.73,112.12,82.42Z" transform="translate(0 0)"/><path class="cls-2" d="M109.63,91.53c-.27.68-.55,1.36-.82,2-1.19-.52-2.44-1-3.56-1.58-3.16-1.77-5.29-4.22-5-8.14h.24c1.68,1.14,3.34,2.3,5,3.4a3,3,0,0,0,1.06.2l.07-.32-1.59-1,.09-.27h3l.19.35c1.41,1.14,3,.58,4.78.39C111.77,88.25,109.63,89.18,109.63,91.53Z" transform="translate(0 0)"/><path class="cls-10" d="M96.26,73.06a19.82,19.82,0,0,1,1,1.75,11.38,11.38,0,0,0,4.11,5.08q3.61,2.49,7.31,4.85a4.62,4.62,0,0,0,4.49.12c.19-.08.47,0,.7.07l-.21.23-.28.2-.29.17-.73.25-.68.12-.78.2-.49,0-.53-.18-.89-.13-.79,0h0l-.06-.44-.26-.21-.86-.4c-.31-.25-.62-.5-.94-.74-2.24-1.71-4.59-3.29-6.69-5.16A9,9,0,0,1,96.26,73.06Z" transform="translate(0 0)"/><path class="cls-10" d="M117.78,82.36l1.92-1.46Z" transform="translate(0 0)"/><path class="cls-10" d="M114.27,84.7,115.4,84Z" transform="translate(0 0)"/><path class="cls-10" d="M115.59,83.89l1-.65Z" transform="translate(0 0)"/><path class="cls-10" d="M121.22,79.62l.7-.69Z" transform="translate(0 0)"/><path class="cls-10" d="M116.65,83.2l.82-.58Z" transform="translate(0 0)"/><path class="cls-7" d="M112.32,85.78l.73-.25Z" transform="translate(0 0)"/><path class="cls-7" d="M110.86,86.1l.78-.2Z" transform="translate(0 0)"/><path class="cls-4" d="M108.16,85.8l.79,0-.6.38Z" transform="translate(0 0)"/><path class="cls-7" d="M109.84,85.9l.53.18Z" transform="translate(0 0)"/><path class="cls-7" d="M113.34,85.36l.28-.2Z" transform="translate(0 0)"/><path class="cls-10" d="M121,79.88l.2-.22Z" transform="translate(0 0)"/><path class="cls-11" d="M114.79,36.34c.33,3,.76,6,.94,9,.22,3.43.25,6.87.31,10.31,0,2.73.3,3,3.06,2.49.82-.14,1.67-.13,2.5-.2l.27.38c-.88,1.23-1.75,2.47-2.63,3.71s-2,2.76-2.95,4.15l.27.23-.19.18h-.5l-.34.33,0,.45h0l-.44,0-.33.33,0,.45h0l-.44,0-.36.52.13.29,0,0-.28-.13-.55.54.13.3,0,0-.36-.1-.21.24-.49.46c-.82.58-1.39,0-2-.42l-.45-.31a6.68,6.68,0,0,0-.68-1c-2.76-2.86-5.54-5.71-8.29-8.58a23,23,0,0,1-1.48-1.89c1.93.15,3.46.26,5,.39,1.06.09,1.47-.36,1.49-1.42.06-3.73.09-7.46.3-11.18.18-3.18.6-6.34.92-9.51l.26-.28.76-.06,5.4,0,.74.1Z" transform="translate(0 0)"/><path class="cls-13" d="M139.46,39.23,138,37l-.25-.32a.28.28,0,0,0-.13-.15c.43-.15.89-.47,1.29-.42,2.29.31,4.57.73,6.86,1.07a15.92,15.92,0,0,0,1.83,0c.53.64,1.06,1.29,1.6,1.93a1.85,1.85,0,0,1,0,2.72l-.29,0a3,3,0,0,0-.68-.22,25.82,25.82,0,0,0-7.6.27l-.4-.39Z" transform="translate(0 0)"/><path class="cls-9" d="M149.23,41.88a1.85,1.85,0,0,0,0-2.72c-.54-.64-1.07-1.29-1.6-1.93l2-.62c2.12,1.1,2.89,2.49,2.38,4.32l-.42,0a4,4,0,0,0-1.45-3.27,4.26,4.26,0,0,0-1.11-.47l-.24.33a3.84,3.84,0,0,1,1.29,4.9.68.68,0,0,0,0,.25C149.33,42.88,149.16,42.5,149.23,41.88Z" transform="translate(0 0)"/><path class="cls-5" d="M140.66,42a25.82,25.82,0,0,1,7.6-.27,3,3,0,0,1,.68.22c-.07.23-.13.45-.2.69-2-1-3.86-.57-5.71.32a14.52,14.52,0,0,1-2.29.72l-.12-1Z" transform="translate(0 0)"/><path class="cls-9" d="M140.62,42.65l.12,1,.06.9c-1,.62-.41,1.63-.58,2.46-.22,1-.48,2.08-.72,3.12a21.38,21.38,0,0,0-.3-9.9c.09-.34.17-.68.26-1,.27.79.54,1.57.8,2.36Z" transform="translate(0 0)"/><path class="cls-2" d="M150.05,42.7a.68.68,0,0,1,0-.25,3.84,3.84,0,0,0-1.29-4.9l.24-.33a4.26,4.26,0,0,1,1.11.47A4,4,0,0,1,151.57,41l-.24.48-.21.74Z" transform="translate(0 0)"/><path class="cls-5" d="M148.84,44.51l-.51-.15c-.17-.66-.1-1,.76-.86a9,9,0,0,0,2.19-.25l.45,1.51Z" transform="translate(0 0)"/><path class="cls-10" d="M152.05,45.65l.52.92-1.64-.45c0-.15.09-.29.14-.43Z" transform="translate(0 0)"/><path class="cls-6" d="M151.12,42.18l.21-.74h.44c0,.25-.05.51-.08.76Z" transform="translate(0 0)"/><path class="cls-10" d="M152.79,45.19l-.47.22Z" transform="translate(0 0)"/><path class="cls-10" d="M125.81,127.68c-.23.39-.36,1-.7,1.15-3.46,1.7-6.22,4.32-9,6.9-1.06,1-2.1,1.49-3.49.82l-.43-.22-.3-.31-.65-1.12a5.1,5.1,0,0,1,1.35-4.19,10,10,0,0,0,6.51-2.08l.29,1.88.85-.41Z" transform="translate(0 0)"/><path class="cls-10" d="M104.58,132.84c1.63-.46,3.31-.82,4.89-1.42s1.58-1.13.7-2.56c-.63-1-1.1-2.12-1.65-3.19.29.39.59.77.87,1.16l2.33,3.24a5.78,5.78,0,0,1-.47,1c-.37.53-.81,1-1.23,1.51-1.65,1-3.36,1.73-5.31.8C104.67,133.23,104.62,133,104.58,132.84Z" transform="translate(0 0)"/><path class="cls-9" d="M110,132.62c.42-.5.86-1,1.23-1.51a5.78,5.78,0,0,0,.47-1l.68-.38.22.2,0,.82a5.1,5.1,0,0,0-1.35,4.19c-.18-.47-.57-1-.48-1.41C110.92,132.72,110.56,132.66,110,132.62Z" transform="translate(0 0)"/><path class="cls-9" d="M104.58,132.84c0,.19.09.39.13.58a2.28,2.28,0,0,0,0,.26l-2.17-1.31-1.47-2-.12-.59.41-.55.14.21.2.25.57.93.42.55.33.4.28.3Z" transform="translate(0 0)"/><path class="cls-9" d="M104.39,134.87l.3-.72Z" transform="translate(0 0)"/><path class="cls-9" d="M111.89,136l.3.31Z" transform="translate(0 0)"/><path class="cls-3" d="M139.2,40.24a21.38,21.38,0,0,1,.3,9.9l-.5.66-.41.5-.58.23-1,.29,1.46-2.51-.42-.23a9.19,9.19,0,0,0-3,5.45l-.4,1.26c0,.14,0,.28,0,.42-.09.9-.23,1.81-.27,2.72-.05,1.07,0,2.16-.1,3.25a6.89,6.89,0,0,0-2.89-4.94l-.26,0h-2a10.16,10.16,0,0,1,0-1.11,25.23,25.23,0,0,0-.67-9.44,6.39,6.39,0,0,0-.76-1.3.49.49,0,0,0,0-.12,6,6,0,0,0-2.14-3.7l0-.06-.75-.79h0l-.25-.35-.54-.46-.68-.76A.25.25,0,0,0,123,39l-.58-.24h0l-.25-.25h0l-.51-.48h0l-.56-.28v0c-.14-.23-.27-.46-.47-.81,2.21-.32,4.29-.7,5.88-2.21l-.14-.36c-.71.21-1.43.45-2.15.62-.11,0-.29-.21-.43-.33h0c.68-.49,1.35-1,2-1.47.42-.29.86-.55,1.29-.81a.2.2,0,0,0,.13,0l1.58.68,4.35,1.22A13.31,13.31,0,0,1,139.2,40.24Z" transform="translate(0 0)"/><path class="cls-8" d="M135,54.53a9.19,9.19,0,0,1,3-5.45l.42.23L137,51.82l1-.29-2.54,3.19Z" transform="translate(0 0)"/><path class="cls-9" d="M135,54.53l.43.19-.83,1.07C134.77,55.37,134.91,55,135,54.53Z" transform="translate(0 0)"/><path class="cls-8" d="M138.59,51.3l.41-.5Z" transform="translate(0 0)"/><path class="cls-9" d="M133,115.4c-.52.17-1,.33-1.55.52a2.66,2.66,0,0,1-1.21.27,8.8,8.8,0,0,1,4.83-3Z" transform="translate(0 0)"/><path class="cls-10" d="M54.14,134.42c.32,1.7.64,3.4.94,5.11a1.13,1.13,0,0,1-.14.58q-1.8,4.06-3.63,8.13c-.05.13-.25.19-.38.28l-.44-.11c-.05-.23-.1-.47-.16-.7l.12-1c.58-1.56,1.26-3.09,1.72-4.68C52.9,139.53,53.49,137,54.14,134.42Z" transform="translate(0 0)"/><path class="cls-8" d="M48.91,150.88a.09.09,0,0,1,0-.13c.28-.56.55-1.13.9-1.83.93.58.62,1.47.64,2.37Z" transform="translate(0 0)"/><path class="cls-8" d="M48.85,150.57h-.07l-.44-.56.41-.06Z" transform="translate(0 0)"/><path class="cls-8" d="M50.49,148.41l.44.11c0,.14,0,.29,0,.43Z" transform="translate(0 0)"/><path class="cls-7" d="M49.27,151.84c-.05-.08-.11-.16-.16-.25C49.16,151.68,49.22,151.76,49.27,151.84Z" transform="translate(0 0)"/><path class="cls-5" d="M55.52,131.69c-.18-1.29-.42-2.57-.52-3.86-.09-1.1,0-2.2,0-3.3l1.37-2,1-1.39c.3,1.4.47,2.55.8,3.66a18.32,18.32,0,0,0,1.19,2.82,1.06,1.06,0,0,0,.73.49c.13,0,.38-.35.48-.59,1.66-4.14,3.29-8.28,5-12.41a69.56,69.56,0,0,1,2.83-6.51,39.22,39.22,0,0,1,3.08-4.37c.44,1.31.47,2.83,1.91,3.6a.2.2,0,0,0,.06.15l.06,2.7,0,.76.15.26,1,1.22,6.78,9.14L80.75,125v1l-.25.83c-1.85,1.09-3.87,2-5.13,3.84a8.13,8.13,0,0,0-1.44,1.43,7,7,0,0,1-5.69,3.63,10.46,10.46,0,0,0-2.2.66l-1.75.65c-3.92.72-6.26-1.56-8.33-4.36l-.33-.49Z" transform="translate(0 0)"/><path class="cls-13" d="M66,136.39a10.46,10.46,0,0,1,2.2-.66,7,7,0,0,0,5.69-3.63,8.13,8.13,0,0,1,1.44-1.43l.21.27c-1,1.24-2,2.46-2.94,3.72a3.6,3.6,0,0,1-3.41,1.73A30.86,30.86,0,0,0,66,136.39Z" transform="translate(0 0)"/><path class="cls-14" d="M125.81,127.68l-5.57,2.42-.85.41-.29-1.88c.84-1.12,2.09-2,2.08-3.61a14.6,14.6,0,0,0,.12-1.46c0-.69-.09-1.38-.15-2.17-.83-.37-1-1.3-1.15-2.27h.48a.26.26,0,0,0,.15.07l.26.23,0,0,1.78.7,2.1,2.36.33.59h0l.87,3.38c0,.18.07.36.11.54l-.06.4A2.85,2.85,0,0,0,125.81,127.68Z" transform="translate(0 0)"/><path class="cls-3" d="M75.36,82.31l-1.74-.63c-2.37-1.78-4.76-3.54-7.1-5.37-.23-.18-.2-.8-.15-1.2.13-.87.35-1.73.53-2.6.08-.09.22-.16.24-.26.64-3.78,1.39-7.56,0-11.34.4.33.83.63,1.21,1s.64.67,1,1l.61,1h0c.62,1.18,1.17,2.41,1.87,3.54,1.47,2.41,2.73,5,4.61,7.08a65.42,65.42,0,0,0,7.83,6.82c2.46,2,5.07,3.7,7.61,5.54l.08,0H92l.33.24.2.21c.29.28.55.59.86.84,1.34,1.11,2.87,2,3.53,3.79.76,2,1.56,4,2.25,6,.16.45.66,1.4-.62,1.33v0l-.25-.32-.37-.64-.12-.27c.12-1.81-.92-3.24-1.57-4.8-.78-1.87-2.41-2.77-4.15-3.54-1.53-1.18-3-2.42-4.62-3.54a29.89,29.89,0,0,0-3-1.71l-.68-.2c-1.69-.56-3.35-1.18-5.06-1.65a19.14,19.14,0,0,0-2.85-.36Z" transform="translate(0 0)"/><path class="cls-9" d="M55.63,132.19l.33.49Z" transform="translate(0 0)"/><path class="cls-5" d="M71.87,88.79l.09-.23c1.56-1.8,3.11-3.6,4.67-5.39l.94.19,4.67,1,1.54,1c-.14.07-.28.2-.42.2-1.7,0-3.41,0-5.1.13a4.3,4.3,0,0,0-2.14,1,12.26,12.26,0,0,0-3.62,5.58c-.84,2.57-.7,5,1.17,7.16a5.38,5.38,0,0,0-.19,1.18c0,.75.18,1.5.27,2.25l.09.7-.15.55-.32,2.38-.21.16c-.08-.27-.16-.54-.23-.82l-1-4v-.38a2.89,2.89,0,0,0-.07-.84,12.91,12.91,0,0,1-.2-8,1.73,1.73,0,0,0,0-.59C71.68,90.91,71.78,89.85,71.87,88.79Z" transform="translate(0 0)"/><path class="cls-10" d="M154.27,47.1l1.8,1.42c-.63.55-1.1.63-1.33-.36A5.53,5.53,0,0,0,154.27,47.1Z" transform="translate(0 0)"/><path class="cls-10" d="M153,46.6c.64-.39,1-.12,1.25.5Z" transform="translate(0 0)"/><path class="cls-3" d="M100.26,83.84c-.3,3.92,1.83,6.37,5,8.14,1.12.63,2.37,1.06,3.56,1.58l-.36,2.37c0,.33,0,.67,0,1l-1,4.64-1.91.28a9.22,9.22,0,0,1-1.24.74,5.32,5.32,0,0,1-1.15.22l1.53-2.4a.49.49,0,0,0,.13-.2l.51-1c1-.68.75-1.69,1-2.58l-.42-.18-1.33,2.51-.47.76c-.35-.21-.83-.35-1-.66-.46-.82-.81-.75-1.3,0s-.64,1.39-1.62,1.15l0-.73c.48-1.14-.16-2.09-.45-3.13-1-3.6-2.43-6.9-5.79-9a5.66,5.66,0,0,1-.66-.55l-.07-1.92a23,23,0,0,0-.6-2.88c-.39-1.13-1-2.19-1.46-3.28Q89.81,76,88.57,73.32l-.41.07a4.77,4.77,0,0,0,.09,1.37c.3.93.72,1.81,1.1,2.71a4.06,4.06,0,0,1-1-.7c-1.09-1.45-2.23-2.81-4.12-3.23-1.54-.79-2.65-2.36-4.45-2.69l-.23.32,5.67,4.59,2,2.2,4.39,6.48a.16.16,0,0,0,0,.16v.87a10.94,10.94,0,0,1-1.07-.61c-2.9-2.2-5.72-4.5-8.69-6.58-5-3.52-8.11-8.45-10.74-13.81l.57-.21c2-.06,3.12-1.4,3.95-3.05.08-.2.16-.4.23-.61l0-.3.46-1.17c0-.2.05-.39.07-.59.31-1,.62-2,.92-3,0-.19,0-.39,0-.59.21-.2.52-.36.63-.61A11.43,11.43,0,0,1,85.37,48c.3-.11.59-.27.89-.41,1.92.08,3.85.09,5.77.27,1.14.11.63,1.06.61,1.72-.09,2.29-.19,4.58-.28,6.87l-.27.75-.38,0-.29-.2L91,56.82c-.67-1.19-1.29-.57-1.91,0l-2,3.25L87,60.4l-.24,1,.12,1.73,2.26,4.2c.29.55-1.15,1.23.12,1.71L91,72.39l0,.07.6,1A40.49,40.49,0,0,0,94,77C96.06,79.31,98.18,81.56,100.26,83.84Zm-2.89,4.4a3.52,3.52,0,0,0,.13.82c1.15,2.55,3.5,3.78,5.75,5.11a8.32,8.32,0,0,0,1.26.52l.17-.26-2.19-2a19.82,19.82,0,0,1-2.24-2.35c-1.3-2-2.45-4-3.67-6L96,82.87l-.42.21.34,1,.78,2.63.35.59Z" transform="translate(0 0)"/><path class="cls-8" d="M71.65,64.26l-.57.21c2.63,5.36,5.74,10.29,10.74,13.81,3,2.08,5.79,4.38,8.69,6.58a10.94,10.94,0,0,0,1.07.61V84.6c1.22.61.53,1.46.27,2.26-2.54-1.84-5.15-3.59-7.61-5.54a65.42,65.42,0,0,1-7.83-6.82c-1.88-2-3.14-4.67-4.61-7.08-.7-1.13-1.25-2.36-1.87-3.54Z" transform="translate(0 0)"/><path class="cls-8" d="M69.93,63.89l-.61-1h.35C69.76,63.23,69.84,63.56,69.93,63.89Z" transform="translate(0 0)"/><path class="cls-9" d="M76.32,59.13l-.46,1.17Z" transform="translate(0 0)"/><path class="cls-9" d="M75.83,60.6c-.07.21-.15.41-.23.61C75.68,61,75.76,60.81,75.83,60.6Z" transform="translate(0 0)"/><path class="cls-6" d="M120,119.12c.12,1,.32,1.9,1.15,2.27.06.79.14,1.48.15,2.17a14.6,14.6,0,0,1-.12,1.46l-.8,0c-.08-.75-.16-1.51-.25-2.26l-.14-.21c-.66-2.23-1.31-4.46-2-6.7l.72.59c.09.23.18.47.26.71.2.68.39,1.35.6,2.08Z" transform="translate(0 0)"/><path class="cls-6" d="M122.69,120.14l-1.78-.7C121.64,119.32,122.34,119.29,122.69,120.14Z" transform="translate(0 0)"/><path class="cls-6" d="M120.48,119.12H120l.18-.41Z" transform="translate(0 0)"/><path class="cls-6" d="M125.12,123.09l-.33-.59Z" transform="translate(0 0)"/><path class="cls-6" d="M120.89,119.42l-.26-.23Z" transform="translate(0 0)"/><path class="cls-6" d="M92.36,56.43c.09-2.29.19-4.58.28-6.87h.67l-.12,8.68-.6-.56Z" transform="translate(0 0)"/><path class="cls-8" d="M128.89,33l-1.58-.68Z" transform="translate(0 0)"/><path class="cls-7" d="M137.77,36.69,138,37Z" transform="translate(0 0)"/><path class="cls-10" d="M126.1,127c0-.18-.07-.36-.11-.54C126,126.66,126.06,126.84,126.1,127Z" transform="translate(0 0)"/><path class="cls-9" d="M80.5,126.83l.25-.83c.37.43.48.8-.21,1A.47.47,0,0,1,80.5,126.83Z" transform="translate(0 0)"/><path class="cls-8" d="M123.21,39.12l.68.76-.6.17-.17-.17Z" transform="translate(0 0)"/><path class="cls-8" d="M121.71,38l.51.48Z" transform="translate(0 0)"/><path class="cls-8" d="M121.15,37.71l.56.28Z" transform="translate(0 0)"/><path class="cls-8" d="M122.46,38.72,123,39Z" transform="translate(0 0)"/><path class="cls-8" d="M122.21,38.47l.25.25Z" transform="translate(0 0)"/><path class="cls-6" d="M119.77,37.69l-.32-.17Z" transform="translate(0 0)"/><path class="cls-6" d="M113.57,36l-5.4,0Z" transform="translate(0 0)"/><path class="cls-9" d="M80.75,125l.61-2.94L74.58,113l.66-.28c-.21-.44-.52-.8-.5-1.14.07-1.68.24-3.35.37-5,.26-1,.51-1.94.77-2.91.82-1.26,1.67-2.52,2.47-3.8A6.25,6.25,0,0,1,81.81,97c2.09-.66,4.2-1.27,6.28-2,.45-.15,1.7-.07.56-1.1L90,93.91h.09l.08,0c.19.6.48.91,1,.32l.69.38.56.24.77.44-.84,1.09A8.16,8.16,0,0,0,90,95.86a27.47,27.47,0,0,0-4.21.73c-3.6.82-6.67,2.41-8.26,6-.45,1-.89,2.07-1.33,3.1a7.67,7.67,0,0,0,0,7.7,77.29,77.29,0,0,0,5.61,7.36c.43.55.9.48,1.35,0s1-1.12,1.53-1.68l.06,1.28h0L84,121c-1.31.85-1.91,2.24-2.68,3.5Z" transform="translate(0 0)"/><path class="cls-9" d="M71.91,101.78l1,4c.07.28.15.55.23.82s.11.81.16,1.21c-1.44-.77-1.47-2.29-1.91-3.6l.06-.45c.19-.24.5-.46.53-.72A5.29,5.29,0,0,0,71.91,101.78Z" transform="translate(0 0)"/><path class="cls-8" d="M82.24,84.36l-4.67-1-.94-.19-.78-.83a19.14,19.14,0,0,1,2.85.36c1.71.47,3.37,1.09,5.06,1.65Z" transform="translate(0 0)"/><path class="cls-14" d="M133.16,63.71l-.19.42-.18.44-.09.3c-.14.22-.28.44-.41.66l0,.07h-.47c0-.16,0-.33,0-.49h.05l0-.73-.74-1.5-.3-.68-.31.71c.2,1.05,1,2.15-.25,3.08l-1.22.32-.18-2.9c.48-.95.91-1.93,1.46-2.83.14-.24.65-.25,1-.36a4.59,4.59,0,0,0,.81.66,5.61,5.61,0,0,0,1,.34l.09.47C133.21,62.36,133.19,63,133.16,63.71Z" transform="translate(0 0)"/><path class="cls-8" d="M127.62,45.36a6.39,6.39,0,0,1,.76,1.3,25.23,25.23,0,0,1,.67,9.44,10.16,10.16,0,0,0,0,1.11h2l-1.51.7c-.09.18-.17.35-.25.53h0c-.89.1-1-.44-1-1.15,0-2.41.11-4.82,0-7.22A44.66,44.66,0,0,0,127.62,45.36Z" transform="translate(0 0)"/><path class="cls-10" d="M133.14,61.21a5.61,5.61,0,0,1-1-.34,4.59,4.59,0,0,1-.81-.66v-.93c-.45.09-1.11,0-1.31.29a29.5,29.5,0,0,0-1.64,2.84h-.26a6.58,6.58,0,0,1,1.22-4h0l.55-.46C131.31,57.71,132.91,59.3,133.14,61.21Z" transform="translate(0 0)"/><path class="cls-10" d="M131.77,65.59h.47a7.07,7.07,0,0,1-.71,1.3c-1,1.17-1.62,2.77-3.32,3.25.14-.36.28-.73.41-1.1s.68-.73.69-1.1c0-.76.48-.89,1-1.07.14,0,.39.14.42.1.29-.44.56-.91.84-1.37Z" transform="translate(0 0)"/><path class="cls-10" d="M125.45,70.78c-.62-1.12.27-1.55,1.06-2.3A1.48,1.48,0,0,0,128,70.24c-.67.84-1.27.36-1.89-.2Z" transform="translate(0 0)"/><path class="cls-10" d="M133.16,63.71c0-.67.05-1.35.07-2Z" transform="translate(0 0)"/><path class="cls-10" d="M132.29,65.53c.13-.22.27-.44.41-.66C132.56,65.09,132.42,65.31,132.29,65.53Z" transform="translate(0 0)"/><path class="cls-6" d="M129.89,58l-.55.46c.08-.18.16-.35.25-.53Z" transform="translate(0 0)"/><path class="cls-10" d="M132.79,64.57l.18-.44Z" transform="translate(0 0)"/><path class="cls-8" d="M131.08,57.21l.26,0Z" transform="translate(0 0)"/><path class="cls-10" d="M122.46,78.39l.16-.21Z" transform="translate(0 0)"/><path class="cls-9" d="M118.74,116.47l-.72-.59-3.48-6.32-.21-.32h0l-.16-.24c0-.13-.09-.26-.13-.4s-.25-.4-.37-.6l-.12-.41.53-.52,1.3,2c.91,1.71,1.85,3.41,2.7,5.16A12.88,12.88,0,0,1,118.74,116.47Z" transform="translate(0 0)"/><path class="cls-6" d="M115.89,100.7l-.42-.41c.4-.55.71-1.27,1.93-1Z" transform="translate(0 0)"/><path class="cls-9" d="M103.08,102.81a5.32,5.32,0,0,0,1.15-.22,9.22,9.22,0,0,0,1.24-.74c-.11.28-.21.56-.31.85l-.44.37-.54.44a.15.15,0,0,1-.14.1l-.32.22h-.44l-.76-.35Z" transform="translate(0 0)"/><path class="cls-5" d="M113,101.83l.79-.1-.72.59Z" transform="translate(0 0)"/><path class="cls-7" d="M84.77,120.38l-.06-1.28-.15-.65c.23-1,.45-1.9.7-2.85.44-1.67,1.12-3,3-3.69a5.85,5.85,0,0,0,4.08-3.86A8.38,8.38,0,0,1,94,105.61a3.17,3.17,0,0,1,3.16-1.46,11.31,11.31,0,0,0,2.33.1c.32,0,.63-.29.94-.45l2,.65.12.16c-.85.26-1.77.86-2.56.72-4.54-.8-4.75-.5-6.74,3.14-1.09,2-2.31,3.53-4.46,4.21-1.8.57-2.44,2-2.78,3.61-.2.95-.34,1.91-.58,2.85A6.29,6.29,0,0,1,84.77,120.38Z" transform="translate(0 0)"/><path class="cls-6" d="M107.79,123.81c-.53-1.74-1.15-3.45-1.56-5.22-.26-1.13-.31-2.27-1.38-3-.15-.11-.35-.43-.3-.49.77-1-.27-1.77-.56-2.85,1.55.64,2,1.91,2.52,3.09a21.85,21.85,0,0,1,.72,2.84c.53,2,1.09,4.08,1.64,6.12Z" transform="translate(0 0)"/><path class="cls-7" d="M101.34,129.27c-.14.18-.28.36-.41.55a.28.28,0,0,0-.24,0l-.38-.66-.27-.48-1.24-3,0-.25-.69-1.75a.33.33,0,0,0-.14-.19l-.21-.71.24-.35-.43-.16-.28-.39c-.18-.18-.35-.37-.52-.55l-.66-.53-.2-.74v-.34l.06-.47,1.16,1,.52.77c.39.74.82,1.46,1.16,2.23C99.64,125.27,100.48,127.27,101.34,129.27Z" transform="translate(0 0)"/><path class="cls-7" d="M120.38,125.05l.8,0c0,1.61-1.24,2.49-2.08,3.61a10,10,0,0,1-6.51,2.08l0-.82C115.85,130,119.75,127.84,120.38,125.05Z" transform="translate(0 0)"/><path class="cls-10" d="M89.62,119.2l.64,1.38a1.83,1.83,0,0,1-2.62,0,5.5,5.5,0,0,1-.84-2.33c-.07-.5.35-1,1.06-.49a4.16,4.16,0,0,0,.93.43Z" transform="translate(0 0)"/><path class="cls-10" d="M97.78,113.19a4.94,4.94,0,0,1,.88.37.55.55,0,0,1,.2.49.52.52,0,0,1-.47.24,15.83,15.83,0,0,1-2.48-.52c-.77-.27-2-3.39-1.76-4.2.06-.19.29-.34.48-.46s.28.15.34.28c.3.59.57,1.2.86,1.8-.16.23-.48.47-.46.68A2.18,2.18,0,0,0,97.78,113.19Z" transform="translate(0 0)"/><path class="cls-7" d="M107.79,123.81l1.08.48h0l.21.24.5.88c.08.2.16.4.25.59l1,1.66.22.31,1.29,1.71-.68.38-2.33-3.24c-.28-.39-.58-.77-.87-1.16-.06-.12-.11-.25-.17-.37s-.16-.32-.23-.49Z" transform="translate(0 0)"/><path class="cls-10" d="M107.88,108.7c-1.64.66-2.91-.41-3.11-3Z" transform="translate(0 0)"/><path class="cls-10" d="M97.49,106.92a3.66,3.66,0,0,1,.51.77,11.3,11.3,0,0,1,.44,1.71.89.89,0,0,1-.17.65c-.06.08-.49,0-.51,0-.32-.91-.6-1.83-.86-2.76A3.33,3.33,0,0,1,97.49,106.92Z" transform="translate(0 0)"/><path class="cls-6" d="M97.78,113.19a2.18,2.18,0,0,1-2.41-1.32c0-.21.3-.45.46-.68Z" transform="translate(0 0)"/><path class="cls-6" d="M89.62,119.2l-.83-1c-.05-.25-.09-.51-.14-.77l.48-.21,1.43,2-.21.28Z" transform="translate(0 0)"/><path class="cls-6" d="M95.44,119.13l-1.26-1.36c1.24,0,1.56.53,1.74,1.27Z" transform="translate(0 0)"/><path class="cls-10" d="M89.13,117.17l-.48.21a11.47,11.47,0,0,1-.65-1.19c0-.07.31-.29.47-.44a5.61,5.61,0,0,1,.29.54C88.89,116.58,89,116.87,89.13,117.17Z" transform="translate(0 0)"/><path class="cls-6" d="M95.86,120.11l.2.74-.86-.2,0-.28Z" transform="translate(0 0)"/><path class="cls-7" d="M84,121l.8-.66Z" transform="translate(0 0)"/><path class="cls-6" d="M97.6,121.06l-.52-.77Z" transform="translate(0 0)"/><path class="cls-7" d="M103.28,103.82h.44l-.71.53-.12-.15Z" transform="translate(0 0)"/><path class="cls-6" d="M97.52,122.32l.43.16-.24.35Z" transform="translate(0 0)"/><path class="cls-6" d="M96.72,121.38c.17.18.34.37.52.55C97.06,121.75,96.89,121.56,96.72,121.38Z" transform="translate(0 0)"/><path class="cls-7" d="M104.18,103.51l.54-.44Z" transform="translate(0 0)"/><path class="cls-7" d="M102.67,131.21l-.42-.55Z" transform="translate(0 0)"/><path class="cls-7" d="M113.66,108c.12.2.24.4.37.6C113.9,108.39,113.78,108.19,113.66,108Z" transform="translate(0 0)"/><path class="cls-6" d="M109.84,126c-.09-.19-.17-.39-.25-.59C109.67,125.62,109.75,125.82,109.84,126Z" transform="translate(0 0)"/><path class="cls-10" d="M100.69,129.84a.28.28,0,0,1,.24,0l.12.59Z" transform="translate(0 0)"/><path class="cls-7" d="M103,104.36l-.49.25-.12-.16.49-.24Z" transform="translate(0 0)"/><path class="cls-6" d="M95.92,119.3l-.06.47-.32-.4.36-.07Z" transform="translate(0 0)"/><path class="cls-10" d="M100,128.7l.27.48Z" transform="translate(0 0)"/><path class="cls-10" d="M108.12,124.81c.07.17.15.33.23.49C108.27,125.14,108.19,125,108.12,124.81Z" transform="translate(0 0)"/><path class="cls-6" d="M98.75,125.48l0,.25a.54.54,0,0,1-.1-.16S98.73,125.51,98.75,125.48Z" transform="translate(0 0)"/><path class="cls-6" d="M109.09,124.54l-.21-.24Z" transform="translate(0 0)"/><path class="cls-6" d="M111.11,128l-.22-.31Z" transform="translate(0 0)"/><path class="cls-6" d="M97.92,123.54a.33.33,0,0,1,.14.19Z" transform="translate(0 0)"/><path class="cls-7" d="M101.68,129.73l-.2-.25Z" transform="translate(0 0)"/><path class="cls-13" d="M120,122.58l.14.21Z" transform="translate(0 0)"/><path class="cls-7" d="M103.28,131.91l-.28-.3Z" transform="translate(0 0)"/><path class="cls-7" d="M95.9,119.3l-.36.07-.1-.24.48-.09A2.11,2.11,0,0,0,95.9,119.3Z" transform="translate(0 0)"/><path class="cls-7" d="M103.72,103.83l.32-.22Z" transform="translate(0 0)"/><path class="cls-7" d="M114.16,109l.16.24Z" transform="translate(0 0)"/><path class="cls-7" d="M114.33,109.24l.21.32Z" transform="translate(0 0)"/><path class="cls-7" d="M151.77,41.45h-.44l.24-.48.42,0C151.92,41.1,151.84,41.27,151.77,41.45Z" transform="translate(0 0)"/><path class="cls-4" d="M116.37,66.59l.19-.19.24-.26,0,0,.66-.52,0,0,.77-.4,1.71-.41h1.94c-1.46,1.31-3.46,1.32-4.38,2.93,2-.26,3.8-1.43,5.82-.74l.07.44-1.58.3-1.17.36-.35.85-.17.62-2.87.2.28-1c-.93-.1-.93-.1-2.81,1.23l-.62.24-.61.13-.13-.65,0,0,.1,0,0-.11.43-.44a.12.12,0,0,0,.14-.13l0,0c.07-.07.13-.15.19-.22l0,0,.44-.52h0l.38-.34.36-.41h0L116,67Z" transform="translate(0 0)"/><path class="cls-6" d="M130.31,66.88c-.52.18-1,.31-1,1.07,0,.37-.45.73-.69,1.1l-.81-.2-.66-.79c-.05-.14-.11-.29-.17-.44.24-.1.64-.13.7-.29a6.25,6.25,0,0,0,.38-1.7,1.63,1.63,0,0,0-.35-.94,5.58,5.58,0,0,0-.81-.8c0-.56.09-1.12.13-1.68l.5-1.35c.2-2.06.42-4.12.59-6.19A25.86,25.86,0,0,0,126.84,45l.77.29a.49.49,0,0,1,0,.12,44.66,44.66,0,0,1,.72,4.71c.13,2.4,0,4.81,0,7.22,0,.71.09,1.25,1,1.15a6.58,6.58,0,0,0-1.22,4l-.09.32.09-.32h.26c.17.33.33.66.49,1l.18,2.9,1.22-.32C130.28,66.28,130.3,66.58,130.31,66.88Z" transform="translate(0 0)"/><path class="cls-9" d="M96.26,73.06a9,9,0,0,0,3.1,5.8c2.1,1.87,4.45,3.45,6.69,5.16.32.24.63.49.94.74l-1.38.27a17.27,17.27,0,0,0-1.76-1.44c-4.13-2.64-7.56-5.78-8.63-10.88-.45-2.15-.58-2.12-2.31-2.1v-.85c.88.12,1.59,0,1.44-1.17l.43-.24,1.34,4Z" transform="translate(0 0)"/><path class="cls-6" d="M105.37,71.81a5.89,5.89,0,0,1-4.36-.73c-.33-.22-.49-.67-.73-1l1.52.43.14-.32c-.62-.85-.41-2.33-2-2.51l.3-.36,3.39.74-.79,2a7.06,7.06,0,0,0,1.75-.35c1.08-.52,1.77.08,2.51.66l-2.08.77Z" transform="translate(0 0)"/><path class="cls-4" d="M107.15,70.32c-.74-.58-1.43-1.18-2.51-.66a7.06,7.06,0,0,1-1.75.35c.28-.69.54-1.33.79-2,0-1.19-1-1.2-1.74-1.6l-2.46-1.07a4.74,4.74,0,0,1,1.78-.09c1.6.59,3.14,1.33,4.7,2h0l.65.81,1.3,1.45c0,.14,0,.28,0,.42l-.55.41A.29.29,0,0,1,107.15,70.32Z" transform="translate(0 0)"/><path class="cls-6" d="M113.93,76.19c.76,1.27-.16,1.67-.76,2.08-2.78,1.89-2.22,1.65-4.69-.16-.71-.52-.76-1.11-.27-2C110,77.9,111.92,78.56,113.93,76.19Z" transform="translate(0 0)"/><path class="cls-7" d="M94.78,68.35l-.43.24-.61-1.3c-1.06,1.29-1,1.25-2,.09a4.53,4.53,0,0,0-1.54-.76c-.51-.49-.22-.7.29-.82l.91.08L92,66,92,65.3l.29-1.58.33-1.78c.1.66.19,1.32.29,2l-.21.92H94.2l.17,1.26Z" transform="translate(0 0)"/><path class="cls-6" d="M121.87,67.69l1.58-.3-.07-.44c-2-.69-3.85.48-5.82.74.92-1.61,2.92-1.62,4.38-2.93H120a2.84,2.84,0,0,1,3.16-.33l-2.08,1.62c.85.12,1.48.17,2.09.3,1,.2,1.19.63.43,1.35a8.28,8.28,0,0,1-1.4.88Z" transform="translate(0 0)"/><path class="cls-6" d="M114.78,69.93c1.88-1.33,1.88-1.33,2.81-1.23l-.28,1,2.87-.2.13,1-.25.58,0,0-.46.46-.82.17-2.16-.67Z" transform="translate(0 0)"/><path class="cls-9" d="M92.59,57.68l.6.56c.06.56.11,1.12.16,1.69l-.36.76-.87.24-1.37-1.31,0,0-.56-.13-.56.22-.36,0c.22-1.75,1.37-1.1,2.51-1L90.55,57l.45-.16.42.13.29.2.38,0C92.26,57.35,92.43,57.51,92.59,57.68Zm-.47,2.56.5.14c0-.26.09-.51.11-.77a.8.8,0,0,0-.3-.09C92.31,59.75,92.22,60,92.12,60.24Z" transform="translate(0 0)"/><path class="cls-7" d="M106,67.3c-1.56-.69-3.1-1.43-4.7-2a4.74,4.74,0,0,0-1.78.09l-1.06-.29-1.1-.42,0-.45a6.07,6.07,0,0,1,1.86,0c2,.66,4,1.42,5.94,2.21C105.49,66.58,105.7,67,106,67.3Z" transform="translate(0 0)"/><path class="cls-16" d="M100,67.66c1.54.18,1.33,1.66,2,2.51l-.14.32-1.52-.43-1.34-1.35.42-1Z" transform="translate(0 0)"/><path class="cls-10" d="M109,81.37c-.85-.14-2-.31-3.05-.54-.21,0-.35-.37-.52-.56.18-.13.37-.39.54-.37.75,0,1.5.16,2.25.27a11.25,11.25,0,0,1,1.54.26,5.41,5.41,0,0,1,1,.47c-.32.16-.64.33-1,.46A2.75,2.75,0,0,1,109,81.37Z" transform="translate(0 0)"/><path class="cls-10" d="M107.88,70c0-.14,0-.28,0-.42.66.06,1.34.89,2,0l.45.31c-.15.83-.22,1.8-1.28,1.91a5.05,5.05,0,0,1-1.73-.5l0-.63Z" transform="translate(0 0)"/><path class="cls-6" d="M115.89,80.78l-4.11.53-.09-.54a6,6,0,0,1,3.6-.78C115.52,80,115.67,80.47,115.89,80.78Z" transform="translate(0 0)"/><path class="cls-10" d="M126.9,63.89a5.58,5.58,0,0,1,.81.8,1.63,1.63,0,0,1,.35.94,6.25,6.25,0,0,1-.38,1.7c-.06.16-.46.19-.7.29a17.37,17.37,0,0,1-.55-2.43C126.39,64.78,126.73,64.33,126.9,63.89Z" transform="translate(0 0)"/><path class="cls-16" d="M120.31,70.5l-.13-1c.06-.2.12-.41.17-.62s.24-.57.35-.85l1.17-.36.33.89-1.47,1.91Z" transform="translate(0 0)"/><path class="cls-16" d="M114.78,69.93l1.8,1.14-.85.68h-1.42c-.16-.39-.32-.78-.49-1.17l.34-.42Z" transform="translate(0 0)"/><path class="cls-10" d="M113.82,70.59c.17.39.33.78.49,1.17l-.58.63a12.76,12.76,0,0,1-1.34-1.31c-.14-.17,0-.55,0-.83l.49-.46.21-.24.36.1c0,.21.08.43.13.65Z" transform="translate(0 0)"/><path class="cls-6" d="M98.42,65.08l1.06.29,2.46,1.07c-.17.19-.32.51-.5.53a4.54,4.54,0,0,1-1.14-.16l-1-.23C100,65.53,98.44,65.73,98.42,65.08Z" transform="translate(0 0)"/><path class="cls-10" d="M115.73,71.75l.85-.68,2.16.67A2.41,2.41,0,0,1,115.73,71.75Z" transform="translate(0 0)"/><path class="cls-10" d="M94.78,68.35l-.41-2.25a6.19,6.19,0,0,1,.82,1.39c.41,1.46.72,3,1,4.44,0,.14-.07.3-.12.46Z" transform="translate(0 0)"/><path class="cls-8" d="M127.61,45.24l-.77-.29h0c-.2-.36-.41-.72-.62-1.08a.46.46,0,0,1-.09-.15V43.2l-.29-.47-.38-.1a.39.39,0,0,1-.08-.14l0-.3c0-.22,0-.44.07-.65A6,6,0,0,1,127.61,45.24Z" transform="translate(0 0)"/><path class="cls-16" d="M107.37,70.61l0,.63-2,.57-.3-.72,2.08-.77a.29.29,0,0,0,.18.07A.16.16,0,0,0,107.37,70.61Z" transform="translate(0 0)"/><path class="cls-4" d="M92.12,60.93l.87-.24c.26.65.53,1.31.79,2l0,1.2-.49.09-.48,0c-.1-.66-.19-1.32-.29-2Z" transform="translate(0 0)"/><path class="cls-10" d="M112.12,82.42c-.18.31-.26.6-.38.62a8.26,8.26,0,0,1-1.72.07c-.13,0-.22-.44-.32-.67a12.16,12.16,0,0,1,1.46-.29A3.14,3.14,0,0,1,112.12,82.42Z" transform="translate(0 0)"/><path class="cls-4" d="M99.27,66.58l1,.23c0,.17,0,.33,0,.49l-.3.36-.63,0L98,68.09l-.23-.25c.09-.41.17-.83.26-1.24Z" transform="translate(0 0)"/><path class="cls-6" d="M93.78,62.66c-.26-.66-.53-1.32-.79-2l.36-.76C93.5,60.84,93.64,61.75,93.78,62.66Z" transform="translate(0 0)"/><path class="cls-6" d="M92.86,63.92l.48,0,.41.43.46.46H92.65Z" transform="translate(0 0)"/><path class="cls-6" d="M98.05,66.6c-.09.41-.17.83-.26,1.24l-.54-1.15Z" transform="translate(0 0)"/><path class="cls-6" d="M98,68.09l1.34-.41-.42,1Z" transform="translate(0 0)"/><path class="cls-9" d="M123.29,40.05l.6-.17.54.46.25.35h0l-.44.32Z" transform="translate(0 0)"/><path class="cls-8" d="M124.26,41l.44-.32.75.79h-.57l-.28,0Z" transform="translate(0 0)"/><path class="cls-10" d="M127.53,60.86l-.5,1.35Z" transform="translate(0 0)"/><path class="cls-10" d="M127.15,68.06l.66.79Z" transform="translate(0 0)"/><path class="cls-6" d="M126.21,43.86c.21.36.42.72.62,1.08C126.63,44.58,126.42,44.22,126.21,43.86Z" transform="translate(0 0)"/><path class="cls-7" d="M106.62,68.11,106,67.3Z" transform="translate(0 0)"/><path class="cls-6" d="M126.12,43.2v.51l-.67-1.08.38.1Z" transform="translate(0 0)"/><path class="cls-10" d="M117.48,65.6l-.66.52Z" transform="translate(0 0)"/><path class="cls-10" d="M120.31,70.5h.42c-.23.19-.45.39-.67.59C120.14,70.88,120.23,70.69,120.31,70.5Z" transform="translate(0 0)"/><path class="cls-10" d="M119.56,71.57l.46-.46Z" transform="translate(0 0)"/><path class="cls-7" d="M93.75,64.38,93.34,64l.49-.09Z" transform="translate(0 0)"/><path class="cls-10" d="M118.29,65.17l-.77.4Z" transform="translate(0 0)"/><path class="cls-6" d="M124.6,41.49l.28,0c0,.14.07.27.1.41l-.12.11Z" transform="translate(0 0)"/><path class="cls-10" d="M116.8,66.14l-.24.26-.27-.22Z" transform="translate(0 0)"/><path class="cls-6" d="M125.4,42.19l0,.3-.28-.24.11-.11A.65.65,0,0,0,125.4,42.19Z" transform="translate(0 0)"/><path class="cls-6" d="M125.09,42.25a2.85,2.85,0,0,1-.23-.26l.12-.11.22.26Z" transform="translate(0 0)"/><path class="cls-8" d="M100.26,83.84C98.18,81.56,96.06,79.31,94,77a40.49,40.49,0,0,1-2.42-3.47l.95-.75.21,0a20.89,20.89,0,0,0,1.9,3.6c1.61,2,3.44,3.79,5.15,5.69a6.49,6.49,0,0,1,.7,1.2l0,.59Z" transform="translate(0 0)"/><path class="cls-4" d="M100.5,83.85l0-.59c.37.16.74.3,1.08.48,1.26.68,2.43,1.61,4,1.29l1.38-.27.86.4.26.21.06.44h-3l-.09.27,1.59,1-.07.32a3,3,0,0,1-1.06-.2C103.84,86.15,102.18,85,100.5,83.85Z" transform="translate(0 0)"/><path class="cls-7" d="M108.11,85.37l-.26-.21Z" transform="translate(0 0)"/><path class="cls-15" d="M114,69.05l-.43.44-.26-.16.55-.54C113.9,68.88,114,69,114,69.05Z" transform="translate(0 0)"/><path class="cls-10" d="M114.84,68.1l-.44.52v-.55Z" transform="translate(0 0)"/><path class="cls-10" d="M116.37,66.59,116,67a.87.87,0,0,0-.16-.17l.08-.26Z" transform="translate(0 0)"/><path class="cls-10" d="M116,67l-.38.35c0-.15,0-.3,0-.45l.26-.07A.87.87,0,0,1,116,67Z" transform="translate(0 0)"/><path class="cls-10" d="M115.57,67.35l-.36.41a.9.9,0,0,0-.15-.18l.07-.26Z" transform="translate(0 0)"/><path class="cls-10" d="M115.21,67.76l-.38.34,0-.45.26-.07A.9.9,0,0,1,115.21,67.76Z" transform="translate(0 0)"/><path class="cls-15" d="M114.4,68.07v.55l0,0-.32-.07Z" transform="translate(0 0)"/><path class="cls-15" d="M113.06,69.55l-.21.24Z" transform="translate(0 0)"/><path class="cls-10" d="M113.31,69.33l.26.16,0,.11-.1,0C113.39,69.53,113.35,69.43,113.31,69.33Z" transform="translate(0 0)"/><path class="cls-10" d="M114,69.05c0-.09-.1-.17-.14-.26l.28.13A.12.12,0,0,1,114,69.05Z" transform="translate(0 0)"/><path class="cls-10" d="M114,68.59l.32.07c-.06.07-.12.15-.19.22C114.13,68.78,114.09,68.69,114,68.59Z" transform="translate(0 0)"/><path class="cls-15" d="M115.06,67.58l-.26.07.33-.33A2.5,2.5,0,0,0,115.06,67.58Z" transform="translate(0 0)"/><path class="cls-15" d="M115.79,66.84l-.26.07.34-.33A2.58,2.58,0,0,1,115.79,66.84Z" transform="translate(0 0)"/><path class="cls-7" d="M140.62,42.65l-.36-1.06.4.39C140.64,42.2,140.63,42.42,140.62,42.65Z" transform="translate(0 0)"/><path class="cls-9" d="M125.2,42.14l-.22-.26c0-.14-.06-.27-.1-.41h.57l0,.06c0,.21,0,.43-.07.65A.65.65,0,0,1,125.2,42.14Z" transform="translate(0 0)"/><path class="cls-8" d="M124.68,40.69l-.25-.35Z" transform="translate(0 0)"/><path class="cls-8" d="M75.11,106.5c-.13,1.68-.3,3.35-.37,5,0,.34.29.7.5,1.14l-.66.28-1-1.22-.15-.26c0-.25,0-.51,0-.76.15-.82.29-1.64.44-2.46.13.89.26,1.77.38,2.66.11-.93,0-1.87.14-2.78A6.31,6.31,0,0,1,75.11,106.5Z" transform="translate(0 0)"/><path class="cls-8" d="M73.32,107.86c0-.4-.11-.81-.16-1.21l.21-.16c.1-.79.21-1.58.32-2.38l.15-.55.57.07c-.09.63-.19,1.26-.27,1.89-.1.83-.17,1.66-.26,2.5h-.5A.2.2,0,0,1,73.32,107.86Z" transform="translate(0 0)"/><path class="cls-9" d="M73.38,108h.5v.23c-.15.82-.29,1.64-.44,2.46Z" transform="translate(0 0)"/><path class="cls-9" d="M73.48,111.47l.15.26Z" transform="translate(0 0)"/><path class="cls-8" d="M84.44,84.55a29.89,29.89,0,0,1,3,1.71c1.59,1.12,3.09,2.36,4.62,3.54a16.54,16.54,0,0,0,1.3,1.58,13.92,13.92,0,0,1,3.2,5.26l-1.26-.08a4.64,4.64,0,0,0-.27-1.25C92.83,90.9,88.77,88.38,85,85.58Z" transform="translate(0 0)"/><path class="cls-8" d="M93.15,86.75a5.66,5.66,0,0,0,.66.55c3.36,2.06,4.77,5.36,5.79,9,.29,1,.93,2,.45,3.13l-1,.75-.5-.79c1.28.07.78-.88.62-1.33-.69-2-1.49-4-2.25-6-.66-1.74-2.19-2.68-3.53-3.79-.31-.25-.57-.56-.86-.84C92.75,87.15,93,87,93.15,86.75Z" transform="translate(0 0)"/><path class="cls-2" d="M96.59,96.64a13.92,13.92,0,0,0-3.2-5.26,16.54,16.54,0,0,1-1.3-1.58c1.74.77,3.37,1.67,4.15,3.54.65,1.56,1.69,3,1.57,4.8Z" transform="translate(0 0)"/><path class="cls-4" d="M96.59,96.64l1.22,1.5c0,.09.08.18.11.27l-.73.31-1.36-.89-.24-.17-1-.42L94.22,97l-.35-.08a.21.21,0,0,0-.2,0l-.28-.11c-.08-.55-.29-.79-.78-.32a.33.33,0,0,1-.24,0l.84-1.09.43.28.34.21.63.31.4.31.32.11Z" transform="translate(0 0)"/><path class="cls-4" d="M93.15,86.75c-.2.2-.4.4-.61.59l-.2-.21L92,86.89h-.08l-.08,0c.26-.8,1-1.65-.27-2.26a.16.16,0,0,1,0-.16l.75-.85.78,1.24Z" transform="translate(0 0)"/><path class="cls-9" d="M97.19,98.72l.73-.31c.13.21.26.42.38.64a3.92,3.92,0,0,0,.25.32v0l.5.79c.13.59.25,1.19.38,1.79Z" transform="translate(0 0)"/><path class="cls-9" d="M84.44,84.55l.54,1-1.2-.26-1.54-1h1.52Z" transform="translate(0 0)"/><path class="cls-8" d="M92,86.89l.33.24Z" transform="translate(0 0)"/><path class="cls-8" d="M98.55,99.37a3.92,3.92,0,0,1-.25-.32A3.92,3.92,0,0,0,98.55,99.37Z" transform="translate(0 0)"/><path class="cls-13" d="M83.78,85.32l1.2.26c3.79,2.8,7.85,5.32,10.08,9.73a4.64,4.64,0,0,1,.27,1.25L95,96.45l-.4-.31L94,95.83l-.33-.21-.43-.28-.77-.44-.56-.24-.69-.38-1-.32-.08,0H90a4.79,4.79,0,0,0-4.33,0l-.43.08-1.75.44L83,94.6,82,94.91a.24.24,0,0,0-.16.09l-1.31.62.06.06-.06-.06-1,.46-1.19.77-1,1-.39.54-.2.3-.79,1.18c-.79.31-1.09,0-1-.78.1-.57.26-1.12.32-1.69a3.59,3.59,0,0,0-.11-.91l-.44,0-1,3c-1.87-2.15-2-4.59-1.17-7.16a12.26,12.26,0,0,1,3.62-5.58,4.3,4.3,0,0,1,2.14-1c1.69-.18,3.4-.09,5.1-.13C83.5,85.52,83.64,85.39,83.78,85.32ZM81,92a4.49,4.49,0,0,0-1.45-.42c-.89,0-1.77.28-2.66.41-2.1.3-3.13,2-2.42,4.29C75.9,93.69,78.66,93.44,81,92Z" transform="translate(0 0)"/><path class="cls-7" d="M73.67,99.43l1-3,.44,0a3.59,3.59,0,0,1,.11.91c-.06.57-.22,1.12-.32,1.69-.14.79.16,1.09,1,.78-.25.5-.49,1-.74,1.49l-1.34,1.53c-.09-.75-.22-1.5-.27-2.25A5.38,5.38,0,0,1,73.67,99.43Z" transform="translate(0 0)"/><path class="cls-4" d="M73.75,102.86l1.34-1.53c0,.14.09.27.13.4l0,.36-.86,1.54-.57-.07Z" transform="translate(0 0)"/><path class="cls-7" d="M73.69,104.11c-.11.8-.22,1.59-.32,2.38C73.47,105.7,73.58,104.9,73.69,104.11Z" transform="translate(0 0)"/><path class="cls-8" d="M93.08,84.83l-.78-1.24-.75.85L87.16,78l.26-.62,4,5c-.33-1.38-.53-2.8-1.75-3.74v-.66l-.33-.42c-.38-.9-.8-1.78-1.1-2.71a4.77,4.77,0,0,1-.09-1.37l.41-.07Q89.8,76,91,78.67c.5,1.09,1.07,2.15,1.46,3.28A23,23,0,0,1,93.08,84.83Z" transform="translate(0 0)"/><path class="cls-2" d="M89.67,78.55c1.22.94,1.42,2.36,1.75,3.74l-4-5-.26.62-2-2.2A3.81,3.81,0,0,0,85,74.68a8,8,0,0,0-.82-1.14c1.89.42,3,1.78,4.12,3.23a4.06,4.06,0,0,0,1,.7l.33.42-.42.3Z" transform="translate(0 0)"/><path class="cls-2" d="M100.07,100.12c1,.24,1.23-.59,1.62-1.15s.84-.78,1.3,0c.18.31.66.45,1,.66-.78,1.46-1.4,3-3,3.82-.37-.95-.72-1.75-1-2.58A2.16,2.16,0,0,1,100.07,100.12Z" transform="translate(0 0)"/><path class="cls-8" d="M96.67,86.76l-.78-2.63.69,0c1.22,2,2.37,4.06,3.67,6a19.82,19.82,0,0,0,2.24,2.35c0,.2,0,.39-.08,1-1.21-1.16-2.22-2.08-3.17-3-.66-.68-1.25-1.44-1.87-2.17L97,87.35Z" transform="translate(0 0)"/><path class="cls-4" d="M100.07,100.12a2.16,2.16,0,0,0-.06.79c.28.83.63,1.63,1,2.58,1.59-.77,2.21-2.36,3-3.82l.47-.76.78.25-.51,1-.13.21-1.53,2.4-.56.66.76.35-.39.39-.49.24-2-.65a.5.5,0,0,1,0-.13l-.29-.36-.61-1.38c-.13-.6-.25-1.2-.38-1.79l1-.75C100.06,99.63,100.06,99.87,100.07,100.12Z" transform="translate(0 0)"/><path class="cls-8" d="M84.2,73.54A8,8,0,0,1,85,74.68a3.81,3.81,0,0,1,.17,1.08l-5.67-4.59.23-.32C81.55,71.18,82.66,72.75,84.2,73.54Z" transform="translate(0 0)"/><path class="cls-2" d="M97.37,88.24c.62.73,1.21,1.49,1.87,2.17,1,1,2,1.89,3.17,3,0-.61.07-.8.08-1l2.19,2-.17.26a8.32,8.32,0,0,1-1.26-.52c-2.25-1.33-4.6-2.56-5.75-5.11A3.52,3.52,0,0,1,97.37,88.24Z" transform="translate(0 0)"/><path class="cls-4" d="M92.57,72.74l-.95.76-.6-1,.32-.17.12-.09A5.29,5.29,0,0,0,92,72c-.24-.94,0-2-1-2.71a8.7,8.7,0,0,1-1.38-1.66c0-.18,0-.36,0-.54l.35.13,1.81,1.89.61.4a.55.55,0,0,0,.15.08l.32.15v.89c-.08.53-.16,1.06-.23,1.59Z" transform="translate(0 0)"/><path class="cls-2" d="M89.61,67.61A8.7,8.7,0,0,0,91,69.27c1,.7.77,1.77,1,2.71a5.29,5.29,0,0,1-.54.22c-.54-1.18-.79-2.57-2.21-3.13-1.27-.48.17-1.16-.12-1.71Z" transform="translate(0 0)"/><path class="cls-8" d="M89.61,67.61l-.48-.25-2.26-4.2.4-.11,0,.05.19.29.24.22.3.72.23.27h0l.18.3.3.43.19.3,0,0,.77,1.4Z" transform="translate(0 0)"/><path class="cls-8" d="M86.75,61.43l.24-1,.14-.28c.66-1.08,1.31-2.17,2-3.25l.7.14-1.62,2.45-.91,2Z" transform="translate(0 0)"/><path class="cls-4" d="M89.25,69.07c1.42.56,1.67,2,2.21,3.13l-.12.09-.34.1Z" transform="translate(0 0)"/><path class="cls-2" d="M105.25,99.16l-.78-.25,1.33-2.51.42.18C106,97.47,106.2,98.48,105.25,99.16Z" transform="translate(0 0)"/><path class="cls-9" d="M86.75,61.43h.51c0,.54,0,1.07,0,1.61l-.4.11Z" transform="translate(0 0)"/><path class="cls-2" d="M96.58,84.1l-.69,0c-.11-.35-.23-.7-.34-1l.42-.21Z" transform="translate(0 0)"/><path class="cls-2" d="M89.79,57l-.7-.14c.62-.62,1.24-1.24,1.91,0l-.45.16-.1,0-.66.05Z" transform="translate(0 0)"/><path class="cls-2" d="M92.59,57.68c-.16-.17-.33-.33-.5-.5l.27-.75C92.43,56.85,92.51,57.26,92.59,57.68Z" transform="translate(0 0)"/><path class="cls-2" d="M96.67,86.76l.35.59Z" transform="translate(0 0)"/><path class="cls-8" d="M91,72.39l.34-.1-.32.17Z" transform="translate(0 0)"/><path class="cls-9" d="M87.13,60.12,87,60.4Z" transform="translate(0 0)"/><path class="cls-2" d="M91.71,57.15l-.29-.2Z" transform="translate(0 0)"/><path class="cls-2" d="M104.61,100.41l.13-.21A.46.46,0,0,1,104.61,100.41Z" transform="translate(0 0)"/><path class="cls-13" d="M99.44,101.93l.61,1.38.29.36a.5.5,0,0,0,0,.13c-.31.16-.62.44-.94.45a11.31,11.31,0,0,1-2.33-.1A3.17,3.17,0,0,0,94,105.61a8.38,8.38,0,0,0-1.64,2.44,5.85,5.85,0,0,1-4.08,3.86c-1.86.64-2.54,2-3,3.69-.25,1-.47,1.9-.7,2.85A25.1,25.1,0,0,1,77.12,110c2.1.64,4,1.58,6.28,1.5-.85-.68-1.87-1-2.67-1.7-1.57-1.27-3-2.69-4.54-4.05.44-1,.88-2.07,1.33-3.1,1.59-3.61,4.66-5.2,8.26-6A27.47,27.47,0,0,1,90,95.86a8.16,8.16,0,0,1,2.38.57.33.33,0,0,0,.24,0l.78.32.28.11.2,0,.35.08.32.22,1,.42.24.17,1.36.89Z" transform="translate(0 0)"/><path class="cls-5" d="M76.19,105.71c1.51,1.36,3,2.78,4.54,4.05.8.65,1.82,1,2.67,1.7-2.23.08-4.18-.86-6.28-1.5a25.1,25.1,0,0,0,7.44,8.49l.15.65c-.51.56-1,1.13-1.53,1.68s-.92.54-1.35,0a77.29,77.29,0,0,1-5.61-7.36A7.67,7.67,0,0,1,76.19,105.71Z" transform="translate(0 0)"/><path class="cls-3" d="M75.27,102.09c0-.12,0-.24,0-.36.33-.44.64-.9,1-1.32,1.11-1.29,2.24-2.56,3.36-3.84h0l1-.17c1.75-.57,3.51-1.12,5.25-1.72.57-.19,1.11-.47,1.66-.71h1.19c1.14,1-.11,1-.56,1.1-2.08.68-4.19,1.29-6.28,2a6.25,6.25,0,0,0-3.46,2.77c-.8,1.28-1.65,2.54-2.47,3.8Z" transform="translate(0 0)"/><path class="cls-2" d="M75.27,102.09l.61,1.5c-.26,1-.51,1.94-.77,2.91a6.31,6.31,0,0,0-.71,1.63c-.12.91,0,1.85-.14,2.78-.12-.89-.25-1.77-.38-2.66V108c.09-.84.16-1.67.26-2.5.08-.63.18-1.26.27-1.89C74.69,103.11,75,102.6,75.27,102.09Z" transform="translate(0 0)"/><path class="cls-7" d="M88.65,94H87.46l-1.81,0a4.79,4.79,0,0,1,4.33,0Z" transform="translate(0 0)"/><path class="cls-7" d="M90.15,94l1,.32C90.63,94.87,90.34,94.56,90.15,94Z" transform="translate(0 0)"/><path class="cls-7" d="M91.88,94.66l.56.24Z" transform="translate(0 0)"/><path class="cls-7" d="M128.87,63.4c-.16-.33-.32-.66-.49-1A29.5,29.5,0,0,1,130,59.57c.2-.27.86-.2,1.31-.29v.93c-.35.11-.86.12-1,.36C129.78,61.47,129.35,62.45,128.87,63.4Z" transform="translate(0 0)"/><path class="cls-7" d="M130.31,66.88c0-.3,0-.6,0-.9,1.3-.93.45-2,.25-3.08l.61,0,.74,1.5c0,.24,0,.49,0,.73h-.05l-.21.51c-.28.46-.55.93-.84,1.37C130.7,67,130.45,66.92,130.31,66.88Z" transform="translate(0 0)"/><path class="cls-6" d="M131.13,62.87l-.61,0c.1-.24.2-.47.31-.71Z" transform="translate(0 0)"/><path class="cls-10" d="M131.83,65.1c0-.24,0-.49,0-.73C131.86,64.61,131.84,64.86,131.83,65.1Z" transform="translate(0 0)"/><path class="cls-6" d="M131.57,65.61l.21-.51c0,.16,0,.33,0,.49Z" transform="translate(0 0)"/><path class="cls-6" d="M120.7,68.05c-.11.28-.23.57-.35.85C120.47,68.62,120.59,68.33,120.7,68.05Z" transform="translate(0 0)"/><path class="cls-6" d="M113.82,70.59l-.27-.29.61-.13Z" transform="translate(0 0)"/><path class="cls-10" d="M128.12,62.4l-.09.32.09-.32Z" transform="translate(0 0)"/><path class="cls-5" d="M92.68,72.2c.07-.53.15-1.06.23-1.59,1.73,0,1.86,0,2.31,2.1,1.07,5.1,4.5,8.24,8.63,10.88A17.27,17.27,0,0,1,105.61,85c-1.57.32-2.74-.61-4-1.29-.34-.18-.71-.32-1.08-.48a6.49,6.49,0,0,0-.7-1.2c-1.71-1.9-3.54-3.7-5.15-5.69a20.89,20.89,0,0,1-1.9-3.6C92.75,72.58,92.71,72.39,92.68,72.2Z" transform="translate(0 0)"/><path class="cls-13" d="M91.82,69.09,90,67.2l.18-.58a4.53,4.53,0,0,1,1.54.76c1,1.16,1,1.2,2-.09l.61,1.3c.15,1.17-.56,1.29-1.44,1.17v0l-.32-.15a.55.55,0,0,1-.15-.08Z" transform="translate(0 0)"/><path class="cls-9" d="M100.29,67.3c0-.16,0-.32,0-.49a4.54,4.54,0,0,0,1.14.16c.18,0,.33-.34.5-.53.7.4,1.77.41,1.74,1.6Z" transform="translate(0 0)"/><path class="cls-6" d="M107.37,70.61a.16.16,0,0,1,0-.22l.55-.41Z" transform="translate(0 0)"/><path class="cls-14" d="M92.24,63.72c-.1.53-.19,1-.29,1.58l-.56.58-.91-.08c0-.42-.12-.83-.13-1.25s0-.94,0-1.41l1.5-.81Z" transform="translate(0 0)"/><path class="cls-10" d="M92.24,63.72l-.36-1.39-1.5.81-1.09,1-.55-.81.37-.37a7.18,7.18,0,0,0,2.12-1.28c.23-.28-.33-1.2-.52-1.83,0-.07,0-.16,0-.23l1.37,1.31.45,1Z" transform="translate(0 0)"/><path class="cls-6" d="M89.29,64.14l1.09-1c0,.47,0,.94,0,1.41s.08.83.13,1.25c-.51.12-.8.33-.29.82L90,67.2l-.35-.13-.77-1.4C89,65.16,89.16,64.65,89.29,64.14Z" transform="translate(0 0)"/><path class="cls-10" d="M91.39,65.88,92,65.3,92,66Z" transform="translate(0 0)"/><path class="cls-14" d="M90.75,59.62c0,.07-.06.16,0,.23.19.63.75,1.55.52,1.83A7.18,7.18,0,0,1,89.11,63c-.6-1.21-.11-2.26.49-3.3l.56-.22.56.13Z" transform="translate(0 0)"/><path class="cls-14" d="M89.79,57v0l.66-.05.1,0,1.2,1.68c-1.14-.08-2.29-.73-2.51,1l-.83.48-.24-.71Z" transform="translate(0 0)"/><path class="cls-7" d="M88.41,60.17l.83-.48.36,0c-.6,1-1.09,2.09-.49,3.3-.12.12-.24.25-.37.37l-.68-.88Z" transform="translate(0 0)"/><path class="cls-6" d="M92.12,60.24c.1-.24.19-.49.31-.72a.8.8,0,0,1,.3.09c0,.26-.07.51-.11.77Z" transform="translate(0 0)"/><path class="cls-10" d="M90.72,59.57l-.56-.13Z" transform="translate(0 0)"/><path class="cls-9" d="M126.12,43.2l-.29-.47Z" transform="translate(0 0)"/><path class="cls-9" d="M92.68,72.2c0,.19.07.38.1.57l-.21,0C92.61,72.56,92.64,72.38,92.68,72.2Z" transform="translate(0 0)"/><path class="cls-9" d="M93.39,96.78l-.78-.32C93.1,96,93.31,96.23,93.39,96.78Z" transform="translate(0 0)"/><path class="cls-9" d="M94.61,96.14l.4.31Z" transform="translate(0 0)"/><path class="cls-9" d="M93.64,95.62l.33.21Z" transform="translate(0 0)"/><path class="cls-9" d="M93.87,96.94l-.2,0A.21.21,0,0,1,93.87,96.94Z" transform="translate(0 0)"/><path class="cls-9" d="M94.54,97.24,94.22,97Z" transform="translate(0 0)"/><path class="cls-9" d="M95.83,97.83l-.24-.17Z" transform="translate(0 0)"/><path class="cls-5" d="M81,92c-2.3,1.45-5.06,1.7-6.53,4.28-.71-2.31.32-4,2.42-4.29.89-.13,1.77-.37,2.66-.41A4.49,4.49,0,0,1,81,92Z" transform="translate(0 0)"/><path class="cls-9" d="M85.65,93.92l1.81,0c-.55.24-1.09.52-1.66.71-1.74.6-3.5,1.15-5.25,1.72l-.29-.31.22-.46.06.06-.06-.06L81.79,95a.24.24,0,0,1,.16-.09L83,94.6l.45-.16L85.22,94Z" transform="translate(0 0)"/><path class="cls-8" d="M79.58,96.57c-1.12,1.28-2.25,2.55-3.36,3.84-.36.42-.67.88-1,1.32,0-.13-.09-.26-.13-.4.25-.49.49-1,.74-1.49l.79-1.18.2-.3.39-.54,1.05-1Z" transform="translate(0 0)"/><path class="cls-7" d="M81.79,95l-1.31.62Z" transform="translate(0 0)"/><path class="cls-7" d="M85.22,94l-1.75.44Z" transform="translate(0 0)"/><path class="cls-7" d="M79.58,96.57l-1.32.28,1.18-.77.12.11v.37Z" transform="translate(0 0)"/><path class="cls-7" d="M78.25,96.85l-1,1Z" transform="translate(0 0)"/><path class="cls-7" d="M80.48,95.62l-.22.46-.7.11-.12-.11Z" transform="translate(0 0)"/><path class="cls-7" d="M83,94.6,82,94.91Z" transform="translate(0 0)"/><path class="cls-7" d="M76.82,98.36l-.2.3Z" transform="translate(0 0)"/><path class="cls-3" d="M89.67,78.55l-.41-.36.42-.3C89.68,78.11,89.67,78.33,89.67,78.55Z" transform="translate(0 0)"/><path class="cls-7" d="M100.34,103.67l-.29-.36Z" transform="translate(0 0)"/><path class="cls-6" d="M91.82,69.09l.61.4Z" transform="translate(0 0)"/><path class="cls-6" d="M92.58,69.57l.32.15Z" transform="translate(0 0)"/><path class="cls-10" d="M88.41,60.17c-.12.76-.24,1.52-.35,2.28l-.39,1.16-.24-.22-.19-.29,0-.05c0-.54,0-1.07,0-1.61l.91-2Z" transform="translate(0 0)"/><path class="cls-14" d="M87.67,63.61l.39-1.16.68.88.55.81c-.13.51-.27,1-.4,1.53l0,0c-.06-.1-.12-.2-.19-.3l-.3-.43-.18-.3h0L88,64.33Z" transform="translate(0 0)"/><path class="cls-6" d="M88.68,65.33c.07.1.13.2.19.3C88.81,65.53,88.75,65.43,88.68,65.33Z" transform="translate(0 0)"/><path class="cls-6" d="M88.2,64.6l.18.3Z" transform="translate(0 0)"/><path class="cls-6" d="M88,64.33l.23.27Z" transform="translate(0 0)"/><path class="cls-9" d="M87.24,63.1l.19.29Z" transform="translate(0 0)"/><path class="cls-8" d="M90.45,56.94l-.66.05Z" transform="translate(0 0)"/><path class="cls-8" d="M79.56,96.19l.7-.11.29.31-1,.17Z" transform="translate(0 0)"/></svg>