<svg xmlns="http://www.w3.org/2000/svg" viewBox="0 0 974 1200"><defs><style>.cls-1{fill:#363f4d;}.cls-2{fill:#3c4755;}.cls-3{fill:#303846;}.cls-4{fill:#546b78;}.cls-5{fill:#6c808c;}.cls-6{fill:#425260;}.cls-7{fill:#637a85;}.cls-8{fill:#2b323f;}.cls-9{fill:#a61c22;}.cls-10{fill:#4f0a10;}.cls-11{fill:#d61c22;}.cls-12{fill:#7c8f9a;}.cls-13{fill:#dadbdc;}.cls-14{fill:#282933;}.cls-15{fill:#495a68;}</style></defs><title>cowboy_bebop</title><g id="Layer_3" data-name="Layer 3"><circle class="cls-1" cx="634.39" cy="668.8" r="94.26"/></g><g id="Layer_1" data-name="Layer 1"><path class="cls-2" d="M18.62,94.29l-.34-.06-.06.63.27,0Z" transform="translate(535.13 572.47)"/><path class="cls-3" d="M165.89,103.89s0-.07,0-.07h-.11s0,.06,0,.06A.41.41,0,0,0,165.89,103.89Z" transform="translate(535.13 572.47)"/><path class="cls-1" d="M359.83,576.72l1.66-.36q.66,3,1.31,6l-1.78.38C360.62,580.76,360.23,578.74,359.83,576.72Z" transform="translate(535.13 572.47)"/><path class="cls-4" d="M96.6-470.8l1.9-.45-1.2-3.51-1.34.37ZM99,26.6h-.14v.67H99Zm-.16,1.67.09.08,0-.06-.09-.08Z" transform="translate(535.13 572.47)"/><path class="cls-2" d="M297.74,562.11l.53.46-.24.33c-.17-.16-.36-.3-.52-.47S297.66,562.22,297.74,562.11Z" transform="translate(535.13 572.47)"/><path class="cls-5" d="M75,519.16a1.76,1.76,0,0,0-.39.06c0,.24,0,.47,0,.71.14,0,.39,0,.39-.07A5.48,5.48,0,0,0,75,519.16Z" transform="translate(535.13 572.47)"/><path class="cls-2" d="M390.87,627.53a16.17,16.17,0,0,1,3.77-.95q20.22-.09,40.45,0a16.86,16.86,0,0,1,3.78.94Z" transform="translate(535.13 572.47)"/><path class="cls-2" d="M-534.14-571.46h-1a7.72,7.72,0,0,1,2.5-1c10.5-.07,21,0,31.5,0l-16,1Z" transform="translate(535.13 572.47)"/><path class="cls-2" d="M357.87,627.53l2-1c7.59,0,15.18,0,22.77.07a30.82,30.82,0,0,1,5.22.95Z" transform="translate(535.13 572.47)"/><path class="cls-2" d="M-486.13-572.46h0Z" transform="translate(535.13 572.47)"/><path class="cls-6" d="M321.87,627.53l4-1v1Z" transform="translate(535.13 572.47)"/><path class="cls-2" d="M325.87,627.53v-1l3,1Z" transform="translate(535.13 572.47)"/><path class="cls-4" d="M117.87-572.46h0Z" transform="translate(535.13 572.47)"/><path class="cls-7" d="M53.87-572.46h0Z" transform="translate(535.13 572.47)"/><path class="cls-4" d="M107.87-572.46h0Z" transform="translate(535.13 572.47)"/><path class="cls-4" d="M113.87-572.46h0Z" transform="translate(535.13 572.47)"/><path class="cls-4" d="M120.87-572.46h0Z" transform="translate(535.13 572.47)"/><path class="cls-8" d="M168.38,75h.07v-.36h-.07ZM183,61.73l-.09-.08,0,.05.09.08Z" transform="translate(535.13 572.47)"/><path class="cls-9" d="M29,96.61a4.68,4.68,0,0,0-.83,0,1.92,1.92,0,0,1-1.82-.73h0l-.34-.5h0L25.87,95l0-.44.79-1.43h0l.43-.27.73-.4h0l.31-.18c.85-.11.75-.71.67-1.31-.28-2-.55-4.1-.83-6.15l-.27-3.64L28,75.32l.32.39c-.06.55-.11,1.09-.18,1.63a24.23,24.23,0,0,0,.95,10.6c.09.26.34.69.49.68a1.67,1.67,0,0,0,1-.46c.62-.73.75-.79,1.48-.06a2.78,2.78,0,0,1,.38,1c-.28-.09-.56-.17-.83-.28s-.52-.23-.84-.38l-.21.73a.92.92,0,0,0-1.39.47c-.27.47.08,1.38.79,1.9.11.08.41-.08.63-.13l.13,1.41c.59-.53,1.06-1,1.57-1.4s.79-.41,1.09.37a19.26,19.26,0,0,0,.87,1.78l1.06-.84c.51.09.9.28,1,.16s.53-.73.44-.88c-.82-1.19,0-2.17.57-2.93a9.66,9.66,0,0,1,4.35-4l-.64-.78c2.13.07,4.26.12,6.39.22,1.55.08,3.1.23,4.64.35l8.17.55,2.23.18-.07.63c-.86-.05-1.63-.13-2.4-.13s-1.64.08-2.46.1-1.57-.06-2.34,0a3.16,3.16,0,0,0-2.75,1.62,5,5,0,0,1-2.65,2.4,8.42,8.42,0,0,0-2.67,1.89,1.31,1.31,0,0,1-1.78.28l-.3.77c-1.05-.41-1.71.34-2.48.73a.46.46,0,0,0-.18.41c.37.95-.32.89-.87.9-1.28,0-2.56,0-3.84,0-.22,0-.44,0-.88.1l1.09.44a7.39,7.39,0,0,0-1.82.3c-.83.39-1.59,1-2.55.28l-.31.78-.75-.25a1.53,1.53,0,0,1-1.27-1.92c0-.27.18-.57.12-.81a2.73,2.73,0,0,0-.49-.76c-.16.24-.41.45-.46.71-.07.43,0,.89,0,1.33,0,.23-.29.43-.45.64.22-1-.7-1.18-1.11-1.73A1.68,1.68,0,0,0,29.89,96C29.93,96.71,29.5,96.69,29,96.61Z" transform="translate(535.13 572.47)"/><path class="cls-10" d="M41.08,84.25l.64.78a9.66,9.66,0,0,0-4.35,4c-.53.76-1.39,1.74-.57,2.93.09.15-.2.69-.44.88s-.54-.07-1-.16l-1.06.84a19.26,19.26,0,0,1-.87-1.78c-.3-.78-.45-.87-1.09-.37s-1,.87-1.57,1.4l-.13-1.41c-.22,0-.52.21-.63.13-.71-.52-1.06-1.43-.79-1.9a.92.92,0,0,1,1.39-.47l.21-.73c.32.15.57.28.84.38s.55.19.83.28a2.78,2.78,0,0,0-.38-1c-.73-.73-.86-.67-1.48.06a1.67,1.67,0,0,1-1,.46c-.15,0-.4-.42-.49-.68a24.23,24.23,0,0,1-.95-10.6c.07-.54.12-1.08.18-1.63l.68.78c.05.08.1.17.16.25l.1.23L31,78.79l.34-.14c-.1-1.11-.16-2.23-.32-3.34a61.9,61.9,0,0,1-.9-10.26c0-1.22.17-2.44.26-3.66a16.13,16.13,0,0,1,1.17,2.8C32.42,68.44,33.21,72.71,34,77a9.66,9.66,0,0,0,2.33,5.33l.86.68h0c1,.38,2.09.76,3.14,1.12A5.88,5.88,0,0,0,41.08,84.25ZM35,92.17a1.21,1.21,0,0,0-.79-1.73C33.81,91.26,34.47,91.61,35,92.17Z" transform="translate(535.13 572.47)"/><path class="cls-11" d="M30.37,61.39c-.09,1.22-.23,2.44-.26,3.66A61.9,61.9,0,0,0,31,75.31c.16,1.11.22,2.23.32,3.34l-.34.14L29.28,77a3.57,3.57,0,0,0,.16-.79q.06-2.28.06-4.56a5.23,5.23,0,0,0-.13-.87c.12-1.76.25-3.52.36-5.28,0-.38,0-.77,0-1.15l.21-1.84v0l0,0,.13-.52,0-.46Z" transform="translate(535.13 572.47)"/><path class="cls-11" d="M26.64,93.11l-.79,1.43c0-.06,0-.13-.05-.19l0-.29.66-9c.07-.92.39-1.89-.52-2.61l.06-.66.86-.83c.1-1,.15-2.34.38-3.61.13-.68,0-1.56.81-2-.11,2-.21,3.9-.32,5.85-.14.26-.38.51-.4.78-.32,3.65-.61,7.31-.9,11C26.4,93,26.56,93.05,26.64,93.11Z" transform="translate(535.13 572.47)"/><path class="cls-12" d="M29.37,70.75a5.23,5.23,0,0,1,.13.87q0,2.28-.06,4.56a3.57,3.57,0,0,1-.16.79c0-.07-.07-.15-.1-.23l.15-4.48v-.35a.33.33,0,0,0,0-.14Z" transform="translate(535.13 572.47)"/><path class="cls-1" d="M29.33,72.26l-.15,4.48c-.06-.08-.11-.17-.16-.25,0-1-.1-2-.06-3A5,5,0,0,1,29.33,72.26Z" transform="translate(535.13 572.47)"/><path class="cls-13" d="M26,81.75l-.06.66Z" transform="translate(535.13 572.47)"/><path class="cls-6" d="M26,95.33l.34.5Z" transform="translate(535.13 572.47)"/><path class="cls-6" d="M30,61.89l-.13.52Z" transform="translate(535.13 572.47)"/><path class="cls-9" d="M25.77,94.06l0,.29Z" transform="translate(535.13 572.47)"/><path class="cls-6" d="M25.87,95l.17.35Z" transform="translate(535.13 572.47)"/><path class="cls-1" d="M29.34,71.77a.33.33,0,0,1,0,.14A.08.08,0,0,1,29.34,71.77Z" transform="translate(535.13 572.47)"/><path class="cls-11" d="M85.08,112.22a16.15,16.15,0,0,1,1.7-8.56c.08-.28.17-.55.29-.93l-2.86-.2-1.46,0c-.88-.06-1.76-.1-2.63-.21a2.65,2.65,0,0,1-.81-.43l.07-.17-2.18-.18a3.05,3.05,0,0,1,.13-.44c.88-1.6,1.74-3.21,2.68-4.77a1.12,1.12,0,0,0,.07-1.13c-.35-1-.6-1.94-.9-2.91l3.38-4.8c.15.2.29.56.46.58,1.23.12,2.5.26,3.39-.92a8.88,8.88,0,0,0,4.5-1.39,4.39,4.39,0,0,0,.37.89,13.2,13.2,0,0,0,.9,1.08l.21,0,.4-.1h0l1.09-.88.34,1.08a17.29,17.29,0,0,0,1.45-1.77,30.26,30.26,0,0,0,1.45-2.69c.08-.17,0-.59-.09-.65a18.27,18.27,0,0,0-1.79-.67l-.32,0h-.19a.16.16,0,0,0-.1,0L94,81.44a.56.56,0,0,0,0-.12,41,41,0,0,0,2.16-9.4l.08-.5,0,0q1.31-7.74,2.59-15.48c.18-1.07.27-2.15.41-3.22.26-1.3.55-2.59.78-3.89s.42-2.61.63-3.91h.36c0,5.13.11,10.25.15,15.37.06,6.94.09,13.87.17,20.81,0,1.08.17,2.16.27,3.21a4.14,4.14,0,0,0-.35,1.15c0,1.08.07,2.17,0,3.25a3.26,3.26,0,0,0,.6,2c1.59,2.38,3.87,4.06,5.89,6,0,0,.15,0,.23,0h0l.16.16h0l.16.17h0l.35.49h0l.17.17h0l.51.75a.16.16,0,0,0,.08.08l.31.43.37.47.09.26V100h0c-1.12-.35-2.36-.07-3.46-.62-.14-.07-.42.11-.88.25.52.4.87.65,1.19.92,0,0,0,.2,0,.31-.69-.3-1.36-.66-2.06-.9-3.71-1.27-8.3-1-11.29,2.6-2.74,3.32-2.94,8.53-.23,11.7.28.33.57.66.83,1,.44.59.87.56,1.32,0l.72,0a1.26,1.26,0,0,0-.66,1.6c.27,1.15.53,2.31.73,3.48.15.91.21,1.83.31,2.75-.18-.57-.41-1.13-.54-1.71-.39-1.73-.74-3.48-1.1-5.22l-.14,0c.52,2.57,1,5.13,1.54,7.7l.18,0,0-.8,1.53,1.46.24-.17a4.19,4.19,0,0,0,.1-.71c-.12-2-.25-4.09-.39-6.13-.06-1-.16-1.9-.24-2.85l.43,0,.07,0h.08l1.66,0,3,.19c-.11,2.72-.2,5.44-.37,8.15,0,.36-.45.76-.79,1a8.54,8.54,0,0,1-1.43.68c.21.27.34.34.46.34.86,0,1.06.33.87,1.14a5.5,5.5,0,0,0,0,1.57c.06.77.18,1.52.27,2.28l-1.32.1L99,130.13l-.7-.24,1.29-.08c-1.48-1.09-.9-3.13-2.44-4.12L96.69,127,96.08,125a3.65,3.65,0,0,0,.08,4.55l-1.52-.9c-.12-.21-.25-.42-.38-.63.26-1,.17-1.06-.8-1a1.82,1.82,0,0,1-.33,0c.13-.18.38-.38.36-.54-.1-.75-.28-1.49-.38-2a3.79,3.79,0,0,1-1.12.23,14.08,14.08,0,0,1-1.69-.35c.23-.3.46-.84.7-.85,1.1,0,1.17-.68,1.06-1.51l.78.36c-.16-.59-.29-1.12-.44-1.64-.6-2.13-1.19-4.26-1.82-6.39-.22-.75-.62-1.45-.83-2.21-.34-1.29-.6-2.6-.89-3.89a9.91,9.91,0,0,1-1.41.84,3.6,3.6,0,0,0-2,4.27c.33,1,.6,2.08.89,3.11Zm3.5-13,.32.38c.51-.14,1.12-.16,1-.94l.53-.34a6.86,6.86,0,0,0,.39.93,7.08,7.08,0,0,0,.56.79s0,.06,0,.08l.06,0c.83-1,1.67-2.07,2.48-3.12a.71.71,0,0,0-.21-1.13c-.78-.52-1.58-1-2.37-1.53l-1.18-.69-.58-.06c-.86.07-1.71.12-2.57.2-.59.06-.74.37-.47.92s.59,1.38.88,2.07l1.06,2.4Zm6,24.66c-.31-1.58-.33-3.24-1.14-4.69A10.91,10.91,0,0,0,94.59,123.85ZM101,83l-3.39,4.07.16.14C98.81,85.82,100.21,84.68,101,83ZM87.12,102.11V102H82.41v.12Zm18.4-2.83a.82.82,0,0,0-.21,0s0,.08-.06.13l.2,0S105.49,99.35,105.52,99.28Z" transform="translate(535.13 572.47)"/><path class="cls-14" d="M112.8,171.73l-.65.39a2.17,2.17,0,0,0-.87-.19,5.9,5.9,0,0,0-1,.42c-1.24.41-2.51.75-3.73,1.22-.92.35-1.08.87-.78,1.86l-.44.23a11.61,11.61,0,0,1-5.78.36A18.61,18.61,0,0,1,92,172.85c-1.72-1.26-3.31-2.71-5-4a13.76,13.76,0,0,0-1.47-.9l0-.39.2-.77c.3-.23.73-.46,0-.7v-.46l.35-.23-.4-.29v-.34c.13-.37.43-.78.36-1.11-.11-.54.13-.55.48-.58.08,1.09.14,2.18.24,3.26,0,.17.24.31.37.47a13.54,13.54,0,0,0,5.06,3l1.68.55c.7.4,1.71.12,2.18,1l.34-.2H98l1.47.28,2,0c.2-.11.58-.21.59-.35a6.43,6.43,0,0,0,0-1.64c-.17-1.25-.36-2.5-.61-3.73a2.86,2.86,0,0,0-.54-1.09c-.38-.54-.83-1-1.25-1.53l9.62-.17V167h-.06l.27-4.23c2.52-.12,5-.27,7.56-.37,1,0,1.18.12,1.15,1.14,0,1.33-.17,2.65-.26,4a15.49,15.49,0,0,0-1.63,1.1c-.91.76-1.76,1.59-2.63,2.39l-.83.73Zm-10.24.76a6.81,6.81,0,0,0,3.72-.55.34.34,0,0,0,.19-.16c.07-.16.2-.38.15-.5a.54.54,0,0,0-.47-.21C104.94,171.28,103.66,171.34,102.56,172.49Z" transform="translate(535.13 572.47)"/><path class="cls-11" d="M86.14,151.81l5.78-1.52,4.82-.58,2.36-.07,1.76-.14-.44-.7c.07-.34.13-.68.19-1,.12-.14.34-.28.35-.42,0-1.25,0-2.5,0-3.74l.16-1.54.17,0c0,.45.12.89.13,1.33.08,4.07.15,8.13.24,12.19,0,.53,0,1,.08,1.58-.16.1-.45.19-.47.31-.11.89-.17,1.79-.25,2.8l.76-.27a1.36,1.36,0,0,1-.64,1.55c-.54.4-1,.9-1.53,1.36l-.68,0a.22.22,0,0,0-.16,0l-1.52.07-.54,0v0l-.76.09-.21,0a.17.17,0,0,0-.11-.08h-.35l-1,0-.5-.06a3.43,3.43,0,0,0,.29-1.24c-.28-1.81-.66-3.6-1-5.4s-.57-3.69-.87-5.64a10.81,10.81,0,0,0-4.43.93l-1.13.09Z" transform="translate(535.13 572.47)"/><path class="cls-13" d="M86.39,116.47c-.29-1-.56-2.08-.89-3.11a3.6,3.6,0,0,1,2-4.27,9.91,9.91,0,0,0,1.41-.84c.29,1.29.55,2.6.89,3.89.21.76.61,1.46.83,2.21.63,2.13,1.22,4.26,1.82,6.39.15.52.28,1.05.44,1.64l-.78-.36a2.82,2.82,0,0,0-.58,0c-.83.19-1.64.41-2.46.61q-1.15-2.84-2.32-5.66A3.12,3.12,0,0,0,86.39,116.47Z" transform="translate(535.13 572.47)"/><path class="cls-13" d="M94.31,134.33l.51-.69c.09.05.24.22.32.19,1.06-.39.94.46,1,1,.27,1.4.61,2.8.76,4.21.12,1.07-.08,2.17,0,3.25.1,1.79-.12,3.62.65,5.33a14.53,14.53,0,0,1-2.09-.39c-1.43-.47-1.41-.51-1.38-2q.08-3.78.13-7.56a2.63,2.63,0,0,0-.17-2.35Z" transform="translate(535.13 572.47)"/><path class="cls-11" d="M82.85,161.74l-.1-.2-.28-4.17c0-.63,0-1.27,0-1.9a2.45,2.45,0,0,1,1.78-2.77,10.88,10.88,0,0,0-.32,2c.05,2.05.23,4.09.29,6.14,0,1,0,1.86,1.27,2-.12.14-.36.3-.34.42.08.72-.35.9-1,1l-.24-1.13-.18,0v2.31H82.23c-.1.28-.12.73-.33.84-.81.45-.69,1.16-.65,1.87v0a8.29,8.29,0,0,0-1.23-.53,1,1,0,0,1-.78-1.09c0-1.07-.07-2.14-.13-3.2a.78.78,0,0,1,.7-.93,4.1,4.1,0,0,0,1.08-.69l.33-.08.35,0c.9.07,1.1.6,1,1.4a9.92,9.92,0,0,0,0,1.22h.14Zm-2,4.4h.06v-2.5l-.27,0Zm2.4-.93c-.17-.23-.22-.33-.26-.33a1.15,1.15,0,0,0-.29.08Z" transform="translate(535.13 572.47)"/><path class="cls-13" d="M85.44,162.91c-1.22-.19-1.24-1.08-1.27-2-.06-2.05-.24-4.09-.29-6.14a10.88,10.88,0,0,1,.32-2l1-.53.79-.28.16-.08.53-.12-.06,1.9a35.59,35.59,0,0,0,.78,9.24l-.78.09H85.44Z" transform="translate(535.13 572.47)"/><path class="cls-5" d="M99,147.73c0-1.68.18-3.37.08-5s.29-3.72-.8-5.41a1,1,0,0,1,0-.69c.54-1.47.12-2.08-1.3-2.6-.67-.24-1.16-1-1.65-1.62a3.56,3.56,0,0,1-.4-1.08l.17-.17h0l.71-.1c0,1.29.54,2.15,1.47,2.26l1.49,1a9.46,9.46,0,0,1,.66,2c.15,1.39.14,2.8.22,4.19.14,2.43.29,4.85.44,7.28Z" transform="translate(535.13 572.47)"/><path class="cls-13" d="M93.26,145.41c-.45-2.32-.91-4.64-1.33-7a3.9,3.9,0,0,1,.88-3.71c.35-.35.6-.43,1-.12l.09.64.08,2.4c0,1.88-.06,3.76-.17,5.63A12.44,12.44,0,0,1,93.26,145.41Z" transform="translate(535.13 572.47)"/><path class="cls-13" d="M90.3,124.38a14.08,14.08,0,0,0,1.69.35,3.79,3.79,0,0,0,1.12-.23c.1.54.28,1.28.38,2,0,.16-.23.36-.36.54-.42.19-.84.41-1.27.57-.59.21-1.19.36-1.78.54-.23-1.22-.46-2.44-.68-3.66Z" transform="translate(535.13 572.47)"/><path class="cls-13" d="M96.16,129.56a3.65,3.65,0,0,1-.08-4.55l.61,1.94.43-1.26c1.54,1,1,3,2.44,4.12l-1.29.08-.32,0-1.35-.18Z" transform="translate(535.13 572.47)"/><path class="cls-6" d="M93.26,145.41a12.44,12.44,0,0,0,.51-2.13c.11-1.87.12-3.75.17-5.63h.3q-.06,3.78-.13,7.56c0,1.53,0,1.57,1.38,2a14.53,14.53,0,0,0,2.09.39l1.38.1,1.12.07h.53c-.06.34-.12.68-.19,1l-2.69-.41-3.36-.65-1.1-.62v-1.71Z" transform="translate(535.13 572.47)"/><path class="cls-13" d="M93.27,147.12l1.1.62c.11.11.2.28.33.32.8.24,1.74.29,1.79,1.46,0,.07.16.13.25.19l-4.82.58Z" transform="translate(535.13 572.47)"/><path class="cls-1" d="M96.6,129.69l1.35.18c-.06.16-.18.33-.15.48a2.47,2.47,0,0,0,2.09,2,1.4,1.4,0,0,1,1,1.32c.07.44.08.88.12,1.33l-1.45-.53-.15,0-.45-.55.29-.54c-.42-.45-.75-.82-1.1-1.18s-.94-1-1.46-1.47c-.13-.12-.42-.07-.64-.1l-.74.19Z" transform="translate(535.13 572.47)"/><path class="cls-9" d="M90.3,124.38l-.9.14c-.55.08-1.1.2-1.65.25a7.18,7.18,0,0,1-1-.1c.72-.33,1.45-.62,2.15-1,.4-.21.48-.54,0-.79l.17-.27c.82-.2,1.63-.42,2.46-.61a2.82,2.82,0,0,1,.58,0c.11.83,0,1.46-1.06,1.51C90.76,123.54,90.53,124.08,90.3,124.38Z" transform="translate(535.13 572.47)"/><path class="cls-10" d="M83.72,165.57v-2.31l.18,0,.24,1.13c.61-.13,1-.31,1-1,0-.12.22-.28.34-.42h0c0,1.53.06,3.07.1,4.6l0,.39-.92.16c0-.16,0-.41.1-.45.59-.29.54-.82.47-1.3,0-.27-.28-.71-.47-.74-.51-.06-.61.36-.58.8s.09,1.1.14,1.65l-.91.09A2.65,2.65,0,0,0,83.72,165.57Z" transform="translate(535.13 572.47)"/><path class="cls-9" d="M83.72,165.57a2.65,2.65,0,0,1-.32,2.55L83,168c-.06-.62-.11-1.25-.17-1.87l-.22-.09a1.8,1.8,0,0,1-1.39,2.2c0-.71-.16-1.42.65-1.87.21-.11.23-.56.33-.84Z" transform="translate(535.13 572.47)"/><path class="cls-9" d="M90.08,128.18c.59-.18,1.19-.33,1.78-.54.43-.16.85-.38,1.27-.57a1.82,1.82,0,0,0,.33,0c1-.11,1.06,0,.8,1l-1.48.44C91.86,128.61,90.91,129,90.08,128.18Z" transform="translate(535.13 572.47)"/><path class="cls-7" d="M82.47,157.37l.28,4.17-.7,0c0-1.16,0-2.27,0-3.38C82.08,157.86,82.33,157.62,82.47,157.37Z" transform="translate(535.13 572.47)"/><path class="cls-1" d="M93.86,135.25l-.09-.64-.15-2.22c0-.67.39-.72,1-.73l-.32,2.67-.24,1Z" transform="translate(535.13 572.47)"/><path class="cls-13" d="M88.85,122.89c.49.25.41.58,0,.79-.7.37-1.43.66-2.15,1-.29-.46-.06-.72.35-.91Z" transform="translate(535.13 572.47)"/><path class="cls-4" d="M95.36,130.79l.74-.19c0,.16,0,.41.12.47.89.49.91,1.38,1,2.21-.93-.11-1.51-1-1.47-2.26l-.71.1Z" transform="translate(535.13 572.47)"/><path class="cls-9" d="M84.31,168c0-.55-.1-1.1-.14-1.65s.07-.86.58-.8c.19,0,.42.47.47.74.07.48.12,1-.47,1.3-.08,0-.07.29-.1.45Z" transform="translate(535.13 572.47)"/><path class="cls-10" d="M81.25,168.28a1.8,1.8,0,0,0,1.39-2.2l.22.09c.06.62.11,1.25.17,1.87l-1.79.26Z" transform="translate(535.13 572.47)"/><path class="cls-8" d="M92.78,128.47l1.48-.44c.13.21.26.42.38.63A1.65,1.65,0,0,1,92.78,128.47Z" transform="translate(535.13 572.47)"/><path class="cls-9" d="M82.85,161.74l-.17,2.61h-.14a9.92,9.92,0,0,1,0-1.22c.11-.8-.09-1.33-1-1.4Z" transform="translate(535.13 572.47)"/><path class="cls-11" d="M86,151.89l-.79.28Z" transform="translate(535.13 572.47)"/><path class="cls-13" d="M93.27,145.48v0Z" transform="translate(535.13 572.47)"/><path class="cls-9" d="M81.21,161.78l-.33.08Z" transform="translate(535.13 572.47)"/><path class="cls-4" d="M95.09,131.12l-.17.17Z" transform="translate(535.13 572.47)"/><path class="cls-11" d="M75.53,86.34l5.82.49c.31,0,.61.09.91.14-1,1.5-2,3-3,4.49a1.81,1.81,0,0,0-.18,2.16,7.67,7.67,0,0,1,.23.78c.12.63.63,1.18.21,1.9-1,1.62-1.86,3.28-2.79,4.91a.61.61,0,0,1-.31.22,7.85,7.85,0,0,1-4.13.38c-3-.16-6-.41-8.95-.62l0,0,0,0v.49h-.08l-.07,0a1.7,1.7,0,0,0-2-1.07,7.9,7.9,0,0,1-1.52.25c-.55,0-1.1-.11-1.66-.14-3-.18-6-.28-9-.57-1.23-.11-2.55.18-3.69-.64-.24-.17-.73,0-1.1.05a4.57,4.57,0,0,1-.72.14c-1.08-.05-2.16-.12-3.24-.2-2.68-.2-5.36-.4-8-.64-1-.09-2-.28-2.93-.43-.1-.6-.19-1.2-.28-1.8.47.08.9.1.86-.58h0c.16-.21.41-.41.45-.64.08-.44,0-.9,0-1.33.05-.26.3-.47.46-.71a2.73,2.73,0,0,1,.49.76c.06.24-.09.54-.12.81a1.53,1.53,0,0,0,1.27,1.92l.75.25.31-.78c1,.68,1.72.11,2.55-.28a7.39,7.39,0,0,1,1.82-.3l-1.09-.44c.44,0,.66-.1.88-.1,1.28,0,2.56,0,3.84,0,.55,0,1.24,0,.87-.9a.46.46,0,0,1,.18-.41c.77-.39,1.43-1.14,2.48-.73l.3-.77a1.31,1.31,0,0,0,1.78-.28,8.42,8.42,0,0,1,2.67-1.89,5,5,0,0,0,2.65-2.4,3.16,3.16,0,0,1,2.75-1.62c.77-.07,1.56,0,2.34,0s1.64-.11,2.46-.1,1.54.08,2.4.13l.07-.63.28,0,.55.05,10.54.63Z" transform="translate(535.13 572.47)"/><path class="cls-13" d="M100.58,44.87c-.21,1.3-.39,2.61-.63,3.91s-.52,2.59-.78,3.89c0-.15,0-.31,0-.46V52a2,2,0,0,1,0-.25c0-.13,0-.25,0-.38v-.52l.06-5.33V39.15l.12-12.49c0-.69,0-1.39,0-2.08,0-.5,0-1,.54-1.29.13-.07.1-.44.17-.66a3.22,3.22,0,0,1,.25-.53v1c-.46.45-.24.88,0,1.3l.06,5.23,0,1.19v9.68l0,3.59,0,.35Z" transform="translate(535.13 572.47)"/><path class="cls-4" d="M99.25,45.51l-.06,5.33a2,2,0,0,1-.24-.57c0-1.38,0-2.77,0-4.15C99,45.91,99.15,45.71,99.25,45.51Z" transform="translate(535.13 572.47)"/><path class="cls-4" d="M99.27,42.66v1C98.78,43.32,98.78,43,99.27,42.66Z" transform="translate(535.13 572.47)"/><path class="cls-4" d="M99.26,44.17V45C98.81,44.71,98.81,44.44,99.26,44.17Z" transform="translate(535.13 572.47)"/><path class="cls-4" d="M99.29,40.14v.68C98.83,40.59,98.83,40.37,99.29,40.14Z" transform="translate(535.13 572.47)"/><path class="cls-9" d="M63.34,85.62l-.55-.05Z" transform="translate(535.13 572.47)"/><path class="cls-4" d="M99.28,41.82v.5C98.87,42.15,98.88,42,99.28,41.82Z" transform="translate(535.13 572.47)"/><path class="cls-4" d="M99.29,41.32v.17l-.15-.12Z" transform="translate(535.13 572.47)"/><path class="cls-4" d="M99.19,51.36c0,.13,0,.25,0,.38C99.17,51.61,99.18,51.49,99.19,51.36Z" transform="translate(535.13 572.47)"/><path class="cls-4" d="M99.16,52v0Z" transform="translate(535.13 572.47)"/><path class="cls-10" d="M107.94,96.7c-.08,0-.19,0-.23,0-2-2-4.3-3.63-5.89-6a3.26,3.26,0,0,1-.6-2c0-1.08-.07-2.17,0-3.25a4.14,4.14,0,0,1,.35-1.15c-.1-1-.26-2.13-.27-3.21-.08-6.94-.11-13.87-.17-20.81,0-5.12-.1-10.24-.15-15.37a7.22,7.22,0,0,1,.34,1.09c.34,2,.66,3.93,1,5.9.25,1.59.47,3.19.75,4.77.35,2,.76,4,1.13,6,.8,4.3,1.55,8.6,2.42,12.88.42,2.06,1.06,4.09,1.61,6.13-.14.27-.27.55-.41.83l-.43,0c-.72-.61-1.14.21-1.7.35-.82.18-.53.57-.19,1,1,1.19,2,2.4,3,3.57s1.75,1.44,2.47-.22c.16-.39.37-.77.55-1.15A10.84,10.84,0,0,0,117,87.12l2.53-.16c-.29.11-.58.2-.85.32s-.44.22-.43.3c.1.68-.45.58-.8.69a4.46,4.46,0,0,1-.74.13,16.24,16.24,0,0,0,.5,1.79,1.88,1.88,0,0,0,.7.83c.65.41,1.36.75,2,1.1s1.46.71,2.07,1c.81-1.36,1.54-2.57,2.24-3.79.54-.93,1.06-1.87,1.59-2.8l.7-.05c-.18.31-.35.62-.54.93-1,1.57-2,3.13-3,4.73a1.57,1.57,0,0,0-.1,1c.14.74.37,1.46.56,2.18-.62-.5-2-.56-2.09,0a1.25,1.25,0,0,0,.25,1c.27.27.85.54,1.13.42a2.55,2.55,0,0,1,2.13.23c.62.24,1.23.5,1.86.7s1.11.3,1.74.46c-.06-1,.65-1,1.4-1a9,9,0,0,0,1.64-.33c.05.27-.12.5-.64.52a11.26,11.26,0,0,0-1.65.19c-.14,0-.25.22-.38.34.15.1.29.27.44.28s.6-.06.91-.07c.78,0,1.56,0,2.35,0v.06l-3.67.36v2.17l.35-1.28c1.07,1.56,2.45,1.69,4,1.57,4.12-.33,8.26-.62,12.38-.94,1.11-.08,2.21-.2,3.31-.31l7.87-.54.34,0,.53,0-.15.42,14.32-1.17L171.5,98h.33l1.35-.13c.06,2.5-1.86,3.29-3.64,4.18-.49.25-1,.42-1.53.63l-.33,0-.52.3-2,.05a29.32,29.32,0,0,0,2.74-1.39c.92-.61,1.74-1.38,2.6-2.07l-.14-.24-4.79.34h-.23c-2.94.2-5.87.39-8.81.61-1.24.1-2.47.25-3.71.37h-.52l-.67,0c-3.12.22-6.24.44-9.36.68-.89.07-1.78.19-2.66.29-2.84.18-5.68.35-8.51.55-.19,0-.37.18-.56.27l-6,.26-5,.53-.22,0-.61,0-2.89.38c.33,1,.66,1.83.92,2.73a13.35,13.35,0,0,1-.14,8.65q-1.32,3.44-2.68,6.83c-.25.62-.06.93.52,1.13a4.43,4.43,0,0,1,1.22.51c.28.2.4.62.59.94-.35.07-.73.27-1,.19a15.14,15.14,0,0,1-1.78-.74c-.2,1-.34,1.85-.59,2.72-.19.66.22,1.66-.92,1.87,0,0-.09,0-.13,0l-.29,0h-.06l-.17,0-1.08-.11c-1.12-.76-1.53-.71-2.21.29l-1.75.75-3.13.44c.07-.77.13-1.55.23-2.31s.22-1.68.41-2.5a14.1,14.1,0,0,0,.57-1.74c.11-2,.13-4,.16-6,0-.82-.05-1.65-.07-2.47a19.67,19.67,0,0,1,2.67.51,1.2,1.2,0,0,0,1.58-.42c.68-1,1.35-2,2-3,.41.73,0,1.29-.43,1.8a6.59,6.59,0,0,0-1.76,4,2.75,2.75,0,0,1-.16.56c-.58,1.84-1.17,3.68-1.74,5.52,0,.07,0,.16,0,.23.81-.08,1.13-.32,1.28-1,.26-1.17.49-2.34.76-3.5a2.66,2.66,0,0,1,.3-.64l.22.09c-.05.29-.1.57-.17.86-.21,1-.47,2-.62,3a1,1,0,0,0,.36.83c.87.44,1.11.28,1.22-.8a45.3,45.3,0,0,1,2.66-10.15c1-2.89,1.41-5.72.2-8.59a46.42,46.42,0,0,0-2.21-4.18l.09-.09.8-.31.13-.33.17-.33v0c.44-.41.58,0,.82.26s.4.38.56.34.35-.31.46-.52a2.61,2.61,0,0,0,.16-.64c.28-1.23.57-2.47.81-3.71.1-.48.18-1.06-.54-1.17s-1.32-.11-2-.16a3,3,0,0,0-1.16.31c-.84.66-1.62,1.41-2.39,2.15A4.36,4.36,0,0,0,107.94,96.7Zm3.27,25.62-.13.39,2.31.75.12-.4Z" transform="translate(535.13 572.47)"/><path class="cls-9" d="M165.55,99.68l4.79-.34.14.24c-.86.69-1.68,1.46-2.6,2.07a29.32,29.32,0,0,1-2.74,1.39h0l-.32-.53.09-.64a.16.16,0,0,0,0-.16l.55-1.87Z" transform="translate(535.13 572.47)"/><path class="cls-8" d="M164.83,102.52l.32.53-.4.16Z" transform="translate(535.13 572.47)"/><path class="cls-1" d="M152.28,100.66h.52l-.3.3Z" transform="translate(535.13 572.47)"/><path class="cls-8" d="M165.89,103.89a.41.41,0,0,1-.11,0s0,0,0-.06h.11S165.89,103.86,165.89,103.89Z" transform="translate(535.13 572.47)"/><path class="cls-8" d="M165.55,99.68l-.05.17-.18-.18Z" transform="translate(535.13 572.47)"/><path class="cls-8" d="M165,101.72a.16.16,0,0,1,0,.16Z" transform="translate(535.13 572.47)"/><path class="cls-11" d="M156.8,99.17l-7.87.54a1.2,1.2,0,0,0,.62-1.47c-.19-.86,0-1.1.87-1.21.66-.08,1.33-.12,2-.19l1.89-.26v-.27h-4.16v-.23c1.07-.11,2.13-.19,3.2-.33a1,1,0,0,0,.64-.4c.08-.14-.08-.43-.15-.7-.37.32-.61.71-.89.74-1.21.14-2.43.18-3.65.25a.73.73,0,0,1-.31-.09l-1.75-.76c-.2-.09-.39-.21-.58-.31a1,1,0,0,1,.65-.31c1.07-.18,2.15-.3,3.2-.53.84-.18.91-.58.32-1.21a20.81,20.81,0,0,1-1.67-1.85,1.79,1.79,0,0,1,.09-2.49c.12-.15.29-.33.29-.5,0-.81.59-1,1.18-1.34s1-.43.91-1.13l.47,0c.1.77.76.69,1.23.7.84,0,1.7-.09,2.71-.16.15,1.18.36,2.37.43,3.58.09,1.57.11,3.16.09,4.74a6.76,6.76,0,0,1-.38,1.58c.78.76.2,1.94.69,2.87l-.29-12.81a4,4,0,0,0,4.67,1.06c-.11-.64-.08-1.2.86-1.12.13,0,.31-.42.44-.66a2.35,2.35,0,0,0,.14-.52l2.87-1.44.13-.13.22-.27h0l.22-.23h.06v-.07a2.28,2.28,0,0,0,.22-.22h0l1.41-2.66c.05-.17.1-.34.14-.52a.19.19,0,0,0,0-.15l.09-.36.09-.31c.75-3.84,1.45-7.69,2.28-11.51a28.1,28.1,0,0,1,1.39-3.88,3.1,3.1,0,0,1,.44-.65l.23,0c.06,2.09.13,4.17.19,6.26a4.83,4.83,0,0,0-.27,1c-.13,2.21-.22,4.41-.32,6.61l0,.41.07.22a41.17,41.17,0,0,1,.93,9.2c-.09,2.06-.07,4.12,0,6.18,0,.83.36,1.65.47,2.48a4.39,4.39,0,0,1-.09,1.49,3.69,3.69,0,0,1-.47.87,18.57,18.57,0,0,1-.65-1.76c-.21-.79-.34-1.61-.52-2.49l-.38.33-.75-.72-.22.16L171.83,98h-.33a1.8,1.8,0,0,0-.32-.06c-3.21.25-6.42.49-9.63.76-1.29.11-2.58.28-3.88.43l-.53,0Zm-1.67-3,0,.27.63.07,0-.26Zm16.35-5-.22,0-.1.55.25,0Z" transform="translate(535.13 572.47)"/><path class="cls-9" d="M151.61,85.12c.09.7-.44.91-.91,1.13s-1.18.53-1.18,1.34c0,.17-.17.35-.29.5a1.79,1.79,0,0,0-.09,2.49,20.81,20.81,0,0,0,1.67,1.85c.59.63.52,1-.32,1.21-1.05.23-2.13.35-3.2.53a1,1,0,0,0-.65.31c.19.1.38.22.58.31l1.75.76a.73.73,0,0,0,.31.09c1.22-.07,2.44-.11,3.65-.25.28,0,.52-.42.89-.74.07.27.23.56.15.7a1,1,0,0,1-.64.4c-1.07.14-2.13.22-3.2.33v.23h4.16v.27l-1.89.26c-.66.07-1.33.11-2,.19-.87.11-1.06.35-.87,1.21a1.2,1.2,0,0,1-.62,1.47c-1.1.11-2.2.23-3.31.31-4.12.32-8.26.61-12.38.94-1.51.12-2.89,0-4-1.57l-.35,1.28V98.5l3.67-.36v-.06c-.79,0-1.57,0-2.35,0-.31,0-.61.09-.91.07s-.29-.18-.44-.28c.13-.12.24-.32.38-.34a11.26,11.26,0,0,1,1.65-.19c.52,0,.69-.25.64-.52a9,9,0,0,1-1.64.33c-.75,0-1.46,0-1.4,1-.63-.16-1.19-.28-1.74-.46s-1.24-.46-1.86-.7a2.55,2.55,0,0,0-2.13-.23c-.28.12-.86-.15-1.13-.42a1.25,1.25,0,0,1-.25-1c.12-.53,1.47-.47,2.09,0-.19-.72-.42-1.44-.56-2.18a1.57,1.57,0,0,1,.1-1c1-1.6,2-3.16,3-4.73.19-.31.36-.62.54-.93h.14l3.69-.28,9.71-.41a3.48,3.48,0,0,0,.64-.14l6.53-.37.33,0,1,0ZM140,96.33l.13,0V92.51H140Zm-16.13-.4a1.16,1.16,0,0,0-.31-.19s-.16.1-.15.14.08.2.15.22S123.74,96,123.89,95.93Z" transform="translate(535.13 572.47)"/><path class="cls-9" d="M162.67,84.34a2.35,2.35,0,0,1-.14.52c-.13.24-.31.67-.44.66-.94-.08-1,.48-.86,1.12a4,4,0,0,1-4.67-1.06l.29,12.81c-.49-.93.09-2.11-.69-2.87a6.76,6.76,0,0,0,.38-1.58c0-1.58,0-3.17-.09-4.74-.07-1.21-.28-2.4-.43-3.58-1,.07-1.87.18-2.71.16-.47,0-1.13.07-1.23-.7,2.27-.14,4.53-.26,6.8-.42C160.14,84.58,161.41,84.45,162.67,84.34Z" transform="translate(535.13 572.47)"/><path class="cls-3" d="M361.49,576.36q.66,3,1.31,6l-1.78.38c-.4-2-.79-4-1.19-6.06Z" transform="translate(535.13 572.47)"/><path class="cls-9" d="M57,101.26l-4.52-.35L41.25,100,40.09,100l-1.4-.14-5.82-.41-.08.26a13.55,13.55,0,0,0,1.7,1.13c1.36.66,2.77,1.23,4.16,1.84l-.93,0a19.37,19.37,0,0,1-6.29-2.05,4,4,0,0,1-2.12-2.19c1,.15,1.94.34,2.93.43,2.67.24,5.35.44,8,.64,1.08.08,2.16.15,3.24.2a4.57,4.57,0,0,0,.72-.14c.37,0,.86-.22,1.1-.05,1.14.82,2.46.53,3.69.64,3,.29,6,.39,9,.57.56,0,1.11.16,1.66.14a7.9,7.9,0,0,0,1.52-.25,1.7,1.7,0,0,1,2,1.07L59,101.54l-.66-.05-.67-.16-.33,0Z" transform="translate(535.13 572.47)"/><path class="cls-15" d="M37.72,102.65l.94,0c.66.13.88-.11.67-.76s-.43-1.38-.64-2.06l1.4.14-.9.33c0,.14,0,.44.1.47,1,.36.73,1.17.68,2C39.22,102.93,38.46,103.4,37.72,102.65Z" transform="translate(535.13 572.47)"/><path class="cls-14" d="M102.26,51.85c-.32-2-.64-3.93-1-5.9a7.22,7.22,0,0,0-.34-1.09h-.36c0-.15-.06-.3-.08-.45s0-.23,0-.35l0-3.59.23-.17-.24-.17c0-.66,0-1.33,0-2a1.2,1.2,0,0,0,0-1.69v-.32l.23-.13-.24-.21v-.33a.79.79,0,0,0,0-1.34c0-1.11,0-2.22,0-3.33.49-.39.43-.79,0-1.19l-.06-5.23,0-1.3v-1c.54-.31.67,0,.94.45,1,1.88.62,3.9.68,5.85.14,4.26.09,8.51.13,12.77Q102.21,46.51,102.26,51.85Z" transform="translate(535.13 572.47)"/><path class="cls-14" d="M111.49,86c-.18.38-.39.76-.55,1.15-.72,1.66-1.43,1.38-2.47.22s-2-2.38-3-3.57c-.34-.41-.63-.8.19-1,0,.74.46.59.91.43l2.43-.18a3.11,3.11,0,0,0,.29,3.14c.25-.57.51-1.19.79-1.79a2.85,2.85,0,0,0-.23-3.05,2,2,0,0,1,2.06,2.88C111.7,84.8,111.62,85.4,111.49,86Z" transform="translate(535.13 572.47)"/><path class="cls-8" d="M109.82,81.35a2.85,2.85,0,0,1,.23,3.05c-.28.6-.54,1.22-.79,1.79a3.11,3.11,0,0,1-.29-3.14c.14-.18.29-.35.44-.53a2.44,2.44,0,0,0-.66-.22,6.66,6.66,0,0,0-1,.11c.14-.28.27-.56.41-.83Z" transform="translate(535.13 572.47)"/><path class="cls-15" d="M96.6-470.8,96-474.39l1.34-.37,1.2,3.51Z" transform="translate(535.13 572.47)"/><path class="cls-7" d="M99,26.6v.67h-.14V26.6Z" transform="translate(535.13 572.47)"/><path class="cls-7" d="M98.87,28.27l0-.06.09.08,0,.06Z" transform="translate(535.13 572.47)"/><path class="cls-15" d="M37.22,83l-.86-.68Z" transform="translate(535.13 572.47)"/><path class="cls-9" d="M63.31,101.68v-.49h0c3,.21,6,.46,8.95.62a7.85,7.85,0,0,0,4.13-.38.61.61,0,0,0,.31-.22c.93-1.63,1.83-3.29,2.79-4.91.42-.72-.09-1.27-.21-1.9a7.67,7.67,0,0,0-.23-.78l.12-1.31c.3,1,.55,2,.9,2.91A1.12,1.12,0,0,1,80,96.35c-.94,1.56-1.8,3.17-2.68,4.77a3.05,3.05,0,0,0-.13.44l2.18.18-.07.17a2.65,2.65,0,0,0,.81.43c.87.11,1.75.15,2.63.21,0,.57.4.48.74.48s.75.07.72-.5l2.86.2c-.12.38-.21.65-.29.93L79.05,103c-2.15-.18-4.3-.4-6.46-.56-.91-.07-1.83,0-2.75-.07l-.65-.07-1.85-.25Z" transform="translate(535.13 572.47)"/><path class="cls-1" d="M298.27,562.57l-.24.33c-.17-.16-.36-.3-.52-.47s.15-.21.23-.32Z" transform="translate(535.13 572.47)"/><path class="cls-5" d="M67.34,102.06l1.85.25Z" transform="translate(535.13 572.47)"/><path class="cls-3" d="M147.6,85.26l-.33,0,.2-.21Z" transform="translate(535.13 572.47)"/><path class="cls-9" d="M125.86,86.54c-.53.93-1,1.87-1.59,2.8-.7,1.22-1.43,2.43-2.24,3.79-.61-.3-1.34-.64-2.07-1s-1.4-.69-2-1.1a1.88,1.88,0,0,1-.7-.83,16.24,16.24,0,0,1-.5-1.79,4.46,4.46,0,0,0,.74-.13c.35-.11.9,0,.8-.69,0-.08.27-.23.43-.3s.56-.21.85-.32l2.81-.49Z" transform="translate(535.13 572.47)"/><path class="cls-10" d="M126.7,86.48h0Z" transform="translate(535.13 572.47)"/><path class="cls-10" d="M121.19,161.07l1.48,0a13.75,13.75,0,0,1,1.56.85,1.15,1.15,0,0,1,.44.78c0,.92,0,1.84,0,2.76,0,1.35-.21,1.56-1.58,1.51-.06.22-.11.46-.17.7h-.56l-1.16-.38c1.49.09,1.53.09,1.72-1.39a16.87,16.87,0,0,0,.07-2.25c0-.6-.3-.79-.86-.62-.23.07-.47.12-.82.21.1.29.2.55.27.83a1.5,1.5,0,0,1,.09.72,16.54,16.54,0,0,1-.5,1.61,2.38,2.38,0,0,1-.26.5c-.21.23-.44.57-.7.61s-.49-.29-.79-.48c-.24.61-.87.57-1.52.46.09-1.33.22-2.65.26-4,0-1-.15-1.18-1.15-1.14-2.52.1-5,.25-7.56.37l-.21.12-9.62.17a.49.49,0,0,1,0-.12c.51-.46,1-1,1.53-1.36a1.36,1.36,0,0,0,.64-1.55l0-2.84c0-.53-.07-1-.08-1.58-.09-4.06-.16-8.12-.24-12.19,0-.44-.09-.88-.13-1.33v0l.32.18c.06,1.19.12,2.38.17,3.57v.52l.15.85,0,.49.13,1c0,.46,0,.8.61.85,3.1.26,6.2.56,9.3.84,1.09.28,2.2.52,3.28.83s2.43.74,3.63,1.15a3.87,3.87,0,0,1,2.14,2.19l0,.34c0,.55,0,1.1,0,1.65-.18.26-.47.5-.5.77-.13,1.06-.11,2.15-.29,3.2-.12.75.1,1,.79.88l.15-.31Zm-.23,2.85-1.08.24.18.76h.9Z" transform="translate(535.13 572.47)"/><path class="cls-4" d="M122.65,167.71h0Z" transform="translate(535.13 572.47)"/><path class="cls-4" d="M119.28,103.31l.22,0Z" transform="translate(535.13 572.47)"/><path class="cls-9" d="M121.17,166.44a16.54,16.54,0,0,0,.5-1.61,1.5,1.5,0,0,0-.09-.72c-.07-.28-.17-.54-.27-.83.35-.09.59-.14.82-.21.56-.17.87,0,.86.62a16.87,16.87,0,0,1-.07,2.25c-.19,1.48-.23,1.48-1.72,1.39Z" transform="translate(535.13 572.47)"/><path class="cls-8" d="M105.79,175.43c-.3-1-.14-1.51.78-1.86,1.22-.47,2.49-.81,3.73-1.22a5.9,5.9,0,0,1,1-.42,2.17,2.17,0,0,1,.87.19l-1.83,1.28-.37.34,0-.05Z" transform="translate(535.13 572.47)"/><path class="cls-12" d="M75,519.16a5.48,5.48,0,0,1,0,.7s-.25,0-.39.07c0-.24,0-.47,0-.71A1.76,1.76,0,0,1,75,519.16Z" transform="translate(535.13 572.47)"/><path class="cls-5" d="M110,173.74l.37-.34Z" transform="translate(535.13 572.47)"/><path class="cls-10" d="M172.1,76.22c0-.14,0-.27,0-.41l.89.42c.25,1.51.48,3,.78,4.52a1.2,1.2,0,0,0,.65.7c.52.27.78.91.31,1.25s-.39.76-.31,1.17c.34,1.75.74,3.48,1.08,5.23a51.36,51.36,0,0,1,.88,5.08c.15,1.7-.27,2.08-1.93,2.39-.4.07-.8.18-1.2.28l-.2-.19a3.69,3.69,0,0,0,.47-.87,4.39,4.39,0,0,0,.09-1.49c-.11-.83-.44-1.65-.47-2.48-.07-2.06-.09-4.12,0-6.18a41.17,41.17,0,0,0-.93-9.2Z" transform="translate(535.13 572.47)"/><path class="cls-9" d="M173,96.66l.2.19,0,1-1.35.13q-.68-2.89-1.34-5.79l.22-.16.75.72.38-.33c.18.88.31,1.7.52,2.49A18.57,18.57,0,0,0,173,96.66Z" transform="translate(535.13 572.47)"/><path class="cls-9" d="M173,76.23l-.89-.42c.1-2.2.19-4.4.32-6.61a4.83,4.83,0,0,1,.27-1Z" transform="translate(535.13 572.47)"/><path class="cls-3" d="M168.38,75v-.36h.07V75Z" transform="translate(535.13 572.47)"/><path class="cls-14" d="M183,61.73l0,.05-.09-.08,0-.05Z" transform="translate(535.13 572.47)"/><path class="cls-3" d="M168.12,78l-.09.31Z" transform="translate(535.13 572.47)"/><path class="cls-3" d="M165.89,82.5l-.22.27Z" transform="translate(535.13 572.47)"/><path class="cls-3" d="M166.07,82.26l-.22.23Z" transform="translate(535.13 572.47)"/><path class="cls-3" d="M166.35,82a2.28,2.28,0,0,1-.22.22Z" transform="translate(535.13 572.47)"/><path class="cls-3" d="M167.94,78.64a.19.19,0,0,1,0,.15l0-.12S167.92,78.65,167.94,78.64Z" transform="translate(535.13 572.47)"/><path class="cls-13" d="M26.64,93.11c-.08-.06-.24-.13-.24-.19.29-3.66.58-7.32.9-11,0-.27.26-.52.4-.78L28,84.8a21.36,21.36,0,0,0,.38,6.76h-.24l-.27-.6-.23.88.52.43-.31.18h0l-.73.4-.43.27Z" transform="translate(535.13 572.47)"/><path class="cls-12" d="M28.13,92.27l-.52-.43.23-.88.27.6h.24A21.36,21.36,0,0,1,28,84.8c.28,2.06.55,4.11.83,6.16C28.88,91.56,29,92.16,28.13,92.27Z" transform="translate(535.13 572.47)"/><path class="cls-10" d="M29.89,96a1.68,1.68,0,0,1-1.1-1.74c.41.55,1.33.76,1.11,1.73Z" transform="translate(535.13 572.47)"/><path class="cls-11" d="M26.65,93.12l.43-.27Z" transform="translate(535.13 572.47)"/><path class="cls-12" d="M27.81,92.45h0Z" transform="translate(535.13 572.47)"/><path class="cls-9" d="M35,92.17c-.48-.56-1.14-.91-.79-1.73A1.21,1.21,0,0,1,35,92.17Z" transform="translate(535.13 572.47)"/><path class="cls-14" d="M102,147.68c0-.16,0-.33,0-.49l.65-.93-.8.08v-.52l.35-.31c.11-.15.28-.28.31-.43.26-1.29.51-2.58.73-3.87,0-.17-.14-.37-.21-.56v-.33c.18-1,.35-2,.55-3.09l-.71.07V136l.65.43c0-.45,0-.78,0-1.1,0-.63-.33-.5-.66-.18l-.34-.5-.47-.47-.36.43,0,.08a3.78,3.78,0,0,0-.24.92c0,2.16,0,4.32-.07,6.48v0l-.17,0-.06-7.08c0-.45,0-.89-.12-1.33a1.4,1.4,0,0,0-1-1.32,2.47,2.47,0,0,1-2.09-2c0-.15.09-.32.15-.48l.32,0,.7.24a1.34,1.34,0,0,0,1.46,1.07c.11,0,.23-.66.35-1l1.32-.1,1-.14,3.14-.44a2.25,2.25,0,0,0,.35.45,21.74,21.74,0,0,1,2.77,2.35,19.47,19.47,0,0,1,1.8,3l.1.31.11.63c0,.07.07.15.11.22l0,2.13c-.15.77-.33,1.54-.45,2.32a31.25,31.25,0,0,0-.58,4.06,8.13,8.13,0,0,0,.54,2.64c.29.93.71,1.81,1.08,2.71-3.1-.28-6.2-.58-9.3-.84-.61-.05-.65-.39-.61-.85C102.76,148.24,102.31,148,102,147.68Zm-.37-14.43-.09-.17s-.12.08-.15.14,0,.09.06.13Z" transform="translate(535.13 572.47)"/><path class="cls-14" d="M110.63,112c-.67,1-1.34,2-2,3a1.2,1.2,0,0,1-1.58.42,19.67,19.67,0,0,0-2.67-.51l-1.25,0-3-.19a4,4,0,0,0,1.22-.45,9,9,0,0,0,1.09-1.34c-.43-.18-.85-.36-1.29-.53-.27-.1-.55-.16-.83-.24l.46,0,1.39-.09c.18,0,.36,0,.54,0,.8,0,1-.58,1.09-1.2s-.59-.57-1-.68c-.21,0-.43-.08-.64-.12l-1,.11H98.8c-.43,0-.46-.2-.19-.5a.3.3,0,0,0,.16,0l1.66-.16c.9-.19,2,.24,2.6-1l-.16.82c1-.18.86-.9.84-1.56.84-.14,1.77-.11,2-1.2,0,1.1.1,2.2.15,3.2l.83.09.16-2.33c.15-.26.42-.52.43-.78a25.33,25.33,0,0,0-.14-2.75c0-.2-.25-.39-.38-.59l-.43-.75-.83.51c-1,.14-1.24.5-1.07,1.45.07.38.12.77.18,1.15-.11.09-.26.15-.31.26a1.66,1.66,0,0,1-2.13.9,2.42,2.42,0,0,0-.87.08l-.73-.72-.12-1.11c0-.15.11-.37.06-.42-.34-.28-.71-.52-.93-.68l.75-1c0,.6.23.68.7.39l1.58-1c-.17-.23-.39-.81-.7-.87a1.93,1.93,0,0,0-1.94.28c-.26.26-.84.2-1.28.29-.24,0-.52-.18-.7-.09-.71.34-1.38.75-2.15,1.18l-.08.9h-.11l-.18-.63,0-1.69s0,0,0,0a.36.36,0,0,0,0-.09l0,0-.14,0a4.72,4.72,0,0,0-.6.67,7.56,7.56,0,0,0-.43.91c-.19.38-.36.78-.57,1.15a6,6,0,0,0-1.12,3.8v.36c.06.66.11,1.33.16,2l0,.33.1.29.1.38.06.15c.27.71,1,1.32.48,2.21,0,0,0,.1,0,.15l-.2.2c-2.71-3.17-2.51-8.38.23-11.7,3-3.65,7.58-3.87,11.29-2.6.7.24,1.37.6,2.06.9l2.7,2.32h0l.17.35h0l.18.17h0l.34.68h0l.18.35h0l.35,1.46.33,3.77Zm-4.5-9.83c-.95-1.85-2.83-1.88-4.5-2.1-2.07-.27-5.32,1.18-5.66,2.5,1.72-.63,3.15-1.73,5-1.63A10.33,10.33,0,0,1,106.13,102.2Zm1.34,1c1,1.59.35,3.42.73,5l1.34.43c.19.07.38.16.56.24a1.93,1.93,0,0,0,.21-.67A6.54,6.54,0,0,0,107.47,103.15Z" transform="translate(535.13 572.47)"/><path class="cls-9" d="M109.64,103.2l-2.7-2.32c0-.11.09-.28,0-.31-.32-.27-.67-.52-1.19-.92.46-.14.74-.32.88-.25,1.1.55,2.34.27,3.46.62l.1.12-.09-.13v-.34l.43.4a46.42,46.42,0,0,1,2.21,4.18c1.21,2.87.82,5.7-.2,8.59A45.3,45.3,0,0,0,109.94,123c-.11,1.08-.35,1.24-1.22.8a1,1,0,0,1-.36-.83c.15-1,.41-2,.62-3,.07-.29.12-.57.17-.86l-.22-.09a2.66,2.66,0,0,0-.3.64c-.27,1.16-.5,2.33-.76,3.5-.15.69-.47.93-1.28,1,0-.07-.07-.16,0-.23.57-1.84,1.16-3.68,1.74-5.52a2.75,2.75,0,0,0,.16-.56,6.59,6.59,0,0,1,1.76-4c.43-.51.84-1.07.43-1.8.17-.7.35-1.4.52-2.1l.34.53a1.76,1.76,0,0,0,.78-2,9.8,9.8,0,0,1-.42-1.72,7.63,7.63,0,0,0-.41-2.19c-.38-1.09-1.37-1.32-2-2Z" transform="translate(535.13 572.47)"/><path class="cls-9" d="M103.11,114.91l1.25,0c0,.82.08,1.65.07,2.47,0,2-.05,4-.16,6a14.1,14.1,0,0,1-.57,1.74c-.19.82-.3,1.66-.41,2.5s-.16,1.54-.23,2.31l-1,.14c-.09-.76-.21-1.51-.27-2.28a5.5,5.5,0,0,1,0-1.57c.19-.81,0-1.18-.87-1.14-.12,0-.25-.07-.46-.34a8.54,8.54,0,0,0,1.43-.68c.34-.25.77-.65.79-1C102.91,120.35,103,117.63,103.11,114.91Z" transform="translate(535.13 572.47)"/><path class="cls-13" d="M97.83,114.69c.09,1,.19,1.9.25,2.85.14,2,.27,4.09.39,6.13a4.19,4.19,0,0,1-.1.71l-.24.17-1.53-1.46v0c-.1-.92-.16-1.84-.31-2.75-.2-1.17-.46-2.33-.73-3.48a1.26,1.26,0,0,1,.66-1.6l.22-.18.62-.25.09-.17,0-.05Z" transform="translate(535.13 572.47)"/><path class="cls-6" d="M107.94,96.7a4.36,4.36,0,0,1,.59-.86c.77-.74,1.55-1.49,2.39-2.15a3,3,0,0,1,1.16-.31c0,.88.11,1.77.06,2.66s-.23,2-.35,2.94v0l-.17.33-.13.33a3.37,3.37,0,0,1-.63-.62.76.76,0,0,0-1-.39l-.43-.15a.16.16,0,0,1-.08-.08l-.51-.75h0l-.17-.17h0l-.35-.49h0l-.16-.17h0l-.16-.16Z" transform="translate(535.13 572.47)"/><path class="cls-1" d="M91.42,94.34c.79.51,1.59,1,2.37,1.53A.71.71,0,0,1,94,97c-.81,1-1.65,2.08-2.48,3.12l-.06,0s0,0,0-.08c-.49-1.35-1-2.69-1.44-4.07a15.11,15.11,0,0,1-.33-2.35l.58.06c.05.47.1.93.16,1.56Z" transform="translate(535.13 572.47)"/><path class="cls-10" d="M95.25,82.12a18.27,18.27,0,0,1,1.79.67c.11.06.17.48.09.65a30.26,30.26,0,0,1-1.45,2.69,17.29,17.29,0,0,1-1.45,1.77l-.34-1.08-1.09.88a3.61,3.61,0,0,1,0-.66c.26-1,.59-2.07.8-3.12.15-.78.42-1.16,1.26-.82.16.06.37,0,.71,0Z" transform="translate(535.13 572.47)"/><path class="cls-1" d="M100.27,112.16c.28.08.56.14.83.24.44.17.86.35,1.29.53a9,9,0,0,1-1.09,1.34,4,4,0,0,1-1.22.45l-1.66,0c.68-.55,1.45-1,1.33-2.28l-1.14.41a3.91,3.91,0,0,0-3.71,1.44l-.14.07-1-.27c1.2-1.26,2.87-1.39,4.42-1.81l1.55-.28Z" transform="translate(535.13 572.47)"/><path class="cls-12" d="M89.66,93.59A15.11,15.11,0,0,0,90,95.94c.41,1.38,1,2.72,1.44,4.07a7.08,7.08,0,0,1-.56-.79,6.86,6.86,0,0,1-.39-.93l-.53.34.12-1.28-.36-1.11c-.44-1.3-.44-1.3-1.79-1.12-.47-.14-.57.12-.48.48s.28.83.41,1.25c.24.78.47,1.56.71,2.33l-1.06-2.4c-.29-.69-.55-1.39-.88-2.07s-.12-.86.47-.92C88,93.71,88.8,93.66,89.66,93.59Z" transform="translate(535.13 572.47)"/><path class="cls-12" d="M90.91,85.78c-.23-.84-.47-1.67-.69-2.51-.26-1,.7-2,1.93-2-.1.13-.2.27-.31.4l-.41.1,0,.14H92a7.14,7.14,0,0,1,.14,1c0,.63-.07,1.25-.11,1.88-.07-.46-.12-.92-.23-1.37,0-.19-.25-.34-.39-.5-.1.18-.32.38-.3.55.12,1,.27,2,.48,2.94,0,.21.36.36.56.54l.05.78a13.2,13.2,0,0,1-.9-1.08A4.39,4.39,0,0,1,90.91,85.78Z" transform="translate(535.13 572.47)"/><path class="cls-15" d="M88.56,99.18c-.24-.77-.47-1.55-.71-2.33-.13-.42-.31-.83-.41-1.25s0-.62.48-.48a4.2,4.2,0,0,0,.65,1.16,11.34,11.34,0,0,0,1.5,1.07L90,98.63c.07.78-.54.8-1,.94-.1-.13-.21-.25-.32-.38Z" transform="translate(535.13 572.47)"/><path class="cls-14" d="M95.25,82.12l.34.94c-.34,0-.55.1-.71,0-.84-.34-1.11,0-1.26.82-.21,1-.54,2.08-.8,3.12a3.61,3.61,0,0,0,0,.66h0l-.38-.09a19.27,19.27,0,0,0,.52-6.46l.5.08.18,0,.3.06a.56.56,0,0,1,0,.12c0,.16-.1.45-.06.47a4.88,4.88,0,0,0,.75.2.16.16,0,0,1,.1,0h.19Z" transform="translate(535.13 572.47)"/><path class="cls-2" d="M92.93,81.14a19.27,19.27,0,0,1-.52,6.46l0,.19-.21,0c0-.26,0-.52-.05-.78L92,84.81c0-.63.1-1.25.11-1.88a7.14,7.14,0,0,0-.14-1l-.14-.24c.11-.13.21-.27.31-.4Z" transform="translate(535.13 572.47)"/><path class="cls-10" d="M79.18,92.31l-.12,1.31a1.81,1.81,0,0,1,.18-2.16c1-1.47,2-3,3-4.49l.66,0-.36.51Z" transform="translate(535.13 572.47)"/><path class="cls-9" d="M82.56,87.51l.36-.51,3.49.17c-.89,1.18-2.16,1-3.39.92C82.85,88.07,82.71,87.71,82.56,87.51Z" transform="translate(535.13 572.47)"/><path class="cls-12" d="M94.89,114.33a3.94,3.94,0,0,1,3.72-1.44c-.06.28-.14.56-.19.85s-.1.66-.15,1l-.43,0-.64-.06c-.09-.39.81-.91.09-1.12l-1.25.4.25.82Z" transform="translate(535.13 572.47)"/><path class="cls-12" d="M96.6,123.09l0,.8-.18,0c-.51-2.57-1-5.13-1.54-7.7l.14,0c.36,1.74.71,3.49,1.1,5.22.13.58.36,1.14.54,1.71Z" transform="translate(535.13 572.47)"/><path class="cls-9" d="M94.59,123.85a10.91,10.91,0,0,1-1.14-4.69C94.26,120.61,94.28,122.27,94.59,123.85Z" transform="translate(535.13 572.47)"/><path class="cls-4" d="M98.27,114.73c0-.33.09-.67.15-1s.13-.57.19-.85l1.14-.41c.12,1.24-.65,1.73-1.33,2.28h-.08Z" transform="translate(535.13 572.47)"/><path class="cls-13" d="M101,83c-.76,1.66-2.16,2.8-3.23,4.21l-.16-.14Z" transform="translate(535.13 572.47)"/><path class="cls-6" d="M100.78,130.18c-.12.36-.24,1-.35,1A1.34,1.34,0,0,1,99,130.13Z" transform="translate(535.13 572.47)"/><path class="cls-14" d="M93.8,114.13l1,.27.75.9c-.45.54-.88.57-1.32,0-.26-.34-.55-.67-.83-1l.2-.2Z" transform="translate(535.13 572.47)"/><path class="cls-9" d="M87.12,102.11H82.41V102h4.72Z" transform="translate(535.13 572.47)"/><path class="cls-14" d="M91.42,94.34l-1,.87c-.06-.63-.11-1.09-.16-1.56Z" transform="translate(535.13 572.47)"/><path class="cls-5" d="M95.51,115.3l-.75-.9.14-.07,1.39.4.16.37-.22.18Z" transform="translate(535.13 572.47)"/><path class="cls-10" d="M84.21,102.53c0,.57-.38.5-.72.5s-.76.09-.74-.48Z" transform="translate(535.13 572.47)"/><path class="cls-10" d="M94.64,82.11a4.88,4.88,0,0,1-.75-.2s0-.31.06-.47Z" transform="translate(535.13 572.47)"/><path class="cls-7" d="M96.07,71.92l-.4-.29.48-.21C96.13,71.59,96.1,71.75,96.07,71.92Z" transform="translate(535.13 572.47)"/><path class="cls-9" d="M105.52,99.28c0,.07,0,.16-.07.16l-.2,0s0-.13.06-.13A.82.82,0,0,1,105.52,99.28Z" transform="translate(535.13 572.47)"/><path class="cls-10" d="M110.59,100.07l-.43-.4-.09-.26.11-.09.5.66Z" transform="translate(535.13 572.47)"/><path class="cls-10" d="M108.8,97.68l.51.75Z" transform="translate(535.13 572.47)"/><path class="cls-10" d="M108.29,97l.35.49Z" transform="translate(535.13 572.47)"/><path class="cls-10" d="M110.07,99.41l-.37-.47.12-.1.36.48Z" transform="translate(535.13 572.47)"/><path class="cls-12" d="M88.58,99.19c.11.13.22.25.32.38C88.8,99.44,88.69,99.32,88.58,99.19Z" transform="translate(535.13 572.47)"/><path class="cls-10" d="M92.39,87.79l0-.19.38.09Z" transform="translate(535.13 572.47)"/><path class="cls-10" d="M109.39,98.51l.43.15v.18l-.12.1Z" transform="translate(535.13 572.47)"/><path class="cls-10" d="M108.63,97.51l.17.17Z" transform="translate(535.13 572.47)"/><path class="cls-10" d="M108.13,96.85l.16.17Z" transform="translate(535.13 572.47)"/><path class="cls-10" d="M108,96.69l.16.16Z" transform="translate(535.13 572.47)"/><path class="cls-10" d="M94.93,82.14h0Z" transform="translate(535.13 572.47)"/><path class="cls-13" d="M87.8,151.6a10.81,10.81,0,0,1,4.43-.93c.3,2,.56,3.8.87,5.64s.68,3.59,1,5.4a3.43,3.43,0,0,1-.29,1.24l.18,3.44c-.34.65-.67,1.3-1,2l-.71,1.39a13.54,13.54,0,0,1-5.06-3c.15-1.11,1-2.15.34-3.36,0-.08.32-.54.53-.57a10,10,0,0,1,1.54,0c-1.18-.25-1.21-.31-1.23-1.56,0-.75-.09-1.49-.13-2.24-.06-1.21-.1-2.43-.17-3.64S87.89,152.88,87.8,151.6Z" transform="translate(535.13 572.47)"/><path class="cls-12" d="M87.8,151.6c.09,1.28.19,2.56.26,3.85s.11,2.43.17,3.64c0,.75.11,1.49.13,2.24,0,1.25,0,1.31,1.23,1.56a10,10,0,0,0-1.54,0c-.21,0-.57.49-.53.57.64,1.21-.19,2.25-.34,3.36-.13-.16-.36-.3-.37-.47-.1-1.08-.16-2.17-.24-3.26a.19.19,0,0,0,0-.12l.78-.09a35.59,35.59,0,0,1-.78-9.24l.06-1.9Z" transform="translate(535.13 572.47)"/><path class="cls-1" d="M97.25,163l1.52-.07a.2.2,0,0,0,0,.11c.16.48.3,1,.5,1.44a13.67,13.67,0,0,0,1.68,3.67,3,3,0,0,1,.56,2.56c0,.22-.06.44-.09.66l-2,0a7.06,7.06,0,0,0-.7-4.26,14,14,0,0,1-1-2.16,17.25,17.25,0,0,1-.49-1.74Z" transform="translate(535.13 572.47)"/><path class="cls-5" d="M96,163.08l.76-.09v0a25.64,25.64,0,0,0-.19,2.62c0,1.69.37,3.39-.25,5.06,0,.09.1.25.15.37l-.34.2c-.47-.89-1.48-.61-2.18-1l.39-1.55.17-.09.37,1,.25,0a14.84,14.84,0,0,0,.65-2.32C95.9,165.92,95.9,164.5,96,163.08Z" transform="translate(535.13 572.47)"/><path class="cls-6" d="M97.25,163.23a17.25,17.25,0,0,0,.49,1.74,14,14,0,0,0,1,2.16,7.06,7.06,0,0,1,.7,4.26L98,171.1v-1.89a7.53,7.53,0,0,1-.53-1.71C97.29,166.09,97.3,164.66,97.25,163.23Z" transform="translate(535.13 572.47)"/><path class="cls-8" d="M101.44,171.41c0-.22.08-.44.09-.66a3,3,0,0,0-.56-2.56,13.67,13.67,0,0,1-1.68-3.67c-.2-.47-.34-1-.5-1.44l.14-.11.68,0a.49.49,0,0,0,0,.12c.42.5.87,1,1.25,1.53a2.86,2.86,0,0,1,.54,1.09c.25,1.23.44,2.48.61,3.73a6.43,6.43,0,0,1,0,1.64C102,171.2,101.64,171.3,101.44,171.41Z" transform="translate(535.13 572.47)"/><path class="cls-4" d="M97.25,163.23c0,1.43,0,2.86.17,4.27a7.53,7.53,0,0,0,.53,1.71v1.89H96.44c0-.12-.18-.28-.15-.37.62-1.67.28-3.37.25-5.06a25.64,25.64,0,0,1,.19-2.62l0,0,.54,0Z" transform="translate(535.13 572.47)"/><path class="cls-12" d="M94.31,168.73l-.39,1.55-1.68-.55.71-1.39c.33-.65.66-1.3,1-2Z" transform="translate(535.13 572.47)"/><path class="cls-15" d="M102.56,172.49c1.1-1.15,2.38-1.21,3.59-1.42a.54.54,0,0,1,.47.21c0,.12-.08.34-.15.5a.34.34,0,0,1-.19.16A6.81,6.81,0,0,1,102.56,172.49Z" transform="translate(535.13 572.47)"/><path class="cls-12" d="M109.24,162.9l.21-.12-.27,4.23h.06Z" transform="translate(535.13 572.47)"/><path class="cls-15" d="M85.59,167.52c0-1.53-.07-3.07-.1-4.6h0l.21,1.82v.34l0,.52c0,.15,0,.31,0,.46v.7Z" transform="translate(535.13 572.47)"/><path class="cls-3" d="M85.73,164.73l-.21-1.82h1.09a.19.19,0,0,1,0,.12c-.35,0-.59,0-.48.58C86.16,164,85.86,164.36,85.73,164.73Z" transform="translate(535.13 572.47)"/><path class="cls-3" d="M85.79,166.75v-.7C86.52,166.29,86.09,166.52,85.79,166.75Z" transform="translate(535.13 572.47)"/><path class="cls-3" d="M85.78,165.59l0-.52.4.29Z" transform="translate(535.13 572.47)"/><path class="cls-15" d="M101.06,135l.06,7.08c-.05.51-.11,1-.16,1.54-.1.74-.21,1.5-.32,2.25-.06-1.08-.13-2.15-.2-3.23-.11-1.67-.1-3.36-.37-5-.18-1.06.38-2.22-.46-3.17Z" transform="translate(535.13 572.47)"/><path class="cls-12" d="M96,163.08c-.06,1.42-.06,2.84-.21,4.24a14.84,14.84,0,0,1-.65,2.32l-.25,0c-.12-.33-.24-.65-.37-1l0-1.58c.14-.14.33-.25.41-.42.59-1.17.32-2.43.37-3.66h.35l.11.08Z" transform="translate(535.13 572.47)"/><path class="cls-13" d="M95.29,163c-.05,1.23.22,2.49-.37,3.66-.08.17-.27.28-.41.42L94.27,163Z" transform="translate(535.13 572.47)"/><path class="cls-12" d="M96.74,149.71c-.09-.06-.25-.12-.25-.19,0-1.17-1-1.22-1.79-1.46-.13,0-.22-.21-.33-.32l3.36.65a3.18,3.18,0,0,1,.62.37c.27.27.5.59.75.88Z" transform="translate(535.13 572.47)"/><path class="cls-13" d="M101.74,157.2l0,2.84-.76.27c.08-1,.14-1.91.25-2.8C101.29,157.39,101.58,157.3,101.74,157.2Z" transform="translate(535.13 572.47)"/><path class="cls-8" d="M94.27,163l.24,4.05,0,1.58-.17.09L94,166.39,93.77,163Z" transform="translate(535.13 572.47)"/><path class="cls-4" d="M99.1,149.64c-.25-.29-.48-.61-.75-.88a3.18,3.18,0,0,0-.62-.37l2.69.41.44.7Z" transform="translate(535.13 572.47)"/><path class="cls-13" d="M100.64,145.87c.11-.75.22-1.51.32-2.25,0,1.24,0,2.49,0,3.74,0,.14-.23.28-.35.42h0l0-.29a.2.2,0,0,0,0-.15Z" transform="translate(535.13 572.47)"/><path class="cls-10" d="M98.93,163l-.14.11a.2.2,0,0,1,0-.11A.22.22,0,0,1,98.93,163Z" transform="translate(535.13 572.47)"/><polygon class="cls-10" points="631.84 735.48 631.87 735.5 631.85 735.46 631.84 735.48"/><path class="cls-13" d="M95.75,163.06l-.11-.08A.17.17,0,0,1,95.75,163.06Z" transform="translate(535.13 572.47)"/><path class="cls-12" d="M93.86,135.25l.21,0a2.63,2.63,0,0,1,.17,2.35h-.3Z" transform="translate(535.13 572.47)"/><path class="cls-13" d="M80.81,166.14l-.21-2.49.27,0v2.5Z" transform="translate(535.13 572.47)"/><path class="cls-9" d="M83.21,165.21l-.55-.25a1.15,1.15,0,0,1,.29-.08S83,165,83.21,165.21Z" transform="translate(535.13 572.47)"/><path class="cls-4" d="M100.58,147.5l0,.29h-.53c-.15-2.43-.3-4.85-.44-7.28-.08-1.39-.07-2.8-.22-4.19a9.46,9.46,0,0,0-.66-2l.7.12.15,0c.84.95.28,2.11.46,3.17.27,1.64.26,3.33.37,5,.07,1.08.14,2.15.2,3.23l-.06,1.48Z" transform="translate(535.13 572.47)"/><path class="cls-15" d="M99.46,134.44l-.7-.12-1.49-1c-.14-.83-.16-1.72-1-2.21-.1-.06-.09-.31-.12-.47.22,0,.51,0,.64.1.52.46,1,1,1.46,1.47s.68.73,1.1,1.18l-.29.54Z" transform="translate(535.13 572.47)"/><path class="cls-7" d="M94.15,72.61H94s0,0,0-.06h.12S94.15,72.59,94.15,72.61Z" transform="translate(535.13 572.47)"/><path class="cls-2" d="M93.61,81.26l-.18,0Z" transform="translate(535.13 572.47)"/><polygon class="cls-9" points="598.45 673.65 598.42 673.62 598.45 673.66 598.45 673.65"/><path class="cls-4" d="M100.46,36.46a1.2,1.2,0,0,1,0,1.69Z" transform="translate(535.13 572.47)"/><path class="cls-4" d="M100.46,34.13a.79.79,0,0,1,0,1.34Z" transform="translate(535.13 572.47)"/><path class="cls-4" d="M100.49,29.61c.41.4.47.8,0,1.19C100.48,30.4,100.49,30,100.49,29.61Z" transform="translate(535.13 572.47)"/><path class="cls-4" d="M100.4,23.08l0,1.3C100.16,24,99.94,23.53,100.4,23.08Z" transform="translate(535.13 572.47)"/><path class="cls-4" d="M100.45,35.8l.24.21-.23.13Z" transform="translate(535.13 572.47)"/><path class="cls-4" d="M100.44,40.14l.24.17-.23.17C100.45,40.37,100.45,40.26,100.44,40.14Z" transform="translate(535.13 572.47)"/><path class="cls-4" d="M100.48,44.07c0,.12,0,.23,0,.35C100.49,44.3,100.49,44.19,100.48,44.07Z" transform="translate(535.13 572.47)"/><path class="cls-14" d="M111.79,99c.12-1,.29-2,.35-2.94s0-1.78-.06-2.66c.66.05,1.32.07,2,.16s.64.69.54,1.17c-.24,1.24-.53,2.48-.81,3.71a2.61,2.61,0,0,1-.16.64c-.11.21-.27.48-.46.52s-.42-.18-.56-.34S112.23,98.57,111.79,99Z" transform="translate(535.13 572.47)"/><path class="cls-9" d="M157.67,99.11c1.3-.15,2.59-.32,3.88-.43,3.21-.27,6.42-.51,9.63-.76a1.8,1.8,0,0,1,.32.06l.34.38-14.32,1.17Z" transform="translate(535.13 572.47)"/><path class="cls-15" d="M107.76,82.41a6.66,6.66,0,0,1,1-.11,2.44,2.44,0,0,1,.66.22c-.15.18-.3.35-.44.53l-2.43.18c-.24-.77.51-.53.79-.78Z" transform="translate(535.13 572.47)"/><path class="cls-9" d="M111.21,122.32l2.3.74-.12.4-2.31-.75Z" transform="translate(535.13 572.47)"/><path class="cls-14" d="M110.15,128.46l-2.21.29C108.62,127.75,109,127.7,110.15,128.46Z" transform="translate(535.13 572.47)"/><path class="cls-8" d="M109.82,98.84v-.18a.76.76,0,0,1,1,.39,3.37,3.37,0,0,0,.63.62l-.8.31-.5-.66Z" transform="translate(535.13 572.47)"/><path class="cls-8" d="M107.33,82.45c-.28.25-1,0-.79.78-.45.16-.89.31-.91-.43C106.19,82.66,106.61,81.84,107.33,82.45Z" transform="translate(535.13 572.47)"/><path class="cls-7" d="M111.88,128.56h-.42l.29,0S111.83,128.52,111.88,128.56Z" transform="translate(535.13 572.47)"/><path class="cls-14" d="M111.61,99.34l.17-.33Z" transform="translate(535.13 572.47)"/><path class="cls-9" d="M156.8,99.17l.34,0Z" transform="translate(535.13 572.47)"/><path class="cls-4" d="M111.75,128.57l-.29,0Z" transform="translate(535.13 572.47)"/><path class="cls-9" d="M155.13,96.2l.61.08,0,.26-.63-.07Z" transform="translate(535.13 572.47)"/><path class="cls-9" d="M171.48,91.15l-.07.56-.25,0,.1-.55Z" transform="translate(535.13 572.47)"/><path class="cls-9" d="M172.1,76.22l.07.22Z" transform="translate(535.13 572.47)"/><path class="cls-11" d="M140,96.33V92.52h.13V96.3Z" transform="translate(535.13 572.47)"/><path class="cls-10" d="M123.89,95.93c-.15.09-.24.18-.31.17s-.13-.14-.15-.22.1-.15.15-.14A1.16,1.16,0,0,1,123.89,95.93Z" transform="translate(535.13 572.47)"/><path class="cls-7" d="M57.64,101.33l.67.16-.24.46Z" transform="translate(535.13 572.47)"/><path class="cls-7" d="M57,101.26l.32,0Z" transform="translate(535.13 572.47)"/><path class="cls-10" d="M38.69,99.85c.21.68.41,1.37.64,2.06s0,.89-.67.76c-1.4-.61-2.81-1.18-4.17-1.84a13.55,13.55,0,0,1-1.7-1.13l.08-.26Z" transform="translate(535.13 572.47)"/><path class="cls-14" d="M121,161.37c-.69.09-.91-.13-.79-.88.18-1.05.16-2.14.29-3.2,0-.27.32-.51.5-.77l.15,4.55h0Z" transform="translate(535.13 572.47)"/><path class="cls-7" d="M111.4,138.63l0-2.13Z" transform="translate(535.13 572.47)"/><path class="cls-7" d="M111.32,136.28l-.11-.63Z" transform="translate(535.13 572.47)"/><path class="cls-15" d="M121.06,154.87l0-.34Z" transform="translate(535.13 572.47)"/><path class="cls-1" d="M102.13,145.51l-.35.31c0-1.19-.11-2.38-.17-3.57,0-2.53,0-5.05,0-7.58l0-.08.83,0c.12.16.23.33.34.5s0,.57,0,.85v1.32c0,1,.11,2,.16,3v.33C102.68,142.27,102.4,143.89,102.13,145.51Z" transform="translate(535.13 572.47)"/><path class="cls-5" d="M101.6,134.67v7.58l-.32-.18c0-2.16,0-4.32.07-6.48A3.78,3.78,0,0,1,101.6,134.67Z" transform="translate(535.13 572.47)"/><path class="cls-9" d="M121,163.92v1h-.9l-.18-.76Z" transform="translate(535.13 572.47)"/><path class="cls-8" d="M101.78,146.34l.8-.08-.65.93Z" transform="translate(535.13 572.47)"/><path class="cls-8" d="M102,147.68c.36.29.81.56.13,1C102,148.34,102,148,102,147.68Z" transform="translate(535.13 572.47)"/><path class="cls-4" d="M121,161.37l.15-.31Z" transform="translate(535.13 572.47)"/><path class="cls-8" d="M102.13,145.51c.27-1.62.55-3.24.83-4.86.07.19.24.39.21.56-.22,1.29-.47,2.58-.73,3.87C102.41,145.23,102.24,145.36,102.13,145.51Z" transform="translate(535.13 572.47)"/><path class="cls-8" d="M103,140.32c0-1-.11-2-.16-3l.71-.07C103.31,138.32,103.14,139.32,103,140.32Z" transform="translate(535.13 572.47)"/><path class="cls-8" d="M102.8,136c0-.28,0-.57,0-.85.33-.32.61-.45.66.18,0,.32,0,.65,0,1.1Z" transform="translate(535.13 572.47)"/><path class="cls-8" d="M102.45,134.63l-.83,0,.36-.43Z" transform="translate(535.13 572.47)"/><path class="cls-1" d="M101.58,133.25l-.18.1s-.08-.11-.06-.13.1-.09.15-.14Z" transform="translate(535.13 572.47)"/><path class="cls-13" d="M93.8,114.13l-.24,0s-.07-.12,0-.15c.56-.89-.21-1.5-.48-2.21,0,0,0,0,0-.06a.76.76,0,0,0-.09-.09l-.1-.38a2.46,2.46,0,0,1,.07-.29v-.35l-.07-1.2c.06-1.35.17-1.51,1.14-1.47l-.24-2.22.34-.83.65.55c-.09,1.3-.18,2.61-.27,4h.79c.12,0,.3.14.37.1.48-.32.93-.66,1.39-1,.62.15,1.06.55.67,1.11-.58.82-.08,1,.4,1.1a2.68,2.68,0,0,0,.12,1.66C96.67,112.74,95,112.87,93.8,114.13Z" transform="translate(535.13 572.47)"/><path class="cls-12" d="M98.22,112.32a2.68,2.68,0,0,1-.12-1.66c-.48-.13-1-.28-.4-1.1.39-.56,0-1-.67-1.11,0-.41-.07-.81-.1-1.22s.08-1,.69-1.13c.15,0,.21-.41.31-.63l.24-.17c.25.55.44,1.18,1.26,1.08l.51-1.51.48.33.12,1.11-.09.06-1.25.39c.54.73.39,1-.59,1.6v1.34c-.27.3-.24.49.19.5H100L99.77,112Z" transform="translate(535.13 572.47)"/><path class="cls-15" d="M100.42,105.2l-.48-.33c-.18.55-.35,1-.51,1.51.24-.95-.3-1.42-1.07-1.76,0-.19,0-.37-.07-.56-.1-.91-.3-1-1.17-.7-.53-.09-.83.08-.87.67,0,.2-.2.39-.31.58l-.37,1.1-.32-1a8.05,8.05,0,0,0-.13,1.94c0,.3.24.68.13.87a1.66,1.66,0,0,0,0,1.79h-.79c.09-1.36.18-2.67.27-4a5.45,5.45,0,0,0,0-.9.75.75,0,0,1,.66-1l.18.63h.11l.08-.9c.77-.43,1.44-.84,2.15-1.18.18-.09.46,0,.7.09-.11.48.16.71.67.59s.74-.16,1.25-.26l-.28.59-.75,1c.22.16.59.4.93.68C100.53,104.83,100.44,105.05,100.42,105.2Z" transform="translate(535.13 572.47)"/><path class="cls-9" d="M106.13,102.2A10.33,10.33,0,0,0,101,101c-1.87-.1-3.3,1-5,1.63.34-1.32,3.59-2.77,5.66-2.5C103.3,100.32,105.18,100.35,106.13,102.2Z" transform="translate(535.13 572.47)"/><path class="cls-10" d="M107.47,103.15a6.54,6.54,0,0,1,2.84,5,1.93,1.93,0,0,1-.21.67c-.18-.08-.37-.17-.56-.24l-1.34-.43C107.82,106.57,108.51,104.74,107.47,103.15Z" transform="translate(535.13 572.47)"/><path class="cls-3" d="M105.68,106.59c-.2,1.09-1.13,1.06-2,1.2,0,.66.18,1.38-.84,1.56l.16-.82c-.55,1.23-1.7.8-2.6,1l2-2-1.2-.5a2.42,2.42,0,0,1,.87-.08,1.66,1.66,0,0,0,2.13-.9c0-.11.2-.17.31-.26l.71-.08Z" transform="translate(535.13 572.47)"/><path class="cls-4" d="M105.68,106.59l-.39-.88c.57-.8.27-1.67.18-2.52l.83-.51.43.75.09,4.12-.16,2.33-.83-.09C105.78,108.79,105.73,107.69,105.68,106.59Zm.59-.85-.38.1.28,1.36.35-.08Z" transform="translate(535.13 572.47)"/><path class="cls-10" d="M109.64,103.2l-.23-.67c.66.7,1.65.93,2,2a7.63,7.63,0,0,1,.41,2.19,9.8,9.8,0,0,0,.42,1.72,1.76,1.76,0,0,1-.78,2l-.34-.53-.33-3.77c.26-.5.2-.72-.35-1.46h0l-.18-.35h0l-.34-.68h0l-.18-.17h0l-.17-.35Z" transform="translate(535.13 572.47)"/><path class="cls-2" d="M100.3,103.1l.28-.59c-.51.1-.88.17-1.25.26s-.78-.11-.67-.59c.44-.09,1,0,1.28-.29a1.93,1.93,0,0,1,1.94-.28c.31.06.53.64.7.87l-1.58,1C100.53,103.78,100.27,103.7,100.3,103.1Z" transform="translate(535.13 572.47)"/><path class="cls-6" d="M101.27,107l1.2.5-2,2-1.66.16,1.5-1.12a7.39,7.39,0,0,1-.1-1.2,4.6,4.6,0,0,1,.28-1l.09-.06Z" transform="translate(535.13 572.47)"/><path class="cls-7" d="M100.45,106.37a4.6,4.6,0,0,0-.28,1,7.39,7.39,0,0,0,.1,1.2l-1.5,1.12a.3.3,0,0,1-.16,0v-1.34c1-.56,1.13-.87.59-1.6Z" transform="translate(535.13 572.47)"/><path class="cls-13" d="M105.47,103.19c.09.85.39,1.72-.18,2.52l-.71.08c-.06-.38-.11-.77-.18-1.15C104.23,103.69,104.49,103.33,105.47,103.19Z" transform="translate(535.13 572.47)"/><path class="cls-8" d="M102.09,110.08c.21,0,.43.07.64.12.43.11,1.07,0,1,.68s-.29,1.2-1.09,1.2c-.18,0-.36,0-.54,0Z" transform="translate(535.13 572.47)"/><path class="cls-15" d="M94.1,104.83c-.11.28-.23.55-.34.83s-.36.26-.42.43c-.29.7-.53,1.41-.78,2.12a6,6,0,0,1,1.12-3.8c.21-.37.38-.77.57-1.15l.53-.25Z" transform="translate(535.13 572.47)"/><path class="cls-2" d="M102.09,110.08l0,2-1.39.09c0-.33.07-.66.13-1s.17-.65.26-1Z" transform="translate(535.13 572.47)"/><path class="cls-12" d="M94.1,104.83l.68-1.82-.53.25a7.56,7.56,0,0,1,.43-.91,4.72,4.72,0,0,1,.6-.67.36.36,0,0,0,.14,0l0,0a.2.2,0,0,0,0,.13l0,1.69a.75.75,0,0,0-.66,1,5.45,5.45,0,0,1,0,.9Z" transform="translate(535.13 572.47)"/><path class="cls-12" d="M92.56,108.21c.25-.71.49-1.42.78-2.12.06-.17.27-.29.42-.43.08.74.16,1.47.24,2.22-1,0-1.08.12-1.14,1.47l-.3-.78Z" transform="translate(535.13 572.47)"/><path class="cls-4" d="M101.12,110.19c-.09.32-.19.64-.26,1s-.09.65-.13,1l-.46,0-.5-.12.18-1.84Z" transform="translate(535.13 572.47)"/><path class="cls-1" d="M106.82,107.55l-.09-4.12c.13.2.36.39.38.59a25.33,25.33,0,0,1,.14,2.75C107.24,107,107,107.29,106.82,107.55Z" transform="translate(535.13 572.47)"/><path class="cls-15" d="M92.56,108.57l.3.78.07,1.2-.21,0Z" transform="translate(535.13 572.47)"/><path class="cls-9" d="M110.47,104.7c.55.74.61,1,.35,1.46C110.7,105.67,110.59,105.18,110.47,104.7Z" transform="translate(535.13 572.47)"/><path class="cls-9" d="M110,103.69l.34.68Z" transform="translate(535.13 572.47)"/><path class="cls-12" d="M92.72,110.57l.21,0v.35h-.17Z" transform="translate(535.13 572.47)"/><path class="cls-9" d="M110.3,104.36l.18.35Z" transform="translate(535.13 572.47)"/><path class="cls-15" d="M92.77,110.9h.17a2.46,2.46,0,0,0-.07.29Z" transform="translate(535.13 572.47)"/><path class="cls-9" d="M109.64,103.19l.17.35Z" transform="translate(535.13 572.47)"/><path class="cls-15" d="M95.42,101.66a.36.36,0,0,1-.14,0Z" transform="translate(535.13 572.47)"/><path class="cls-12" d="M93,111.57a.76.76,0,0,1,.09.09s0,0,0,.06Z" transform="translate(535.13 572.47)"/><path class="cls-9" d="M109.8,103.53l.18.17Z" transform="translate(535.13 572.47)"/><path class="cls-15" d="M95.46,101.84a.2.2,0,0,1,0-.13.36.36,0,0,1,0,.09S95.47,101.82,95.46,101.84Z" transform="translate(535.13 572.47)"/><path class="cls-11" d="M110.15,100l.09.13-.1-.12Z" transform="translate(535.13 572.47)"/><path class="cls-14" d="M96.45,115.1l-.16-.37-.25-.82,1.25-.4c.72.21-.18.73-.09,1.12l0,.05-.09.17Z" transform="translate(535.13 572.47)"/><path class="cls-12" d="M97.07,114.85l.09-.17Z" transform="translate(535.13 572.47)"/><path class="cls-1" d="M90.07,97.35a11.34,11.34,0,0,1-1.5-1.07,4.2,4.2,0,0,1-.65-1.16c1.35-.18,1.35-.18,1.79,1.12Z" transform="translate(535.13 572.47)"/><path class="cls-13" d="M92,84.81,92.13,87c-.2-.18-.52-.33-.56-.54-.21-1-.36-2-.48-2.94,0-.17.2-.37.3-.55.14.16.34.31.39.5C91.89,83.89,91.94,84.35,92,84.81Z" transform="translate(535.13 572.47)"/><path class="cls-5" d="M91.84,81.67l.14.24h-.53l0-.14Z" transform="translate(535.13 572.47)"/><path class="cls-6" d="M100.58,147.5v-.15A.19.19,0,0,1,100.58,147.5Z" transform="translate(535.13 572.47)"/><path class="cls-8" d="M95.27,109.35a1.66,1.66,0,0,1,0-1.79c.11-.19-.12-.57-.13-.87a8.05,8.05,0,0,1,.13-1.94l.32,1,0,0,.15.82V108l.91-.42.28-.34c0,.41.07.81.1,1.22-.46.34-.91.68-1.39,1C95.57,109.49,95.39,109.38,95.27,109.35Z" transform="translate(535.13 572.47)"/><path class="cls-13" d="M97.12,103.36c.87-.33,1.07-.21,1.17.7,0,.19,0,.37.07.56s-.13.45-.19.68l-.24.17H97.7l-.26-.1-.19.06c0-.06-.11-.12-.16-.19Z" transform="translate(535.13 572.47)"/><path class="cls-4" d="M98.17,105.3c.06-.23.13-.45.19-.68.77.34,1.31.81,1.07,1.76C98.61,106.48,98.42,105.85,98.17,105.3Z" transform="translate(535.13 572.47)"/><path class="cls-7" d="M97.7,105.46h.23c-.1.22-.16.59-.31.63-.61.18-.68.62-.69,1.13-.1.11-.19.23-.28.34L96.34,106l.52-.43.39-.1.19-.06Z" transform="translate(535.13 572.47)"/><path class="cls-14" d="M96.86,105.52l-.52.43c-.13-.45-.27-.9-.4-1.34.11-.19.3-.38.31-.58,0-.59.34-.76.87-.67l0,1.87A3.25,3.25,0,0,1,96.86,105.52Z" transform="translate(535.13 572.47)"/><path class="cls-13" d="M95.94,104.61c.13.44.27.89.4,1.34s.21,1.08.31,1.62l-.91.42v-1.44l-.15-.82,0,0Z" transform="translate(535.13 572.47)"/><path class="cls-15" d="M106.27,105.74l.25,1.38-.35.08-.28-1.36Z" transform="translate(535.13 572.47)"/><path class="cls-15" d="M95.59,105.73l.15.82Z" transform="translate(535.13 572.47)"/><path class="cls-12" d="M96.86,105.52a3.25,3.25,0,0,0,.23-.29c0,.07.11.13.16.19Z" transform="translate(535.13 572.47)"/><path class="cls-12" d="M97.7,105.46l-.26-.1Z" transform="translate(535.13 572.47)"/></g></svg>