<?xml version="1.0" encoding="utf-8"?>
<!-- Generator: Adobe Illustrator 24.0.3, SVG Export Plug-In . SVG Version: 6.00 Build 0)  -->
<svg version="1.1" id="Layer_1" xmlns="http://www.w3.org/2000/svg" xmlns:xlink="http://www.w3.org/1999/xlink" x="0px" y="0px"
	 viewBox="0 0 250 250" style="enable-background:new 0 0 250 250;" xml:space="preserve">
<style type="text/css">
	.st0{fill:#FDFF2D;}
	.st1{fill:#F9D815;}
	.st2{fill:#E5AB2C;}
	.st3{fill:#E4AB2C;}
	.st4{fill:#EB5225;}
	.st5{fill:#211413;}
	.st6{fill:#0C0C0C;}
	.st7{fill:#964021;}
	.st8{fill:#241613;}
	.st9{fill:#E87172;}
	.st10{fill:#B53A41;}
	.st11{fill:#891A1B;}
	.st12{fill:#111111;}
	.st13{fill:#F8F8F6;}
</style>
<title>pokemon</title>
<circle class="st0" cx="125" cy="125" r="125"/>
<path class="st1" d="M22.2,114.4l-5.9-1.4c5.9-14.7,14.3-28.4,24.8-40.3l56.6,30.3c1.8-6.8,3.6-13.6,5.3-20.4
	c-2.3-1.5-4.6-2.9-6.8-4.4c-6.1-4.1-11.7-9-16.7-14.5c-1-1.1-1.8-2.2-2.8-3.3c0-0.8-0.1-1.5-0.1-2.2c0-5.4-0.7-10.9,2.4-15.8
	c7,3.8,13.5,8.4,19.4,13.8c5.3,5,10,10.8,13.8,17.1c16.4-5.7,32-4.1,47,4.7c2.1-1.9,4.1-4,6.4-5.7c5-3.8,10-7.5,15.2-11
	c4.8-3.2,10.1-5.7,15.6-7.4c0.5,1.2,1.5,2.3,1.5,3.5c-0.1,4.3,0.8,8.8-0.8,13c0,0.3,0,0.6,0,0.9l0,0l-0.2,0.3
	c-4.1,4.1-8.7,7.6-13.8,10.3c-5,2.6-10.4,4.7-15.6,7.1c0.7,1.5,1.2,3,1.5,4.6c0.3,2.3,0.3,4.7-0.1,7.1c-0.8,4.2-0.3,8.2,0.1,12.4
	c0.3,3.1,0.2,6.2,0.4,9.4c-0.7-2.5-2.5-4.5-5-5.4c-3-1-6.3,0.2-7.9,2.9c-2,2.7-1.9,6.4,0.2,9c2.1,2.7,5.5,4.1,8.9,3.6
	c-2.5,2.8-5.7,4.4-9,6.1c4.9,11.2,5.7,23.6,2.4,35.4c3.8,0.9,6.8,2.9,8,6.8c1.5-1.1,1.8-3.2,3.9-3.6c-0.3,1.4-0.5,2.5-0.7,3.8l0,0
	l-1,1.8l-0.2,0.3l0,0c-1.3,1.2-2.6,2.5-3.7,3.9c-1.4,1.8-2.5,3.8-3.5,5.8c-0.9,2.2-1.8,4.1-4.6,4.1c-0.6,0.1-1.3,0.3-1.9,0.6
	c-0.3,0.1-0.7,0.2-1,0.2c-1.9-0.4-3.9-0.8-5.8-1.3c-4.3-1.2-8.6-2.5-13-3.6c-2.2-0.6-4.6-0.6-6.8,0.1c-2.8,1-5.7,1.9-8.5,2.6
	c-2,0.5-4.1-0.3-5.3-2.1c-0.9-1.1-1.9-2.2-2.8-3.3l-0.3,0.2c0.9,5.8,1.8,11.7,2.7,17.6c-0.2,1.3-1,2.5-2.2,3.2h-3l-2.4-2.7
	c-0.2-0.8-0.5-1.5-0.8-2.3c-1.2-3.8-2.6-7.4-3.8-11.2c-0.5-1.5-0.7-3.1-1-4.3c-1.5,1.8-2.8,3.6-4.4,5.1c-3.4,3.3-5.6,3.5-9.8,1.2
	c-2-4-2.5-8.5-1.7-12.8c0.1-0.9,0.3-1.7,0.5-2.6l2.6-7.2l1.5-5.5l0,0l0.3-0.2l2.7-11.6c0.8,1.6,1.4,3.2,3.3,3.1
	c2.3-0.2,4.4-1.4,5.8-3.3c-2.7-1.9-5.2-3.8-7.7-5.4c-0.9-0.6-1.8-1.1-2.7-1.6l0,0l-0.7-0.8l0,0l-0.4-0.5l-2.9-3.4
	c-1-1.5-2.2-2.9-3.1-4.5c-1.3-2.3-2.5-4.7-3.8-7.1c-0.3-0.5-0.7-0.9-1.1-1.4l-1.8-3.2c-0.1-0.3-0.1-0.6-0.2-0.9
	c-1-2.7-1.9-5.3-2.9-7.9c-0.7-1.9-0.4-4.1-2-5.7c-0.1-0.1,0.1-0.8,0.3-1.1c0.4-0.3,0.8-0.5,1.2-0.7v-0.4c-0.4-0.2-0.9-0.4-1.3-0.5
	c-1.1,0-2.2,0.2-3.3,0.3c-5.5,0.3-10.9,0.6-16.4,0.9l-17.9,1L22.2,114.4z M146.8,188.8l0.3,0.3c0.6,0.1,1.2,0.6,1.6,0.4
	c0.6-0.3,1.2-0.8,1.7-1.3l0.1,0.1h-0.1l-0.4-1.2c-0.4,1.8-1.4,2.4-2.9,2.1L146.8,188.8l-0.1,0L146.8,188.8z M136.9,184.6
	L136.9,184.6l-0.3-0.6v-1.8l0.3-0.6l0.3-0.3c0.3-0.4,0.4-0.9,0.6-1.4c0-1.9,0-3.8,0-5.7c-0.2-4,0.3-8.1,1.4-11.9
	c0.2-0.8,0.3-1.5,0.4-2.3c-0.3,0.1-0.4,0.3-0.5,0.6c-0.6,3.8-1.3,7.4-1.8,11.2c-0.1,2.1-0.1,4.2,0,6.2c0,1.1-0.1,2.1-0.1,3.2
	l-0.3,0.3l-0.3,0.6v1.8L136.9,184.6z M154.3,184.2l-0.4,0.4l0.2,0.1L154.3,184.2v-0.1V184.2z M142.6,187.2L142.6,187.2L142.6,187.2
	l1.2,0.9c1.6,0.5,2.4,0.2,2.5-0.7l-2.5,0.8L142.6,187.2z M139.6,186.6h0.1H139.6v-2l-1.1,0.2L139.6,186.6z M106.2,131.4h0.1H106.2
	c-0.3-0.6-0.6-1.4-0.9-2c-1.4-2.2-2.8-4.5-4.2-6.7c1.2,0.2,2.5,0.2,3.7,0c2.9-0.7,5.8-4.7,5.9-7.8c0.1-2.8-2.5-6.4-5.4-7.5
	c-4.1-1.3-8.6,0.9-9.9,5c-0.1,0.4-0.2,0.9-0.3,1.3c-0.3,1.7-0.5,3.5,0.9,5c1.2,1.2,2.4,2.2,3.7,3.3c0.9,1.4,1.7,2.8,2.6,4.1
	C103.6,127.9,105,129.7,106.2,131.4z M120,141.9h-0.1H120c1.5,3.4,3.8,6.2,7.5,6.8s6.8-1,9.4-3.6c-5.6-0.1-11.1-1.2-16.3-3.1
	C120.4,141.9,120.2,141.9,120,141.9L120,141.9z M123.3,118.2l0.9,5.6c0.9,2.6,1.6,5.2,2.7,7.7c1.4,3.2,4.5,3.9,7.2,1.6
	c2.3-2,4.2-4.5,5.5-7.3l2.3-4.6c0.9-2.2,2.1-4.3,1.7-6.9c-2.9,0.3-5.8-0.5-8.2-2.2c-1.3-0.7-2.7-0.9-4.1-0.4
	c-2.8,0.5-5.6,1.6-8.6-0.3L123.3,118.2z M121.6,98.3c0.1-3.8-3-7-6.8-7.1c0,0-0.1,0-0.1,0c-3.8,0.1-6.8,3.2-6.7,7
	c-0.2,3.7,2.7,6.9,6.4,7.1c0.1,0,0.3,0,0.4,0C118.5,105.3,121.6,102.2,121.6,98.3C121.6,98.4,121.6,98.4,121.6,98.3z M148.2,104.1
	c0.1,3.8,3.1,6.8,6.8,6.9c3.8,0,6.9-3.1,6.9-6.9c0,0,0,0,0,0c0.3-3.8-2.5-7.1-6.3-7.5c-3.8-0.3-7.1,2.5-7.5,6.3
	C148.2,103.3,148.2,103.7,148.2,104.1L148.2,104.1z M93.8,116.8l0.4-0.2c0.2-1.3,0.3-2.5,0.3-3.8c-0.1-0.5-0.5-0.9-1-1
	c-1.6-0.1-3.3,0-5.3,0L93.8,116.8z M133,105.2c0.2,0.6,0.2,1.2,0.5,1.4c0.5,0.3,1.1,0.4,1.8,0.3c0.3,0,0.5-0.5,0.7-0.8
	c-0.4-0.3-0.9-0.6-1.4-0.8C134.1,105.2,133.5,105.1,133,105.2L133,105.2z M151.2,188.8c2.4,0.7,2.9,0,2.3-3.1
	C153.2,188.8,153.2,188.8,151.2,188.8z M107,132.3l-0.2-0.2c0,0.1-0.1,0.2-0.1,0.2c0,0,0.1,0.1,0.1,0.1
	C106.9,132.4,107,132.4,107,132.3z M107.4,133.1c0,0.1-0.1,0.2-0.1,0.2c0,0.1,0.1,0.1,0.2,0.1c0.1,0,0.1-0.2,0.1-0.2
	C107.6,133.1,107.5,133.1,107.4,133.1z"/>
<path class="st2" d="M114.5,207.7c-0.9-5.8-1.8-11.7-2.7-17.6l0.3-0.2c1,1.1,1.9,2.2,2.8,3.3c1.2,1.7,3.4,2.5,5.4,2
	c2.9-0.8,5.7-1.7,8.5-2.6c2.2-0.7,4.6-0.7,6.8-0.1c4.3,1.1,8.6,2.4,13,3.6c1.9,0.5,3.9,0.9,5.8,1.3c0.3,0,0.7,0,1-0.2
	c0.6-0.3,1.2-0.5,1.9-0.6c2.8,0,3.6-1.8,4.5-4.1c0.9-2.1,2.1-4,3.5-5.8c1.1-1.4,2.4-2.7,3.7-3.9c-0.1,0.8-0.3,1.6-0.5,2.4l0.3,0.1
	c0.5-1.2,0.9-2.5,1.4-3.8l1.5-0.2l-1.2,4.6l0.4,0.1l1-3.6l0.2,5.9c-1.2,2.9-2.3,5.9-3.7,8.8s-3.3,5.7-5,8.5l-4.5,5
	c-1.1,0.5-2.2,0.9-3.3,0.1c-0.3-0.6-0.6-1.1-1-1.7c-0.4-0.4-0.9-0.9-1.4-0.9c-7.5,0.1-15-1.1-22.4-2
	C125.4,205.3,119.8,205.8,114.5,207.7z"/>
<path class="st3" d="M79.7,131.9c0.4,0.4,0.7,0.9,1.1,1.4c1.2,2.3,2.4,4.8,3.8,7.1c0.9,1.6,2.1,3,3.1,4.5l-4.6,4.3l10.2,5.2
	c0.8-1.6,0.8-2.8-0.6-3.8c-0.4-0.3-0.7-0.7-1-1.1c0.9,0.5,1.8,1,2.7,1.6c2.5,1.7,5,3.5,7.7,5.4c-1.3,1.9-3.5,3.1-5.8,3.3
	c-2,0.1-2.5-1.5-3.3-3.1l-2.7,11.6l-0.3,0.2l0,0l-2.2,1.9c0.1-0.8-0.3-1.2-1.1-1l-0.1-0.1l0.9-2.4h0.1c0,0,0,0,0-0.1l-0.1,0.1
	l-2.2,0.9l0.8-2.6c0-0.1,0-0.2,0.1-0.2l-0.2,0.1l-3,2.4v-1.5l-1.8-0.1l3.3-4.4l-20.3-8.6c1.4-2,2.8-3.9,4.1-5.8l10.7-14.7
	C79.2,132.4,79.5,132.2,79.7,131.9z"/>
<path class="st3" d="M22.2,114.4l13.4-0.6l17.9-0.9c5.5-0.3,10.9-0.6,16.4-0.9c1.1-0.1,2.2-0.2,3.3-0.3c0.5,0.1,0.9,0.2,1.3,0.4v0.4
	c-0.4,0.2-0.9,0.4-1.2,0.7c-0.2,0.2-0.5,0.9-0.3,1.1c1.6,1.6,1.2,3.8,2,5.7c1,2.7,2,5.3,2.9,7.9c0.1,0.3,0.2,0.6,0.2,0.9
	c-4.2-1.1-8.5-2.1-12.7-3.2c-7.5-1.9-15-3.8-22.6-5.8C35.9,118,29,116.2,22.2,114.4z"/>
<path class="st4" d="M165.5,132.3c-3.4,0.5-6.7-0.9-8.9-3.6c-2.1-2.6-2.2-6.3-0.2-9c1.7-2.7,4.9-3.9,7.9-2.9c2.5,0.8,4.3,2.9,5,5.4
	C169.7,126,168.3,129.7,165.5,132.3z"/>
<path class="st5" d="M79.1,42.3c-3.1,4.9-2.4,10.4-2.4,15.8c0,0.8,0,1.5,0.1,2.2c-1.7-2.1-3.5-4.2-5.1-6.4
	c-3.6-5.1-6.7-10.6-9.2-16.4c-0.1-0.3-0.2-0.7-0.4-1.3C68,37.9,74.1,38.8,79.1,42.3z"/>
<path class="st6" d="M114.5,207.7c5.3-1.9,10.9-2.5,16.5-1.7c7.5,0.9,14.9,2.2,22.4,2c0.5,0,1,0.5,1.4,0.9c0.4,0.5,0.7,1.1,1,1.7
	l-17.5,0.4c-3.5,0.1-7,0.2-10.5,0.2c-5.2,0-10.4-0.2-15.6-0.3C113.4,210.3,114.3,209.1,114.5,207.7z"/>
<path class="st5" d="M197.1,71.1c0-0.3,0-0.6,0-0.9c1.7-4.2,0.8-8.7,0.8-13c0-1.2-1-2.3-1.5-3.5c3.5-0.9,6.9-1.8,10.4-2.7
	c1.6-0.4,3.3-0.5,5-0.8c0.5-0.1,0.9,0,1.9-0.1c-1.4,2.4-2.5,4.4-3.8,6.3c-3.5,5.3-7.6,10.1-12.4,14.3
	C197.4,70.9,197.3,71,197.1,71.1z"/>
<path class="st3" d="M87.1,196.8c4.1,2.2,6.2,2,9.8-1.2c1.6-1.6,3-3.4,4.4-5.1c0.3,1.2,0.5,2.8,1,4.3c1.2,3.8,2.5,7.5,3.8,11.2
	c0.3,0.8,0.5,1.5,0.8,2.3c-4.2,0.1-8.3-0.9-12-2.9C91.3,203.4,88.6,200.4,87.1,196.8z"/>
<path class="st7" d="M87.7,167.1l-0.9,2.4c0,0.1,0,0.1-0.1,0.2l0.2-0.1c0.8-0.2,1.2,0.1,1.1,1c-2,2-2,2.1,0.5,3.5h0.1l-2.6,7.2
	l-11.3-7.1l6.8-8.1l1.8,0.1v1.3l3-2.4l0.2,0.1l-0.8,2.6L87.7,167.1L87.7,167.1z"/>
<path class="st6" d="M94.9,205.3c3.7,2,7.8,2.9,12,2.9l2.4,2.7c-11.6-0.3-23.3-0.3-34.8-2.3v-0.9c1.2-0.4,2.4-0.7,3.6-0.9
	c4.3-0.4,8.6-0.6,13-0.9C92.3,205.7,93.6,205.5,94.9,205.3z"/>
<path class="st6" d="M159,210.6l4.5-5c2.8,0.2,5.6,0.3,8.4,0.6c3.4,0.3,6.7,0.8,10,1.2c0.3,0,0.6,0.2,1,0.8
	c-0.9,0.4-1.7,0.7-2.6,0.9c-4.8,0.5-9.6,0.9-14.4,1.2C163.6,210.5,161.3,210.5,159,210.6z"/>
<path class="st1" d="M172.3,188.3l-0.2-5.9c0.2-0.9,0.4-1.8,0.6-2.7l0,0l1.2-1.6C174.8,182,173.8,185.2,172.3,188.3z"/>
<path class="st1" d="M171.8,181.2l-1.5,0.2l-0.1-0.9l0,0c0.4-1,0.9-2,1.4-3c0.2-0.4,0.8-0.6,1.2-0.9c0.1,0.5,0.1,0.9,0.1,1.4
	c-0.1,0.5-0.2,1.1-0.3,1.6l0,0L171.8,181.2z"/>
<path class="st5" d="M196.9,71.4l0.2-0.3L196.9,71.4z"/>
<path class="st4" d="M99.7,122.1c-1.2-1.1-2.5-2.1-3.7-3.3c-1.4-1.4-1.2-3.2-0.9-5c0.7-4.3,4.7-7.2,9-6.6c0.4,0.1,0.9,0.2,1.3,0.3
	c2.8,1,5.4,4.7,5.4,7.5c-0.1,3.1-3,7.1-5.9,7.8c-1.2,0.2-2.5,0.2-3.7,0L99.7,122.1z"/>
<path class="st8" d="M121.6,98.3c0,3.8-3,6.9-6.8,7c0,0,0,0,0,0c-3.7,0-6.8-3-6.8-6.7c0-0.1,0-0.3,0-0.4c0-3.8,3-6.9,6.7-6.9
	c3.8,0,7,3.1,6.9,7C121.6,98.3,121.6,98.3,121.6,98.3z M114,96.1c-0.1,1.4,0.9,2.6,2.3,2.7c0.1,0,0.1,0,0.2,0c1.5,0,2.6-1.2,2.6-2.7
	c0,0,0-0.1,0-0.1c0.1-1.4-1.1-2.7-2.5-2.7c-1.4-0.1-2.6,1-2.7,2.3C114,95.7,114,95.9,114,96.1z"/>
<path class="st8" d="M148.2,104.1c-0.3-3.8,2.5-7.1,6.3-7.5c3.8-0.3,7.1,2.5,7.5,6.3c0,0.4,0,0.8,0,1.2c0,3.8-3.1,6.9-6.9,6.9
	C151.2,110.9,148.2,107.9,148.2,104.1z M156.7,101c0.1-1.3-0.8-2.5-2.1-2.6c-0.1,0-0.3,0-0.4,0c-1.5-0.1-2.8,1-2.9,2.5
	c0,0,0,0.1,0,0.1c0.1,1.5,1.3,2.7,2.8,2.8c1.4,0.1,2.6-0.9,2.7-2.3C156.7,101.3,156.7,101.1,156.7,101z"/>
<path class="st9" d="M139.6,125.8c-1.3,2.8-3.2,5.3-5.5,7.3c-2.7,2.2-5.9,1.6-7.2-1.6c-1.1-2.5-1.8-5.2-2.7-7.7l1.2-0.2
	C130.4,122.6,135.2,122.5,139.6,125.8z"/>
<path class="st10" d="M139.6,125.8c-4.4-3.3-9.2-3.2-14.2-2.2l-1.2,0.2l-0.8-5.5c3-1.6,6.4-2.2,9.8-1.5c0.9,0,1.9,0.3,2.7,0.6
	c2.1,1.2,4,2.6,6,3.9L139.6,125.8z"/>
<path class="st11" d="M141.9,121.2c-2-1.2-4-2.7-6-3.9c-0.9-0.4-1.8-0.6-2.7-0.6c-3.3-0.7-6.8-0.1-9.8,1.5c-0.2-2.2-0.4-4.4-0.7-6.9
	c2.9,1.9,5.8,0.8,8.6,0.3c1.4-0.4,2.9-0.3,4.1,0.4c2.4,1.7,5.3,2.5,8.2,2.2C144,117,142.8,119.1,141.9,121.2z"/>
<path class="st2" d="M120.1,141.9c0.2,0,0.4,0,0.6,0c5.2,2,10.7,3,16.2,3.1c-2.6,2.6-5.7,4.3-9.4,3.6
	C123.9,148,121.5,145.3,120.1,141.9L120.1,141.9z"/>
<path class="st2" d="M93.8,116.8l-5.5-5.1c2,0,3.7-0.1,5.3,0c0.5,0.1,0.9,0.5,1,1c0,1.3-0.1,2.6-0.3,3.8L93.8,116.8z"/>
<path class="st2" d="M137.2,181.2c0-1.1,0.1-2.1,0.1-3.2c-0.1-2.1-0.1-4.2,0-6.2c0.4-3.8,1.2-7.4,1.8-11.1c0.1-0.3,0.2-0.5,0.5-0.6
	c-0.1,0.8-0.2,1.5-0.4,2.3c-1.1,3.9-1.5,7.9-1.4,11.9c0,1.9,0,3.8,0,5.7C137.6,180.4,137.4,180.9,137.2,181.2L137.2,181.2z"/>
<path class="st2" d="M99.7,122.1l1.5,0.7c1.4,2.2,2.8,4.4,4.2,6.7c0.4,0.6,0.6,1.3,0.9,2l0,0c-1.3-1.8-2.7-3.5-4-5.3
	C101.4,124.8,100.6,123.5,99.7,122.1z"/>
<path class="st8" d="M133,105.2c0.5-0.1,1-0.1,1.6,0c0.5,0.2,1,0.5,1.4,0.8c-0.2,0.3-0.5,0.8-0.7,0.8c-0.6,0-1.2-0.1-1.8-0.3
	C133.3,106.4,133.2,105.8,133,105.2z"/>
<path class="st12" d="M170.2,180.6l0.1,0.9c-0.5,1.2-1,2.5-1.4,3.8l-0.3-0.1c0.2-0.8,0.3-1.6,0.5-2.4l0,0l0.2-0.3L170.2,180.6z"/>
<path class="st2" d="M147.1,189c1.5,0.3,2.5-0.3,2.9-2.1l0.4,1.2l0,0c-0.5,0.5-1,1-1.7,1.3C148.3,189.6,147.6,189.2,147.1,189
	L147.1,189z"/>
<path class="st2" d="M151.2,188.8c2,0.1,2,0.1,2.3-3.1C154.1,188.8,153.6,189.5,151.2,188.8z"/>
<path class="st2" d="M143.8,188.1l2.5-0.8C146.2,188.4,145.3,188.6,143.8,188.1L143.8,188.1z"/>
<path class="st2" d="M139.6,186.6l-1.1-1.8l1.1-0.2V186.6z"/>
<path class="st2" d="M142.6,187.2l1.2,0.9l0,0L142.6,187.2z"/>
<path class="st2" d="M136.6,182.1v1.8l0,0V182.1z"/>
<path class="st3" d="M91.8,149.6l-0.7-0.8L91.8,149.6z"/>
<path class="st2" d="M107,132.3c-0.1,0.1-0.1,0.1-0.2,0.2c0,0-0.1,0-0.1-0.1c0-0.1,0.1-0.2,0.1-0.2L107,132.3z"/>
<path class="st2" d="M107.4,133.1c0.1,0,0.2,0,0.2,0.1c0,0.1,0,0.1-0.1,0.2c-0.1,0.1-0.2,0-0.2-0.1
	C107.3,133.2,107.4,133.1,107.4,133.1z"/>
<path class="st2" d="M154.3,184.2l-0.2,0.5l-0.2-0.1L154.3,184.2L154.3,184.2z"/>
<path class="st2" d="M136.9,181.5l-0.3,0.6l0,0L136.9,181.5L136.9,181.5z"/>
<path class="st2" d="M136.6,183.9l0.3,0.6l0,0L136.6,183.9z"/>
<path class="st2" d="M136.9,184.5"/>
<path class="st3" d="M91,148.8l-0.4-0.5L91,148.8z"/>
<path class="st2" d="M154.3,184.2v-0.1V184.2L154.3,184.2z"/>
<path class="st2" d="M169.2,182.5l-0.2,0.3L169.2,182.5z"/>
<path class="st2" d="M137.2,181.2l-0.3,0.3l0,0L137.2,181.2L137.2,181.2z"/>
<path class="st12" d="M90,168.6l0.3-0.2L90,168.6z"/>
<path class="st2" d="M139.6,186.6h0.1H139.6z"/>
<path class="st2" d="M142.6,187.2L142.6,187.2L142.6,187.2z"/>
<path class="st2" d="M150.4,188.1h0.1H150.4L150.4,188.1z"/>
<path class="st2" d="M146.8,188.8l-0.1-0.1L146.8,188.8z"/>
<path class="st2" d="M147.1,189l-0.3-0.3l0,0L147.1,189L147.1,189z"/>
<path class="st2" d="M120.1,141.9L120.1,141.9L120.1,141.9z"/>
<path class="st2" d="M106.2,131.4h0.1H106.2z"/>
<path class="st12" d="M171.8,181.2l0.8-1.6c-0.2,0.9-0.4,1.8-0.6,2.7l-1,3.6l-0.4-0.1L171.8,181.2z"/>
<path class="st7" d="M87.7,167.1l0.1-0.1C87.8,167,87.8,167.1,87.7,167.1C87.7,167.1,87.7,167.1,87.7,167.1L87.7,167.1z"/>
<path class="st7" d="M86.1,165.3l0.2-0.1c0,0.1-0.1,0.2-0.1,0.2C86.2,165.4,86.2,165.3,86.1,165.3z"/>
<path class="st3" d="M86.8,169.6l-0.2,0.1C86.6,169.7,86.6,169.6,86.8,169.6L86.8,169.6z"/>
<path class="st13" d="M114,96.1c-0.2-1.4,0.8-2.6,2.2-2.8c0.1,0,0.3,0,0.4,0c1.4,0.1,2.6,1.3,2.5,2.7c0.1,1.5-1.1,2.7-2.5,2.8
	c0,0,0,0-0.1,0c-1.4,0-2.5-1.1-2.5-2.5C114,96.2,114,96.1,114,96.1z"/>
<path class="st13" d="M156.7,101c0.1,1.4-0.9,2.6-2.2,2.7c-0.1,0-0.3,0-0.4,0c-1.5-0.1-2.7-1.3-2.8-2.8c0-1.5,1.3-2.6,2.8-2.6
	c0,0,0.1,0,0.1,0c1.3-0.1,2.4,0.8,2.6,2.1C156.7,100.7,156.7,100.8,156.7,101z"/>
</svg>
